<svg width="64" height="64" viewBox="0 0 64 64" fill="none" xmlns="http://www.w3.org/2000/svg">
<path d="M58.375 3.54443H5.625C2.52338 3.54443 0 6.06781 0 9.16943V43.9536C0 47.0552 2.52338 49.5786 5.625 49.5786H24.5618V56.7056H21.7384C20.7029 56.7056 19.8634 57.5451 19.8634 58.5806C19.8634 59.6161 20.7029 60.4556 21.7384 60.4556H42.2617C43.2972 60.4556 44.1367 59.6161 44.1367 58.5806C44.1367 57.5451 43.2972 56.7056 42.2617 56.7056H39.4384V49.5786H58.375C61.4766 49.5786 64 47.0552 64 43.9536V9.16943C64 6.06781 61.4766 3.54443 58.375 3.54443ZM35.6883 56.7057H28.3118V49.5787H35.6883V56.7057ZM60.25 43.9537C60.25 44.9876 59.4089 45.8287 58.375 45.8287H5.625C4.59113 45.8287 3.75 44.9876 3.75 43.9537V41.1033H60.25V43.9537ZM60.25 37.3533H3.75V9.16943C3.75 8.13556 4.59113 7.29443 5.625 7.29443H58.375C59.4089 7.29443 60.25 8.13556 60.25 9.16943V37.3533Z" fill="white"/>
<path d="M22.7844 27.1114L17.7053 23.6437L22.7844 20.1761C23.6396 19.5922 23.8596 18.4256 23.2758 17.5704C22.692 16.7152 21.5253 16.4952 20.67 17.079L13.3226 22.0951C12.8109 22.4445 12.5049 23.0241 12.5049 23.6436C12.5049 24.2631 12.8109 24.843 13.3226 25.1924L20.67 30.2085C20.9934 30.4294 21.3614 30.5351 21.7255 30.5351C22.3243 30.5351 22.9128 30.2489 23.2758 29.7171C23.8596 28.8619 23.6396 27.6952 22.7844 27.1114Z" fill="white"/>
<path d="M50.6772 22.0956L43.3299 17.0795C42.4747 16.4957 41.3081 16.7157 40.7241 17.5709C40.1402 18.4261 40.3602 19.5927 41.2155 20.1766L46.2946 23.6442L41.2155 27.1116C40.3602 27.6955 40.1402 28.8621 40.7241 29.7174C41.0872 30.2492 41.6755 30.5354 42.2744 30.5354C42.6385 30.5354 43.0065 30.4295 43.3299 30.2087L50.6772 25.1926C51.189 24.8432 51.495 24.2636 51.495 23.6441C51.495 23.0246 51.1889 22.4451 50.6772 22.0956Z" fill="white"/>
<path d="M36.6821 15.3146C35.7796 14.8072 34.6363 15.1275 34.1288 16.0304L26.6016 29.4207C26.0943 30.3232 26.4147 31.4663 27.3175 31.9738C27.608 32.1372 27.9233 32.2147 28.2345 32.2147C28.89 32.2147 29.5265 31.8703 29.8706 31.2582L37.3978 17.8679C37.9053 16.9652 37.5848 15.8221 36.6821 15.3146Z" fill="white"/>
</svg>
