<svg width="64" height="64" viewBox="0 0 64 64" fill="none" xmlns="http://www.w3.org/2000/svg">
<g id="Arrow Icon" clip-path="url(#clip0_33_2833)">
<g id="Group">
<g id="Group_2">
<path id="Vector" d="M62.9771 29.5135L39.8644 6.40033C39.2046 5.74056 38.3253 5.37842 37.3877 5.37842C36.449 5.37842 35.5702 5.74108 34.9104 6.40033L32.812 8.4993C32.1527 9.15803 31.7895 10.0379 31.7895 10.976C31.7895 11.9136 32.1527 12.8232 32.812 13.4819L46.2956 26.9952H3.45753C1.5261 26.9952 0 28.5072 0 30.4392L0 33.4065C0 35.3385 1.5261 37.003 3.45753 37.003H46.4485L32.8125 50.5917C32.1532 51.2515 31.7901 52.1074 31.7901 53.0455C31.7901 53.9826 32.1532 54.8511 32.8125 55.5103L34.9109 57.6025C35.5707 58.2623 36.4495 58.6218 37.3882 58.6218C38.3258 58.6218 39.2051 58.2576 39.8649 57.5978L62.9776 34.4852C63.6389 33.8233 64.0026 32.9398 64 32.0006C64.0021 31.0583 63.6389 30.1743 62.9771 29.5135Z" fill="white"/>
</g>
</g>
</g>
<defs>
<clipPath id="clip0_33_2833">
<rect width="64" height="64" fill="white"/>
</clipPath>
</defs>
</svg>
