<svg width="36" height="36" viewBox="0 0 36 36" fill="none" xmlns="http://www.w3.org/2000/svg">
<g clip-path="url(#clip0_51_304)">
<path d="M16.6013 0.576385L3.60009 13.5773C3.22897 13.9484 3.02527 14.443 3.02527 14.9704C3.02527 15.4984 3.22927 15.9927 3.60009 16.3639L4.78077 17.5442C5.1513 17.9151 5.64622 18.1194 6.17393 18.1194C6.70134 18.1194 7.21294 17.9151 7.58348 17.5442L15.1847 9.95972V34.0561C15.1847 35.1425 16.0352 36.001 17.1219 36.001H18.7911C19.8778 36.001 20.8141 35.1425 20.8141 34.0561V9.87368L28.4577 17.544C28.8289 17.9148 29.3103 18.1191 29.838 18.1191C30.3651 18.1191 30.8536 17.9148 31.2245 17.544L32.4013 16.3636C32.7724 15.9925 32.9747 15.4981 32.9747 14.9701C32.9747 14.4427 32.7698 13.9481 32.3987 13.577L19.3978 0.576092C19.0255 0.204094 18.5286 -0.000488281 18.0003 0.000976562C17.4702 -0.00019455 16.973 0.204094 16.6013 0.576385Z" fill="white"/>
</g>
<defs>
<clipPath id="clip0_51_304">
<rect width="36" height="36" fill="white" transform="matrix(0 -1 1 0 0 36)"/>
</clipPath>
</defs>
</svg>
