<svg width="48" height="48" viewBox="0 0 48 48" fill="none" xmlns="http://www.w3.org/2000/svg">
<path d="M0.241935 7.96611H1.88617V14.7158C1.88617 14.8491 1.99446 14.957 2.1281 14.957H4.91597C5.04961 14.957 5.1579 14.8491 5.1579 14.7158V7.99791H7.04809C7.17099 7.99791 7.27439 7.90595 7.28842 7.78422L7.5755 5.29932C7.58339 5.23096 7.56166 5.16249 7.51579 5.1112C7.46987 5.05987 7.40417 5.03048 7.33521 5.03048H5.158V3.47283C5.158 3.00328 5.41154 2.76517 5.91167 2.76517C5.98294 2.76517 7.33521 2.76517 7.33521 2.76517C7.46886 2.76517 7.57715 2.65714 7.57715 2.52393V0.243028C7.57715 0.109765 7.46886 0.00178519 7.33521 0.00178519H5.37337C5.35953 0.00110972 5.3288 0 5.28351 0C4.94311 0 3.7599 0.0666311 2.82526 0.924007C1.78969 1.87412 1.93364 3.01172 1.96804 3.20896V5.03044H0.241935C0.10829 5.03044 0 5.13842 0 5.27168V7.72482C0 7.85809 0.10829 7.96611 0.241935 7.96611Z" fill="white"/>
</svg>
