<svg aria-hidden="true" style="position: absolute; width: 0; height: 0; overflow: hidden;" version="1.1" xmlns="http://www.w3.org/2000/svg" xmlns:xlink="http://www.w3.org/1999/xlink">
<defs>
<symbol id="icon-ArrowIconBlackSmoll" viewBox="0 0 32 32">
<path d="M31.489 14.757l-11.556-11.557c-0.33-0.33-0.77-0.511-1.238-0.511s-0.909 0.181-1.239 0.511l-1.049 1.050c-0.33 0.329-0.511 0.769-0.511 1.238s0.182 0.924 0.511 1.253l6.742 6.757h-21.419c-0.966 0-1.729 0.756-1.729 1.722v1.484c0 0.966 0.763 1.798 1.729 1.798h21.495l-6.818 6.794c-0.33 0.33-0.511 0.758-0.511 1.227s0.182 0.903 0.511 1.232l1.049 1.046c0.33 0.33 0.769 0.51 1.239 0.51s0.908-0.182 1.238-0.512l11.556-11.556c0.331-0.331 0.513-0.773 0.511-1.242 0.001-0.471-0.181-0.913-0.511-1.244z"></path>
</symbol>
<symbol id="icon-ArrowIconBlack" viewBox="0 0 109 32">
<path d="M108.175 17.508c0.833-0.833 0.833-2.184 0-3.017l-13.576-13.576c-0.833-0.833-2.184-0.833-3.017 0s-0.833 2.184 0 3.017l12.068 12.068-12.068 12.068c-0.833 0.833-0.833 2.184 0 3.017s2.184 0.833 3.017 0l13.576-13.576zM0 18.133h106.667v-4.267h-106.667v4.267z"></path>
</symbol>
<symbol id="icon-ArrowIconSmol" viewBox="0 0 32 32">
<path fill="currentColor"  d="M31.489 14.757l-11.556-11.557c-0.33-0.33-0.77-0.511-1.238-0.511s-0.909 0.181-1.239 0.511l-1.049 1.050c-0.33 0.329-0.511 0.769-0.511 1.238s0.182 0.924 0.511 1.253l6.742 6.757h-21.419c-0.966 0-1.729 0.756-1.729 1.722v1.484c0 0.966 0.763 1.798 1.729 1.798h21.495l-6.818 6.794c-0.33 0.33-0.511 0.758-0.511 1.227s0.182 0.903 0.511 1.232l1.049 1.046c0.33 0.33 0.769 0.51 1.239 0.51s0.908-0.182 1.238-0.512l11.556-11.556c0.331-0.331 0.512-0.773 0.511-1.242 0.001-0.471-0.181-0.913-0.511-1.244z"></path>
</symbol>
<symbol id="icon-Arrow-Icon" viewBox="0 0 202 32">
<path fill="#fff"  d="M201.414 17.414c0.782-0.781 0.782-2.047 0-2.828l-12.727-12.728c-0.781-0.781-2.047-0.781-2.828 0s-0.781 2.047 0 2.828l11.314 11.314-11.314 11.314c-0.781 0.781-0.781 2.047 0 2.828s2.047 0.781 2.828 0l12.727-12.728zM0.001 18h200v-4h-200v4z"></path>
</symbol>
<symbol id="icon-Network-Icon" viewBox="0 0 32 32">
<path fill="#fff" style="fill: var(--color1, #fff)" d="M28.5 20.55v-9.101c1.14-0.232 2-1.242 2-2.45 0-1.378-1.122-2.5-2.5-2.5-0.74 0-1.405 0.323-1.863 0.836l-7.663-4.473c0.017-0.119 0.027-0.24 0.027-0.363 0-1.379-1.122-2.5-2.5-2.5s-2.5 1.121-2.5 2.5c0 0.123 0.009 0.244 0.027 0.363l-7.663 4.473c-0.458-0.512-1.124-0.836-1.863-0.836-1.379 0-2.5 1.122-2.5 2.5 0 1.207 0.86 2.217 2 2.45v9.101c-1.14 0.232-2 1.242-2 2.45 0 1.378 1.121 2.5 2.5 2.5 0.74 0 1.406-0.323 1.864-0.836l7.663 4.473c-0.017 0.119-0.027 0.24-0.027 0.363 0 1.378 1.121 2.5 2.5 2.5s2.5-1.122 2.5-2.5c0-0.123-0.009-0.244-0.027-0.363l7.663-4.473c0.458 0.513 1.124 0.836 1.864 0.836 1.378 0 2.5-1.122 2.5-2.5 0-1.207-0.86-2.217-2-2.45zM27.194 20.634l-4.619-7.891 3.562-2.079c0.352 0.394 0.827 0.676 1.363 0.785v9.101c-0.105 0.021-0.207 0.050-0.306 0.084zM16.5 22.5v-4.050c0.537-0.109 1.011-0.392 1.363-0.785l7.769 4.534c-0.033 0.098-0.061 0.198-0.082 0.301l-9.050 0zM6.45 22.5c-0.021-0.103-0.049-0.203-0.082-0.301l7.769-4.534c0.352 0.394 0.827 0.676 1.363 0.785v4.050h-9.050zM4.5 20.55v-9.101c0.537-0.109 1.011-0.392 1.363-0.785l3.562 2.079-4.619 7.891c-0.1-0.034-0.202-0.063-0.306-0.084zM10.288 13.247l3.344 1.952c-0.085 0.252-0.133 0.521-0.133 0.801s0.047 0.55 0.133 0.801l-7.769 4.534c-0.061-0.069-0.127-0.134-0.195-0.196l4.62-7.893zM15.5 4.95v8.601c-0.537 0.109-1.011 0.392-1.363 0.785l-3.343-1.951 4.401-7.518c0.099 0.034 0.201 0.062 0.306 0.084zM16.806 4.866l4.401 7.518-3.343 1.951c-0.352-0.394-0.827-0.676-1.363-0.785v-8.601c0.105-0.021 0.206-0.050 0.306-0.084zM16 17.5c-0.536 0-1.006-0.282-1.272-0.706-0.007-0.014-0.014-0.028-0.021-0.041s-0.017-0.028-0.027-0.041c-0.115-0.212-0.18-0.455-0.18-0.712 0-0.26 0.067-0.506 0.184-0.719 0.008-0.011 0.016-0.022 0.023-0.034 0.008-0.013 0.015-0.027 0.021-0.041 0.265-0.424 0.736-0.706 1.272-0.706s1.007 0.283 1.272 0.707c0.006 0.014 0.013 0.027 0.021 0.040 0.007 0.012 0.015 0.022 0.023 0.033 0.117 0.214 0.184 0.459 0.184 0.72 0 0.257-0.065 0.499-0.18 0.711-0.010 0.014-0.019 0.028-0.028 0.042-0.008 0.013-0.015 0.027-0.021 0.041-0.265 0.424-0.736 0.706-1.272 0.706zM26.137 21.336l-7.769-4.534c0.085-0.252 0.133-0.521 0.133-0.801s-0.047-0.55-0.133-0.801l3.344-1.952 4.62 7.893c-0.069 0.062-0.134 0.127-0.195 0.196zM28 7.5c0.827 0 1.5 0.673 1.5 1.5s-0.673 1.5-1.5 1.5c-0.536 0-1.007-0.283-1.272-0.707-0.006-0.014-0.013-0.027-0.021-0.040-0.008-0.014-0.018-0.028-0.027-0.041-0.115-0.212-0.18-0.454-0.18-0.712 0-0.26 0.067-0.506 0.184-0.719 0.008-0.011 0.016-0.022 0.023-0.034 0.008-0.013 0.015-0.027 0.021-0.041 0.265-0.424 0.736-0.706 1.272-0.706zM25.633 8.199c-0.085 0.252-0.133 0.521-0.133 0.801s0.047 0.55 0.133 0.801l-3.563 2.079-4.402-7.52c0.177-0.159 0.33-0.342 0.456-0.544l7.508 4.383zM16 1c0.827 0 1.5 0.673 1.5 1.5 0 0.156-0.024 0.307-0.069 0.449-0 0.001-0 0.001-0.001 0.002-0.112 0.354-0.351 0.651-0.663 0.838-0.003 0.002-0.007 0.003-0.010 0.005s-0.005 0.003-0.008 0.005c-0.221 0.128-0.476 0.201-0.749 0.201s-0.528-0.074-0.749-0.201c-0.003-0.002-0.005-0.004-0.008-0.005s-0.007-0.004-0.011-0.006c-0.312-0.187-0.552-0.484-0.663-0.838l-0-0c-0.045-0.142-0.069-0.293-0.069-0.45 0-0.827 0.673-1.5 1.5-1.5zM13.876 3.816c0.126 0.202 0.28 0.386 0.456 0.544l-4.402 7.52-3.563-2.079c0.085-0.252 0.133-0.521 0.133-0.801s-0.047-0.55-0.133-0.801l7.508-4.383zM2.5 9c0-0.827 0.673-1.5 1.5-1.5 0.536 0 1.007 0.283 1.272 0.707 0.006 0.014 0.013 0.027 0.021 0.040 0.007 0.012 0.015 0.022 0.022 0.033 0.117 0.214 0.184 0.459 0.184 0.72 0 0.257-0.065 0.499-0.179 0.711-0.010 0.014-0.019 0.028-0.028 0.042-0.008 0.013-0.015 0.027-0.021 0.041-0.265 0.424-0.736 0.706-1.272 0.706-0.827 0-1.5-0.673-1.5-1.5zM4 24.5c-0.827 0-1.5-0.673-1.5-1.5s0.673-1.5 1.5-1.5c0.274 0 0.532 0.075 0.753 0.204 0.001 0.001 0.003 0.002 0.004 0.003s0.003 0.001 0.004 0.002c0.207 0.123 0.383 0.294 0.51 0.498 0.006 0.014 0.013 0.027 0.021 0.040 0.007 0.012 0.015 0.022 0.022 0.033 0.117 0.214 0.184 0.459 0.184 0.72 0 0.256-0.065 0.498-0.179 0.709-0.010 0.014-0.020 0.028-0.028 0.044s-0.016 0.029-0.022 0.043c-0.266 0.423-0.736 0.704-1.271 0.704zM6.368 23.801c0.033-0.098 0.061-0.198 0.082-0.301h9.050v3.55c-0.684 0.139-1.267 0.559-1.624 1.133l-7.508-4.383zM16 31c-0.827 0-1.5-0.673-1.5-1.5s0.673-1.5 1.5-1.5c0.827 0 1.5 0.673 1.5 1.5s-0.673 1.5-1.5 1.5zM18.124 28.184c-0.357-0.574-0.94-0.994-1.624-1.133v-3.55h9.050c0.021 0.103 0.049 0.203 0.082 0.301l-7.508 4.383zM28 24.5c-0.535 0-1.005-0.282-1.271-0.705-0.007-0.015-0.014-0.029-0.022-0.043s-0.018-0.029-0.028-0.043c-0.114-0.211-0.179-0.453-0.179-0.709 0-0.26 0.067-0.506 0.184-0.719 0.008-0.011 0.016-0.022 0.023-0.034 0.008-0.013 0.015-0.027 0.021-0.041 0.128-0.204 0.303-0.375 0.51-0.498 0.001-0.001 0.003-0.001 0.004-0.002s0.003-0.002 0.004-0.003c0.222-0.129 0.479-0.204 0.753-0.204 0.827 0 1.5 0.673 1.5 1.5s-0.673 1.5-1.5 1.5z"></path>
</symbol>
<symbol id="icon-Data-Analysis-Icon" viewBox="0 0 32 32">
<path fill="#fff" style="fill: var(--color1, #fff)" d="M19.671 24.941l5.082 5.082c1.412 1.412 3.859 1.412 5.271 0 1.506-1.412 1.506-3.859 0-5.271l-5.082-5.082c0.941-1.788 1.506-3.859 1.506-6.024 0-0.376 0-0.753-0.094-1.035l3.482-3.482c0.376-0.376 0.376-0.941 0-1.318s-0.941-0.376-1.318 0l-2.541 2.541c-0.565-2.165-1.694-4.047-3.294-5.647-4.988-4.988-12.988-4.988-17.976 0s-4.988 12.988 0 17.976c4.141 4.141 10.259 4.8 14.965 2.259zM28.612 26.071c0.753 0.753 0.753 1.882 0 2.635s-1.882 0.753-2.635 0l-4.8-4.8c0.471-0.376 0.941-0.753 1.412-1.224s0.847-0.941 1.224-1.412l4.8 4.8zM6.024 6.024c4.235-4.235 11.106-4.235 15.341 0 1.6 1.6 2.635 3.671 3.012 5.929l-1.882 1.882-3.106-3.106c-0.376-0.376-0.941-0.376-1.318 0l-4.894 4.894-2.165-2.165c-0.376-0.376-0.941-0.376-1.318 0l-3.765 3.765c-0.376 0.376-0.376 0.941 0 1.318s0.941 0.376 1.318 0l3.106-3.106c1.412 1.129 2.447 3.2 3.482 2.165l4.894-4.894 3.106 3.106c0.376 0.376 0.941 0.376 1.318 0l1.318-1.318c-0.188 2.635-1.318 4.988-3.106 6.871-4.235 4.235-11.106 4.235-15.341 0s-4.235-11.106 0-15.341z"></path>
</symbol>
<symbol id="icon-Rocket-Icon" viewBox="0 0 32 32">
<path fill="#fff" style="fill: var(--color1, #fff)" d="M31.982 0.901c-0.026-0.477-0.407-0.858-0.884-0.884-0.012-0.001-0.312-0.017-0.83-0.017-1.427 0-4.307 0.12-7.55 0.921-4.099 1.013-7.416 2.766-9.86 5.21-1.064 1.064-1.995 2.29-2.791 3.672l-1.068-1.067c-0.28-0.28-0.706-0.354-1.064-0.184l-7.399 3.505c-0.338 0.16-0.548 0.506-0.536 0.88l0.39 11.294c0.013 0.373 0.246 0.703 0.593 0.84 0.112 0.044 0.228 0.065 0.343 0.065 0.244 0 0.484-0.095 0.663-0.275l6.347-6.347 1.912 1.912-6.347 6.347c-0.366 0.366-0.366 0.96 0 1.326 0.183 0.183 0.423 0.275 0.663 0.275s0.48-0.092 0.663-0.275l6.347-6.347 1.912 1.912-6.347 6.347c-0.264 0.264-0.346 0.659-0.209 1.007s0.467 0.58 0.84 0.593l11.294 0.389c0.011 0 0.022 0 0.032 0 0.361 0 0.692-0.208 0.847-0.536l3.505-7.399c0.17-0.358 0.096-0.784-0.184-1.064l-1.068-1.067c1.382-0.796 2.608-1.728 3.672-2.791 1.555-1.555 2.844-3.489 3.831-5.748 0.781-1.787 1.376-3.782 1.769-5.928 0.666-3.642 0.521-6.446 0.515-6.563zM1.896 13.487l6.245-2.958 1.026 1.027c-0.71 1.56-1.274 3.283-1.688 5.164l-5.29 5.29-0.294-8.522zM21.471 23.858l-2.959 6.245-8.522-0.294 5.29-5.29c1.88-0.414 3.604-0.978 5.164-1.688l1.027 1.027zM29.615 7.172c-0.575 3.116-1.922 7.491-5.073 10.642-1.184 1.184-2.604 2.189-4.245 3.009-0.052 0.020-0.102 0.045-0.151 0.075-1.498 0.732-3.179 1.313-5.034 1.738l-2.212-2.212 3.231-3.231c0.366-0.366 0.366-0.96 0-1.326s-0.96-0.366-1.326 0l-3.232 3.231-2.212-2.212c0.425-1.855 1.005-3.535 1.738-5.034 0.030-0.049 0.055-0.099 0.075-0.151 0.82-1.641 1.824-3.061 3.009-4.245 5.083-5.083 13.304-5.566 15.939-5.582-0.007 1.070-0.089 3.025-0.509 5.297z"></path>
<path fill="#fff" style="fill: var(--color1, #fff)" d="M22.089 13.601c0.986 0 1.913-0.384 2.61-1.081 1.439-1.439 1.439-3.781-0-5.22-0.697-0.697-1.624-1.081-2.61-1.081s-1.913 0.384-2.61 1.081c-0.697 0.697-1.081 1.624-1.081 2.61s0.384 1.913 1.081 2.61c0.697 0.697 1.624 1.081 2.61 1.081zM20.805 8.626c0.343-0.343 0.799-0.532 1.284-0.532s0.941 0.189 1.284 0.532c0.708 0.708 0.708 1.86 0 2.569-0.343 0.343-0.799 0.532-1.284 0.532s-0.941-0.189-1.284-0.532c-0.343-0.343-0.532-0.799-0.532-1.284s0.189-0.941 0.532-1.284z"></path>
</symbol>
<symbol id="icon-Coding-Icon" viewBox="0 0 32 32">
<path fill="#fff" style="fill: var(--color1, #fff)" d="M29.188 1.772h-26.375c-1.551 0-2.813 1.262-2.813 2.812v17.392c0 1.551 1.262 2.813 2.813 2.813h9.468v3.564h-1.412c-0.518 0-0.938 0.42-0.938 0.938s0.42 0.938 0.938 0.938h10.262c0.518 0 0.938-0.42 0.938-0.938s-0.42-0.938-0.938-0.938h-1.412v-3.564h9.468c1.551 0 2.813-1.262 2.813-2.813v-17.392c0-1.551-1.262-2.812-2.813-2.812zM17.844 28.353h-3.688v-3.564h3.688v3.564zM30.125 21.977c0 0.517-0.421 0.938-0.938 0.938h-26.375c-0.517 0-0.938-0.421-0.938-0.938v-1.425h28.25v1.425zM30.125 18.677h-28.25v-14.092c0-0.517 0.421-0.937 0.938-0.937h26.375c0.517 0 0.938 0.421 0.938 0.937v14.092z"></path>
<path fill="#fff" style="fill: var(--color1, #fff)" d="M11.392 13.556l-2.54-1.734 2.54-1.734c0.428-0.292 0.538-0.875 0.246-1.303s-0.875-0.538-1.303-0.246l-3.674 2.508c-0.256 0.175-0.409 0.464-0.409 0.774s0.153 0.6 0.409 0.774l3.674 2.508c0.162 0.11 0.346 0.163 0.528 0.163 0.299 0 0.594-0.143 0.775-0.409 0.292-0.428 0.182-1.011-0.246-1.303z"></path>
<path fill="#fff" style="fill: var(--color1, #fff)" d="M25.339 11.048l-3.674-2.508c-0.428-0.292-1.011-0.182-1.303 0.246s-0.182 1.011 0.246 1.303l2.54 1.734-2.54 1.734c-0.428 0.292-0.538 0.875-0.246 1.303 0.182 0.266 0.476 0.409 0.775 0.409 0.182 0 0.366-0.053 0.528-0.163l3.674-2.508c0.256-0.175 0.409-0.464 0.409-0.774s-0.153-0.6-0.409-0.774z"></path>
<path fill="#fff" style="fill: var(--color1, #fff)" d="M18.341 7.657c-0.451-0.254-1.023-0.094-1.277 0.358l-3.764 6.695c-0.254 0.451-0.093 1.023 0.358 1.277 0.145 0.082 0.303 0.12 0.459 0.12 0.328 0 0.646-0.172 0.818-0.478l3.764-6.695c0.254-0.451 0.093-1.023-0.358-1.277z"></path>
</symbol>
<symbol id="icon-Cloud-Icon" viewBox="0 0 32 32">
<path fill="#fff" style="fill: var(--color1, #fff)" d="M26.313 25.375h-20.625c-1.503 0-2.925-0.583-4.003-1.642-1.087-1.067-1.685-2.482-1.685-3.983s0.598-2.917 1.685-3.983c0.851-0.835 1.916-1.375 3.066-1.565-0-0.025-0.001-0.051-0.001-0.077 0-4.136 3.364-7.5 7.5-7.5 1.534 0 3.007 0.462 4.262 1.335 0.883 0.615 1.617 1.403 2.162 2.315 0.88-0.546 1.895-0.838 2.951-0.838 2.805 0 5.138 2.064 5.558 4.754 1.176 0.18 2.265 0.724 3.132 1.575 1.087 1.067 1.685 2.481 1.685 3.984s-0.598 2.917-1.685 3.983c-1.078 1.059-2.499 1.642-4.003 1.642zM5.688 16c-2.102 0-3.813 1.682-3.813 3.75s1.71 3.75 3.813 3.75h20.625c2.102 0 3.813-1.682 3.813-3.75s-1.71-3.75-3.813-3.75h-0.937v-0.938c0-2.068-1.682-3.75-3.75-3.75-0.985 0-1.918 0.383-2.625 1.077l-1.009 0.991-0.52-1.316c-0.856-2.166-2.905-3.565-5.221-3.565-3.102 0-5.625 2.523-5.625 5.625 0 0.222 0.035 0.459 0.072 0.711l0.168 1.164h-1.177z"></path>
</symbol>
<symbol id="icon-Marketing-Icon" viewBox="0 0 32 32">
<path fill="none" stroke="#fff" style="stroke: var(--color1, #fff)" stroke-linejoin="round" stroke-linecap="round" stroke-miterlimit="22.926" stroke-width="1.6" d="M26.256 1.501c-2.558 2.181-5.087 3.985-7.727 5.155-3.002 1.33-6.145 1.753-9.217 1.708v13.314c3.072-0.044 6.215 0.375 9.217 1.705 2.614 1.158 5.119 2.941 7.651 5.091"></path>
<path fill="none" stroke="#fff" style="stroke: var(--color1, #fff)" stroke-linejoin="round" stroke-linecap="round" stroke-miterlimit="22.926" stroke-width="1.6" d="M27.313 29.063c2.065 0 3.75-6.317 3.75-14.063s-1.685-14.063-3.75-14.063c-2.065 0-3.75 6.317-3.75 14.063s1.685 14.063 3.75 14.063z"></path>
<path fill="none" stroke="#fff" style="stroke: var(--color1, #fff)" stroke-linejoin="round" stroke-linecap="round" stroke-miterlimit="22.926" stroke-width="1.6" d="M23.789 10.737c2.059 0.319 3.649 2.111 3.649 4.256 0 2.068-1.477 3.808-3.428 4.216"></path>
<path fill="none" stroke="#fff" style="stroke: var(--color1, #fff)" stroke-linejoin="round" stroke-linecap="round" stroke-miterlimit="22.926" stroke-width="1.6" d="M9.313 8.38h-4.25c-2.272 0-4.125 1.853-4.125 4.125v5.063c0 2.272 1.853 4.125 4.125 4.125h4.25v-13.313z"></path>
<path fill="none" stroke="#fff" style="stroke: var(--color1, #fff)" stroke-linejoin="round" stroke-linecap="round" stroke-miterlimit="22.926" stroke-width="1.6" d="M13.25 22.25l-2.517 7.356c-0.303 0.881-1.085 1.456-2.017 1.456h-0.091c-1.17 0-2.125-0.955-2.125-2.125v-7.245"></path>
</symbol>
<symbol id="icon-Security-Icon" viewBox="0 0 32 32">
<path fill="#fff" style="fill: var(--color1, #fff)" d="M28.79 5.184c-1.608-0.552-2.896-1.847-3.445-3.465-0.35-1.028-1.312-1.719-2.396-1.719h-13.96c-1.083 0-2.046 0.691-2.396 1.719-0.55 1.617-1.838 2.912-3.445 3.465-1.023 0.352-1.71 1.317-1.71 2.403v3.531c0 4.608 1.381 9.046 3.993 12.832 2.39 3.465 5.684 6.176 9.526 7.841 0.322 0.139 0.666 0.209 1.012 0.209s0.69-0.070 1.011-0.209c3.842-1.665 7.136-4.376 9.526-7.841 2.613-3.787 3.994-8.224 3.994-12.832v-3.531c0-1.086-0.687-2.051-1.71-2.403zM28.625 11.118c0 4.226-1.266 8.295-3.662 11.768-2.191 3.175-5.209 5.66-8.728 7.185-0.169 0.073-0.363 0.073-0.532 0-3.52-1.525-6.538-4.010-8.728-7.185-2.396-3.472-3.662-7.541-3.662-11.768v-3.531c0-0.285 0.179-0.538 0.445-0.629 2.152-0.74 3.876-2.472 4.611-4.635 0.091-0.268 0.34-0.448 0.621-0.448h13.96c0.28 0 0.53 0.18 0.621 0.448 0.735 2.163 2.459 3.895 4.611 4.635 0.266 0.091 0.445 0.344 0.445 0.629v3.531z"></path>
<path fill="#fff" style="fill: var(--color1, #fff)" d="M19.952 12.155h-0.064v-2.67c0-2.161-1.759-3.92-3.92-3.92s-3.92 1.759-3.92 3.92v2.67h-0.064c-1.245 0-2.258 1.013-2.258 2.258v5.396c0 2.318 1.886 4.205 4.204 4.205h4.074c2.318 0 4.204-1.887 4.204-4.205v-5.396c0-1.245-1.013-2.258-2.258-2.258zM13.924 9.485c0-1.127 0.918-2.045 2.045-2.045s2.045 0.918 2.045 2.045v2.67h-4.090v-2.67zM20.335 19.809c0 1.285-1.045 2.33-2.329 2.33h-4.074c-1.284 0-2.329-1.045-2.329-2.33v-5.396c0-0.211 0.172-0.383 0.383-0.383h7.967c0.211 0 0.383 0.172 0.383 0.383v5.396z"></path>
<path fill="#fff" style="fill: var(--color1, #fff)" d="M15.969 16.261c-0.518 0-0.937 0.42-0.937 0.938v1.771c0 0.518 0.42 0.937 0.937 0.937s0.938-0.42 0.938-0.937v-1.771c0-0.518-0.42-0.938-0.938-0.938z"></path>
</symbol>
<symbol id="icon-mobile" viewBox="0 0 32 32">
<path fill="#fff" style="fill: var(--color1, #fff)" d="M22.258 0h-12.517c-0.886 0.001-1.735 0.353-2.362 0.978s-0.979 1.474-0.98 2.358v25.326c0.001 0.885 0.353 1.733 0.98 2.358s1.476 0.977 2.362 0.978h12.517c0.886-0.001 1.735-0.353 2.362-0.978s0.979-1.474 0.98-2.358v-25.326c-0.001-0.885-0.353-1.733-0.98-2.358s-1.476-0.977-2.362-0.978zM19.762 1.198v0.774c-0 0.156-0.063 0.306-0.173 0.417s-0.261 0.173-0.417 0.173h-6.34c-0.157-0-0.307-0.062-0.417-0.173s-0.173-0.26-0.173-0.417v-0.774h7.522zM24.4 28.663c-0.001 0.567-0.227 1.111-0.628 1.512s-0.946 0.627-1.514 0.627h-12.516c-0.568-0.001-1.112-0.226-1.514-0.627s-0.627-0.945-0.628-1.512v-25.326c0.001-0.567 0.227-1.111 0.628-1.512s0.946-0.627 1.514-0.627h1.298v0.774c0.001 0.474 0.189 0.928 0.525 1.263s0.791 0.524 1.265 0.524h6.34c0.475-0.001 0.93-0.189 1.265-0.524s0.524-0.789 0.525-1.263v-0.774h1.298c0.568 0.001 1.112 0.226 1.514 0.627s0.627 0.945 0.628 1.512v25.326z"></path>
</symbol>
<symbol id="icon-Email-Icon" viewBox="0 0 32 32">
<path fill="#fff" style="fill: var(--color1, #fff)" d="M29.187 4.75h-26.375c-1.554 0-2.813 1.266-2.813 2.813v16.875c0 1.555 1.268 2.813 2.813 2.813h26.375c1.541 0 2.813-1.252 2.813-2.813v-16.875c0-1.543-1.254-2.813-2.813-2.813zM28.794 6.625c-0.575 0.572-10.463 10.408-10.805 10.748-0.531 0.531-1.238 0.824-1.989 0.824s-1.457-0.293-1.991-0.825c-0.23-0.228-10.009-9.957-10.803-10.746h25.587zM1.875 24.056v-16.111l8.102 8.060-8.102 8.051zM3.208 25.375l8.099-8.048 1.379 1.371c0.885 0.885 2.063 1.373 3.315 1.373s2.429-0.488 3.313-1.371l1.38-1.373 8.099 8.048h-25.585zM30.125 24.056l-8.102-8.051 8.102-8.060v16.111z"></path>
</symbol>
<symbol id="icon-Phone-Icon" viewBox="0 0 32 32">
<path fill="#fff" style="fill: var(--color1, #fff)" d="M27.572 22.272c-1.933-1.653-3.895-2.655-5.804-1.004l-1.14 0.998c-0.834 0.724-2.385 4.109-8.382-2.79-5.995-6.89-2.428-7.962-1.592-8.68l1.146-0.999c1.899-1.655 1.183-3.738-0.187-5.882l-0.827-1.299c-1.376-2.139-2.875-3.544-4.779-1.892l-1.029 0.899c-0.842 0.613-3.194 2.606-3.765 6.393-0.687 4.543 1.48 9.746 6.444 15.454 4.958 5.711 9.812 8.579 14.41 8.529 3.821-0.041 6.129-2.092 6.851-2.837l1.033-0.9c1.899-1.651 0.719-3.332-1.215-4.989l-1.163-1z"></path>
</symbol>
<symbol id="icon-facebook-svgrepo-com" viewBox="0 0 32 32">
<path d="M8.434 17.043h3.508v14.441c0 0.285 0.231 0.516 0.516 0.516h5.947c0.285 0 0.516-0.231 0.516-0.516v-14.373h4.032c0.262 0 0.483-0.197 0.513-0.457l0.612-5.316c0.017-0.146-0.030-0.293-0.127-0.402s-0.238-0.173-0.385-0.173h-4.645v-3.333c0-1.005 0.541-1.514 1.608-1.514 0.152 0 3.037 0 3.037 0 0.285 0 0.516-0.231 0.516-0.516v-4.88c0-0.285-0.231-0.516-0.516-0.516h-4.185c-0.030-0.001-0.095-0.004-0.192-0.004-0.726 0-3.25 0.143-5.244 1.977-2.209 2.033-1.902 4.467-1.829 4.889v3.897h-3.682c-0.285 0-0.516 0.231-0.516 0.516v5.248c0 0.285 0.231 0.516 0.516 0.516z"></path>
</symbol>
<symbol id="icon-face" viewBox="0 0 32 32">
<path fill="#fff" style="fill: var(--color1, #fff)" d="M7.983 16.994h3.508v14.399c0 0.284 0.231 0.515 0.516 0.515h5.947c0.285 0 0.516-0.23 0.516-0.515v-14.332h4.032c0.262 0 0.483-0.196 0.513-0.456l0.612-5.301c0.017-0.146-0.030-0.292-0.127-0.401s-0.238-0.172-0.385-0.172h-4.645v-3.323c0-1.002 0.541-1.51 1.608-1.51 0.152 0 3.037 0 3.037 0 0.285 0 0.516-0.23 0.516-0.515v-4.866c0-0.284-0.231-0.515-0.516-0.515h-4.185c-0.030-0.001-0.095-0.004-0.192-0.004-0.726 0-3.25 0.142-5.244 1.971-2.209 2.027-1.902 4.454-1.829 4.875v3.886h-3.682c-0.285 0-0.516 0.23-0.516 0.515v5.233c0 0.284 0.231 0.515 0.516 0.515z"></path>
</symbol>
<symbol id="icon-X_logo" viewBox="0 0 32 32">
<path d="M19.032 13.551l11.905-13.551h-2.82l-10.341 11.764-8.253-11.764h-9.522l12.483 17.791-12.483 14.209h2.82l10.914-12.426 8.718 12.426h9.522zM3.838 2.083h4.332l19.944 27.937h-4.333z"></path>
</symbol>
<symbol id="icon-Facebook-Icon" viewBox="0 0 32 32">
<path d="M12.928 17.664c-0.096 0-2.208 0-3.168 0-0.512 0-0.672-0.192-0.672-0.672 0-1.28 0-2.592 0-3.872 0-0.512 0.192-0.672 0.672-0.672h3.168c0-0.096 0-1.952 0-2.816 0-1.28 0.224-2.496 0.864-3.616 0.672-1.152 1.632-1.92 2.848-2.368 0.8-0.288 1.6-0.416 2.464-0.416h3.136c0.448 0 0.64 0.192 0.64 0.64v3.648c0 0.448-0.192 0.64-0.64 0.64-0.864 0-1.728 0-2.592 0.032-0.864 0-1.312 0.416-1.312 1.312-0.032 0.96 0 1.888 0 2.88h3.712c0.512 0 0.704 0.192 0.704 0.704v3.872c0 0.512-0.16 0.672-0.704 0.672-1.152 0-3.616 0-3.712 0v10.432c0 0.544-0.16 0.736-0.736 0.736-1.344 0-2.656 0-4 0-0.48 0-0.672-0.192-0.672-0.672 0-3.36 0-10.368 0-10.464z"></path>
</symbol>
<symbol id="icon-inst" viewBox="0 0 32 32">
<path d="M24 0.372h-16c-4.4 0-8 3.515-8 7.814v15.628c0 4.297 3.6 7.814 8 7.814h16c4.4 0 8-3.517 8-7.814v-15.628c0-4.299-3.6-7.814-8-7.814zM16 22.511c-3.682 0-6.667-2.916-6.667-6.511 0-3.597 2.984-6.512 6.667-6.512 3.681 0 6.667 2.915 6.667 6.512 0 3.595-2.986 6.511-6.667 6.511zM24.667 9.488c-1.106 0-2-0.875-2-1.953s0.894-1.954 2-1.954c1.106 0 2 0.875 2 1.954s-0.894 1.953-2 1.953z"></path>
</symbol>
<symbol id="icon-Web-Icon" viewBox="0 0 32 32">
<path fill="#fff" style="fill: var(--color1, #fff)" d="M27.314 4.686c-3.022-3.022-7.040-4.686-11.314-4.686s-8.292 1.664-11.314 4.686c-3.022 3.022-4.686 7.040-4.686 11.314s1.664 8.292 4.686 11.314c3.022 3.022 7.040 4.686 11.314 4.686s8.292-1.664 11.314-4.686c3.022-3.022 4.686-7.040 4.686-11.314s-1.664-8.292-4.686-11.314zM6.013 6.013c1.407-1.407 3.059-2.48 4.859-3.18-0.479 0.599-0.928 1.287-1.339 2.061-0.478 0.899-0.89 1.886-1.233 2.94-1.189-0.197-2.29-0.44-3.275-0.725 0.308-0.379 0.638-0.745 0.988-1.095zM3.889 8.724c1.151 0.369 2.467 0.679 3.904 0.926-0.4 1.698-0.635 3.525-0.692 5.412h-5.193c0.147-2.265 0.828-4.426 1.981-6.338zM3.787 23.102c-1.091-1.869-1.736-3.968-1.879-6.164h5.197c0.061 1.833 0.292 3.608 0.679 5.262-1.466 0.238-2.815 0.541-3.997 0.902zM6.013 25.987c-0.399-0.399-0.77-0.818-1.114-1.253 1.020-0.283 2.161-0.522 3.388-0.715 0.346 1.069 0.762 2.069 1.245 2.979 0.448 0.843 0.941 1.584 1.469 2.219-1.851-0.699-3.548-1.789-4.989-3.23zM15.062 29.882c-1.425-0.399-2.774-1.701-3.871-3.766-0.384-0.722-0.721-1.51-1.009-2.349 1.546-0.17 3.19-0.271 4.88-0.294v6.409zM15.062 21.596c-1.874 0.026-3.701 0.143-5.412 0.344-0.377-1.56-0.604-3.249-0.667-5.002h6.079v4.658h-0zM15.062 15.062h-6.082c0.057-1.802 0.288-3.538 0.677-5.138 1.7 0.213 3.523 0.342 5.405 0.379v4.759zM15.062 8.426c-1.697-0.034-3.338-0.145-4.872-0.325 0.287-0.831 0.621-1.611 1.001-2.326 1.097-2.064 2.446-3.366 3.871-3.766v6.417zM28.17 8.824c1.117 1.887 1.777 4.012 1.922 6.238h-5.193c-0.056-1.865-0.287-3.672-0.678-5.353 1.446-0.233 2.779-0.531 3.949-0.885zM25.986 6.013c0.377 0.377 0.729 0.772 1.057 1.182-1.005 0.274-2.123 0.507-3.325 0.694-0.347-1.075-0.765-2.082-1.251-2.996-0.411-0.774-0.86-1.462-1.339-2.061 1.8 0.7 3.452 1.774 4.859 3.18zM16.939 16.939h6.079c-0.063 1.767-0.293 3.468-0.676 5.038-1.7-0.211-3.522-0.339-5.403-0.375v-4.663zM16.939 15.062v-4.753c1.875-0.025 3.704-0.141 5.416-0.341 0.383 1.588 0.61 3.308 0.666 5.094h-6.082zM16.938 2.009h0c1.425 0.399 2.774 1.701 3.871 3.766 0.386 0.727 0.725 1.52 1.015 2.365-1.548 0.169-3.194 0.269-4.886 0.292v-6.423zM16.939 29.882v-6.404c1.695 0.033 3.335 0.143 4.869 0.322-0.286 0.827-0.619 1.603-0.998 2.316-1.097 2.064-2.445 3.366-3.871 3.766zM25.986 25.987c-1.441 1.441-3.138 2.531-4.989 3.23 0.529-0.635 1.021-1.376 1.469-2.219 0.476-0.896 0.887-1.881 1.23-2.932 1.217 0.201 2.342 0.449 3.345 0.741-0.328 0.409-0.679 0.803-1.055 1.18zM28.163 23.188c-1.165-0.374-2.5-0.689-3.958-0.938 0.393-1.668 0.628-3.46 0.69-5.311h5.197c-0.145 2.23-0.807 4.36-1.929 6.25z"></path>
</symbol>
<symbol id="icon-ArrowCloseBtn" viewBox="0 0 32 32">
<path fill="#fff" style="fill: var(--color1, #fff)" d="M16 32c8.837 0 16-7.163 16-16s-7.163-16-16-16c-8.837 0-16 7.163-16 16s7.163 16 16 16zM18.176 9.47l6.013 6.013c0.172 0.172 0.267 0.402 0.266 0.647 0.001 0.244-0.094 0.474-0.266 0.646l-6.013 6.013c-0.172 0.172-0.4 0.266-0.644 0.266s-0.473-0.094-0.645-0.265l-0.546-0.544c-0.172-0.172-0.266-0.397-0.266-0.641s0.094-0.467 0.266-0.638l3.548-3.535h-11.185c-0.502 0-0.899-0.433-0.899-0.936v-0.772c0-0.503 0.397-0.896 0.899-0.896h11.145l-3.508-3.516c-0.172-0.171-0.266-0.408-0.266-0.652s0.095-0.473 0.266-0.644l0.546-0.546c0.172-0.171 0.4-0.266 0.645-0.266s0.473 0.094 0.644 0.266z"></path>
</symbol>
<symbol id="icon-layered_waves-1732298411902" viewBox="0 0 32 32">
<path fill="#000" style="fill: var(--color2, #000)" d="M0 6.898h32v18.204h-32v-18.204z"></path>
<path fill="#000" style="fill: var(--color2, #000)" opacity="0.9" d="M0 25.102c0-2.351-1.333-11.254 0-14.108s5.333-2.571 8-3.016c2.667-0.444 5.333-0.072 8 0.35s5.333 2.216 8 2.179c2.667-0.038 6.655-4.849 8-2.405s0.059 14.226 0.071 17.071z"></path>
<path fill="#000" style="fill: var(--color2, #000)" opacity="0.9" d="M0 25.102c0-1.574-1.333-8.168 0-9.444s5.333 1.967 8 1.788c2.667-0.179 5.333-2.956 8-2.863s5.333 2.608 8 3.422c2.667 0.814 6.655 0.269 8 1.464s0.059 4.753 0.071 5.704z"></path>
<path fill="#000" style="fill: var(--color2, #000)" opacity="0.9" d="M0 25.102c0-1.463-1.333-8.679 0-8.78s5.333 6.764 8 8.171c2.667 1.406 5.333 0.551 8 0.267s5.333-3.113 8-1.972c2.667 1.141 6.655 8.418 8 8.816s0.059-5.358 0.071-6.43z"></path>
<path fill="#000" style="fill: var(--color2, #000)" opacity="0.9" d="M0 25.102c0-1.020-1.333-7.631 0-6.118s5.333 12.513 8 15.199c2.667 2.686 5.333 0.822 8 0.916s5.333-1.321 8-0.353c2.667 0.969 6.655 7.761 8 6.165s0.059-13.116 0.071-15.74z"></path>
</symbol>
<symbol id="icon-azur" viewBox="0 0 32 32">
<path fill="#fff" style="fill: var(--color1, #fff)" d="M14.879 26.496c3.854-0.681 7.038-1.244 7.074-1.252l0.066-0.014-3.639-4.328c-2.001-2.381-3.639-4.338-3.639-4.349 0-0.021 3.757-10.368 3.779-10.405 0.007-0.012 2.564 4.402 6.198 10.701 3.402 5.897 6.208 10.76 6.234 10.805l0.047 0.083-23.129-0.003 7.008-1.238zM1 25.176c0-0.006 1.715-2.983 3.81-6.614l3.81-6.603 4.44-3.726c2.442-2.050 4.447-3.729 4.455-3.732s-0.024 0.078-0.071 0.18c-0.047 0.102-2.217 4.756-4.822 10.342l-4.736 10.157-3.444 0.004c-1.894 0.002-3.444-0.001-3.444-0.007z"></path>
</symbol>
<symbol id="icon-googleCloud" viewBox="0 0 32 32">
<path fill="#fff" style="fill: var(--color1, #fff)" d="M19.767 10.705h0.854l2.434-2.434 0.12-1.033c-1.394-1.231-3.079-2.086-4.896-2.484s-3.705-0.327-5.486 0.207-3.397 1.514-4.695 2.846c-1.298 1.332-2.234 2.973-2.721 4.768 0.271-0.111 0.572-0.129 0.854-0.051l4.868-0.803c0 0 0.248-0.41 0.376-0.384 1.043-1.146 2.485-1.849 4.029-1.966s3.076 0.36 4.28 1.335h-0.017z"></path>
<path fill="#fff" style="fill: var(--color1, #fff)" d="M26.523 12.575c-0.559-2.060-1.708-3.912-3.305-5.329l-3.416 3.416c0.712 0.582 1.282 1.318 1.669 2.152s0.578 1.745 0.56 2.665v0.606c0.399 0 0.795 0.079 1.163 0.231s0.704 0.377 0.986 0.659c0.282 0.282 0.506 0.617 0.659 0.986s0.231 0.764 0.231 1.163c0 0.399-0.079 0.795-0.231 1.163s-0.377 0.704-0.659 0.986c-0.282 0.282-0.617 0.506-0.986 0.659s-0.764 0.231-1.163 0.231h-6.081l-0.606 0.615v3.647l0.606 0.606h6.081c1.698 0.013 3.355-0.52 4.726-1.522s2.384-2.418 2.887-4.040 0.472-3.362-0.090-4.964c-0.562-1.602-1.625-2.981-3.032-3.932z"></path>
<path fill="#fff" style="fill: var(--color1, #fff)" d="M9.861 27h6.081v-4.868h-6.081c-0.433-0-0.861-0.093-1.255-0.273l-0.854 0.265-2.451 2.434-0.213 0.854c1.375 1.038 3.052 1.596 4.774 1.588z"></path>
<path fill="#fff" style="fill: var(--color1, #fff)" d="M9.861 11.209c-1.648 0.010-3.251 0.534-4.586 1.499s-2.336 2.324-2.861 3.885-0.551 3.248-0.071 4.824c0.479 1.576 1.439 2.964 2.745 3.968l3.527-3.527c-0.448-0.203-0.841-0.511-1.143-0.898s-0.507-0.843-0.596-1.327-0.058-0.982 0.089-1.451c0.146-0.47 0.405-0.896 0.752-1.244s0.775-0.606 1.244-0.753 0.968-0.177 1.451-0.089c0.484 0.088 0.939 0.293 1.327 0.596s0.696 0.695 0.898 1.143l3.527-3.527c-0.74-0.968-1.694-1.751-2.788-2.289s-2.296-0.815-3.515-0.811z"></path>
</symbol>
<symbol id="icon-doker" viewBox="0 0 32 32">
<path fill="#fff" style="fill: var(--color1, #fff)" d="M7.62 22.115c-0.797 0-1.521-0.647-1.521-1.439s0.652-1.439 1.521-1.439c0.869 0 1.521 0.648 1.521 1.439s-0.724 1.439-1.521 1.439zM26.306 14.273c-0.145-1.151-0.869-2.086-1.811-2.806l-0.362-0.288-0.29 0.36c-0.579 0.647-0.797 1.799-0.724 2.662 0.072 0.647 0.29 1.295 0.652 1.799-0.29 0.144-0.652 0.288-0.942 0.432-0.652 0.216-1.304 0.288-1.956 0.288h-18.758l-0.072 0.432c-0.145 1.367 0.072 2.806 0.652 4.101l0.29 0.504v0.072c1.738 2.878 4.853 4.173 8.257 4.173 6.518 0 11.878-2.806 14.413-8.849 1.666 0.072 3.332-0.36 4.128-1.942l0.217-0.36-0.362-0.216c-0.942-0.576-2.245-0.648-3.332-0.36zM16.963 13.122h-2.825v2.806h2.825v-2.806zM16.963 9.597h-2.825v2.806h2.825v-2.806zM16.963 6h-2.825v2.806h2.825v-2.806zM20.44 13.122h-2.825v2.806h2.825v-2.806zM9.938 13.122h-2.825v2.806h2.825v-2.806zM13.487 13.122h-2.825v2.806h2.825v-2.806zM6.461 13.122h-2.825v2.806h2.825v-2.806zM13.487 9.597h-2.825v2.806h2.825v-2.806zM9.938 9.597h-2.825v2.806h2.825v-2.806z"></path>
</symbol>
<symbol id="icon-ngincs" viewBox="0 0 32 32">
<path fill="#fff" style="fill: var(--color1, #fff)" d="M4.223 23.528c-0.221-0.125-0.405-0.307-0.531-0.527s-0.193-0.47-0.191-0.724v-12.552c-0.002-0.254 0.064-0.504 0.191-0.724s0.311-0.402 0.532-0.527l10.871-6.276c0.219-0.129 0.468-0.197 0.722-0.197s0.503 0.068 0.722 0.196l10.871 6.276c0.221 0.125 0.404 0.307 0.531 0.527s0.193 0.47 0.191 0.724l0 12.553c0.002 0.254-0.064 0.504-0.191 0.724s-0.31 0.402-0.531 0.527l-10.871 6.276c-0.219 0.129-0.468 0.196-0.722 0.196s-0.503-0.068-0.722-0.196l-10.871-6.276zM11.926 21.767c0.262-0.262 0.409-0.618 0.409-0.989l-0.001 0v-6.95l6.263 7.495c0.237 0.272 0.53 0.489 0.859 0.636s0.686 0.221 1.047 0.216c0.194 0.018 0.389-0.004 0.575-0.063s0.357-0.155 0.505-0.281c0.148-0.127 0.269-0.282 0.356-0.456s0.138-0.364 0.151-0.558l0.001-9.596c0-0.184-0.036-0.365-0.106-0.535s-0.173-0.324-0.303-0.454c-0.13-0.13-0.284-0.233-0.454-0.303s-0.351-0.106-0.535-0.106c-0.184 0-0.365 0.036-0.535 0.106s-0.324 0.173-0.454 0.303c-0.13 0.13-0.233 0.284-0.303 0.454s-0.106 0.351-0.106 0.535h0.001v6.95l-6.263-7.495c-0.237-0.272-0.53-0.489-0.859-0.636s-0.686-0.221-1.047-0.216c-0.194-0.018-0.389 0.004-0.575 0.063s-0.357 0.155-0.505 0.281c-0.148 0.127-0.269 0.282-0.356 0.456s-0.138 0.364-0.151 0.558l-0.001 9.597c0 0.371 0.147 0.726 0.409 0.988s0.618 0.409 0.989 0.409c0.371 0 0.726-0.147 0.989-0.409z"></path>
</symbol>
<symbol id="icon-aws2" viewBox="0 0 32 32">
<path fill="#fff" style="fill: var(--color1, #fff)" d="M16 9c-2.65 0-5 1-5 2v9.52c0 1.48 2.27 2.24 5 2.24s5.5-0.77 6-2.24v-9.52c-0.5-1.37-3.35-2-6-2zM12 11c0.080-0.28 1.58-1 4.5-1s4.4 0.72 4.5 1c-0.1 0.28-1.6 1-4.5 1s-4.42-0.73-4.5-1zM21 20.51c0 0.37-1.53 1.24-4.5 1.24s-4.5-0.86-4.5-1.23v-1.67c1.413 0.632 2.953 0.933 4.5 0.88 1.547 0.053 3.087-0.248 4.5-0.88v1.66zM21 17.57c-0.23 0.45-1.88 1.15-4.5 1.15s-4.27-0.72-4.5-1.14v-2.18c1.413 0.632 2.953 0.933 4.5 0.88 1.547 0.053 3.087-0.248 4.5-0.88v2.17zM21 14.12c-0.23 0.45-1.88 1.15-4.5 1.15s-4.27-0.7-4.5-1.15v-1.91c1.428 0.577 2.961 0.847 4.5 0.79 1.539 0.057 3.072-0.213 4.5-0.79v1.91z"></path>
<path fill="#fff" style="fill: var(--color1, #fff)" d="M8.26 11.39l-0.34-1c-3.3 1.19-5.18 3-5.18 5s1.88 3.77 5.18 5l0.34-0.94c-2.83-1-4.52-2.52-4.52-4s1.69-3.040 4.52-4.060z"></path>
<path fill="#fff" style="fill: var(--color1, #fff)" d="M23.9 19.52l0.32 0.95c3.5-1.18 5.51-3 5.51-5.070s-2-3.89-5.51-5.070l-0.32 0.95c3 1 4.83 2.56 4.83 4.12s-1.81 3.1-4.83 4.12z"></path>
<path fill="#fff" style="fill: var(--color1, #fff)" d="M3 3.88l4.15 4 0.7-0.72-4.32-4.16h3.47v-1h-4.5c-0.133 0-0.26 0.053-0.354 0.146s-0.146 0.221-0.146 0.354v4.5h1v-3.12z"></path>
<path fill="#fff" style="fill: var(--color1, #fff)" d="M29.5 2h-4.5v1h3.29l-4.14 4.15 0.7 0.7 4.15-4.14v3.29h1v-4.5c0-0.133-0.053-0.26-0.146-0.354s-0.221-0.146-0.354-0.146z"></path>
<path fill="#fff" style="fill: var(--color1, #fff)" d="M29 28.29l-4.15-4.14-0.7 0.7 4.14 4.15h-3.29v1h4.5c0.133 0 0.26-0.053 0.354-0.146s0.146-0.221 0.146-0.354v-4.5h-1v3.29z"></path>
<path fill="#fff" style="fill: var(--color1, #fff)" d="M7.15 24.15l-4.15 4.14v-3.29h-1v4.5c0 0.133 0.053 0.26 0.146 0.354s0.221 0.146 0.354 0.146h4.5v-1h-3.29l4.14-4.15-0.7-0.7z"></path>
</symbol>
<symbol id="icon-postgres" viewBox="0 0 32 32">
<path fill="#fff" style="fill: var(--color1, #fff)" d="M21.82 2.286c-0.22 0.036-0.44 0.072-0.66 0.107-0.255 0.041-0.51 0.083-0.765 0.125l0.067 0.034c0.276 0.211 0.588 0.376 0.898 0.539 0.287 0.151 0.572 0.302 0.826 0.488 1.52 1.114 3.134 3.109 3.579 5.239 0.168 0.8-0.062 1.969-0.225 2.796v0c-0.027 0.139-0.053 0.269-0.074 0.386-0.119 0.656-0.005 1.261 0.113 1.876 0.119 0.624 0.239 1.259 0.12 1.97-0.038 0.227-0.145 0.572-0.253 0.92l-0 0c-0.176 0.567-0.354 1.143-0.245 1.235v-0.067c0.277-0.275 0.46-0.655 0.641-1.033l0-0c0.092-0.192 0.184-0.383 0.288-0.559 1.229-2.099 2.107-4.559 2.718-7.26 0.23-1.021 0.439-2.768 0.034-3.747-0.207-0.495-0.725-0.943-1.128-1.259-1.531-1.209-3.087-1.805-5.933-1.788zM16.416 2.585c-0.255 0.022-0.509 0.045-0.761 0.067-0.277 0.076-0.553 0.154-0.829 0.231l-0 0-0 0c-0.199 0.056-0.397 0.111-0.595 0.166-2.147 0.926-3.417 3.549-3.549 6.465l0.001-0.001 0-0c0.489-0.243 1.018-0.506 1.591-0.663 2.899-0.789 3.297 1.063 3.68 3.283 0.146 0.842 0.171 2.032-0.034 2.852-0.173 0.691-0.44 1.302-0.694 1.882l-0.003 0.007-0.663 1.889h0.034c0.274-0.073 0.56 0.020 0.761 0.101 1.082 0.421 1.074 1.418 1.063 2.803-0.001 0.144-0.002 0.293-0.002 0.446 0 0.34-0.005 0.693-0.010 1.054v0c-0.037 2.74-0.080 5.9 1.932 6.471 0.683 0.193 1.489-0.034 2.023-0.199 2.197-0.678 2.395-2.835 2.611-5.198 0.068-0.746 0.139-1.513 0.274-2.26 0.055-0.303 0.064-0.649 0.074-0.993v-0c0.016-0.575 0.032-1.149 0.256-1.525 0.17-0.286 0.4-0.408 0.655-0.544 0.12-0.064 0.245-0.13 0.372-0.218-0.065-0.101-0.131-0.203-0.196-0.305-1.155-1.796-2.393-3.721-3.053-5.961-0.84-2.852 0.644-3.994 3.448-3.812-1.276-3.316-3.845-6.014-8.388-6.040zM7.202 2.728c0.23-0.026 0.461-0.052 0.691-0.078 1.148 0.013 2.094 0.236 3.003 0.449 0.438 0.103 0.867 0.204 1.307 0.278v0.034c-1.57 2.057-1.928 3.14-2.421 6.333l0.067 3.084c-0.028 0.281-0.055 0.563-0.083 0.845s-0.055 0.564-0.083 0.845c-0.301 1.854 0.625 2.935 1.379 3.814l0 0c0.038 0.044 0.076 0.088 0.113 0.132-0.82 0.929-1.637 1.855-2.454 2.785-0.018 0.019-0.037 0.038-0.057 0.059-0.22 0.228-0.537 0.557-1.037 0.439-1.038-0.245-1.838-2.105-2.266-3.101l-0.021-0.048c-1.24-2.891-3.551-9.767-1.923-13.462 0.523-1.189 1.643-1.979 3.017-2.323 0.255-0.029 0.511-0.058 0.767-0.087h0zM26.228 19.923c-0.234-0.044-0.432-0.135-0.624-0.223-0.197-0.090-0.387-0.177-0.602-0.208-0.045 0.024-0.087 0.046-0.128 0.068l-0 0c-0.476 0.249-0.692 0.362-0.666 1.192 1.41 0.691 4.108-0.263 4.741-1.027-0.228 0.024-0.466 0.064-0.712 0.106-0.637 0.107-1.324 0.222-2.008 0.093zM13.365 21.051c0.453-0.484 0.907-0.971 1.36-1.458 1.136 0.039 0.876 1.268 0.333 1.724-1.097 0.918-2.393 1.041-3.946 0.498l-0.034-0.067c0.186-0.048 0.386-0.092 0.591-0.136 0.609-0.133 1.258-0.276 1.696-0.56zM24.605 12.134c0.050-0.442 0.1-0.884 0.15-1.327l0-0.004c0.049-0.441 0.099-0.882 0.149-1.322l-0.032-0.001c-1.087-0.042-2.203-0.084-2.655 0.597-0.325 0.493-0.21 1.548-0.034 2.121 0.439 1.427 1.133 2.664 1.825 3.845 0.077 0.161 0.155 0.321 0.232 0.481s0.155 0.321 0.232 0.482l0.067-0.034c0.033-0.173 0.076-0.35 0.121-0.532v0c0.138-0.562 0.288-1.175 0.178-1.889-0.054-0.537-0.106-1.074-0.157-1.611l-0-0.001c-0.026-0.269-0.052-0.537-0.078-0.806zM23.292 11.021c-0.386-0.106-0.537-0.185-0.761-0.431 0.015-0.149 0.039-0.18 0.087-0.24 0.013-0.017 0.028-0.035 0.045-0.059 0.045-0.018 0.085-0.039 0.128-0.061 0.128-0.067 0.277-0.146 0.633-0.171 0.33 0.056 0.439 0.109 0.596 0.33-0.156 0.293-0.286 0.369-0.509 0.499h-0c-0.064 0.038-0.136 0.080-0.219 0.133zM13.069 9.579c0.512-0.006 0.966 0.020 1.259 0.232 0.803 0.585 1.075 3.705 0.728 5.074-0.143 0.567-0.365 1.065-0.583 1.554-0.084 0.189-0.168 0.377-0.246 0.567-0.168 0.521-0.333 1.038-0.498 1.559-1.836-0.020-2.894-1.371-3.179-2.955-0.13-0.701-0.002-1.516 0.111-2.236 0.019-0.119 0.037-0.236 0.054-0.35l-0.067-2.485c0.389-0.21 0.775-0.42 1.161-0.629l0.001-0c0.21-0.055 0.42-0.11 0.63-0.165s0.42-0.111 0.63-0.165zM12.749 10.559c0.036 0.786 1.251 1.089 1.559 0.364 0.004-0.029 0.007-0.057 0.010-0.085 0.007-0.060 0.014-0.12 0.023-0.181-0.33-0.243-0.635-0.35-1.259-0.33-0.050 0.028-0.1 0.055-0.15 0.083s-0.099 0.055-0.15 0.083l-0.034 0.067z"></path>
</symbol>
<symbol id="icon-mongo" viewBox="0 0 32 32">
<path fill="#fff" style="fill: var(--color1, #fff)" d="M18.75 3.567c-1.343-1.593-2.5-3.212-2.736-3.548-0.025-0.025-0.062-0.025-0.087 0-0.236 0.336-1.393 1.954-2.736 3.548-11.528 14.702 1.816 24.624 1.816 24.624l0.112 0.075c0.1 1.531 0.348 3.735 0.348 3.735h0.995c0 0 0.249-2.191 0.348-3.735l0.112-0.087c0.012 0.012 13.356-9.909 1.828-24.612zM15.965 27.966c0 0-0.597-0.51-0.759-0.772v-0.025l0.721-16.009c0-0.050 0.075-0.050 0.075 0l0.721 16.009v0.025c-0.162 0.261-0.759 0.772-0.759 0.772z"></path>
</symbol>
<symbol id="icon-lara" viewBox="0 0 32 32">
<path fill="#fff" style="fill: var(--color1, #fff)" d="M29.486 8.491c0.010 0.037 0.015 0.074 0.015 0.112v5.887c0 0.076-0.020 0.15-0.058 0.215s-0.092 0.12-0.158 0.157l-4.941 2.845v5.639c0 0.153-0.082 0.295-0.215 0.372l-10.315 5.938c-0.024 0.013-0.049 0.022-0.075 0.031-0.010 0.003-0.019 0.009-0.029 0.012-0.072 0.019-0.148 0.019-0.22 0-0.012-0.003-0.023-0.010-0.034-0.014-0.024-0.009-0.048-0.016-0.071-0.029l-10.313-5.938c-0.066-0.038-0.12-0.092-0.158-0.157s-0.058-0.14-0.058-0.215v-17.662c0-0.039 0.005-0.076 0.015-0.113 0.003-0.012 0.011-0.024 0.015-0.036 0.008-0.023 0.016-0.046 0.027-0.067 0.008-0.014 0.020-0.025 0.030-0.038 0.012-0.017 0.024-0.035 0.038-0.050 0.012-0.012 0.028-0.021 0.042-0.032 0.016-0.013 0.030-0.027 0.047-0.037h0.001l5.157-2.969c0.065-0.038 0.139-0.057 0.215-0.057s0.149 0.020 0.215 0.057l5.158 2.969c0.017 0.011 0.032 0.024 0.047 0.036 0.014 0.011 0.030 0.020 0.042 0.032 0.015 0.016 0.026 0.033 0.039 0.050 0.009 0.013 0.021 0.024 0.029 0.038 0.012 0.021 0.019 0.044 0.028 0.067 0.004 0.012 0.012 0.024 0.015 0.036 0.010 0.037 0.015 0.074 0.015 0.112v11.032l4.297-2.474v-5.64c0-0.038 0.005-0.076 0.015-0.112 0.004-0.013 0.011-0.024 0.015-0.036 0.009-0.023 0.016-0.046 0.028-0.067 0.008-0.014 0.020-0.025 0.029-0.038 0.013-0.017 0.024-0.035 0.039-0.050 0.012-0.012 0.028-0.021 0.042-0.032 0.016-0.013 0.030-0.027 0.047-0.037h0.001l5.157-2.969c0.065-0.038 0.139-0.057 0.215-0.057s0.149 0.020 0.215 0.057l5.157 2.969c0.018 0.011 0.032 0.024 0.048 0.037 0.013 0.011 0.029 0.020 0.041 0.032 0.015 0.016 0.026 0.033 0.039 0.050 0.010 0.013 0.021 0.024 0.029 0.038 0.012 0.021 0.019 0.044 0.028 0.067 0.005 0.012 0.012 0.024 0.015 0.036zM28.641 14.242v-4.896l-4.298 2.474v4.896l4.298-2.474zM23.485 23.098v-4.899l-9.455 5.397v4.945l9.455-5.443zM3.717 6.427v16.671l9.454 5.443v-4.944l-4.943-2.797c-0.017-0.010-0.031-0.024-0.046-0.035-0.013-0.011-0.029-0.019-0.041-0.031l-0.001-0.002c-0.014-0.013-0.024-0.030-0.035-0.045-0.011-0.014-0.024-0.027-0.032-0.042l-0.001-0.002c-0.010-0.016-0.016-0.035-0.023-0.054-0.007-0.016-0.016-0.031-0.020-0.048v-0c-0.005-0.020-0.006-0.042-0.009-0.063-0.002-0.016-0.006-0.032-0.006-0.048v-11.528l-4.297-2.474zM8.444 3.211l-4.296 2.473 4.295 2.473 4.296-2.474-4.295-2.473zM10.678 18.646l2.492-1.435v-10.783l-4.298 2.474v10.783l1.805-1.039zM23.914 6.13l-4.296 2.473 4.296 2.473 4.295-2.474-4.295-2.473zM23.485 11.82l-4.298-2.474v4.896l4.298 2.474v-4.896zM13.6 22.853l9.451-5.395-4.293-2.472-9.447 5.439 4.289 2.428z"></path>
</symbol>
<symbol id="icon-sql" viewBox="0 0 32 32">
<path fill="#fff" style="fill: var(--color1, #fff)" d="M27.318 23.213c-1.462-0.036-2.596 0.11-3.546 0.512-0.274 0.11-0.713 0.11-0.75 0.457 0.146 0.146 0.165 0.384 0.293 0.585 0.22 0.365 0.603 0.859 0.951 1.115 0.384 0.292 0.768 0.585 1.17 0.841 0.713 0.439 1.517 0.695 2.212 1.133 0.402 0.256 0.804 0.585 1.206 0.859 0.201 0.146 0.329 0.384 0.585 0.475v-0.055c-0.128-0.165-0.165-0.402-0.292-0.585-0.183-0.183-0.366-0.347-0.548-0.53-0.53-0.713-1.188-1.334-1.901-1.846-0.585-0.402-1.864-0.951-2.102-1.627l-0.037-0.036c0.402-0.037 0.877-0.183 1.261-0.293 0.622-0.165 1.188-0.128 1.828-0.292 0.292-0.073 0.585-0.165 0.877-0.256v-0.164c-0.329-0.329-0.567-0.768-0.914-1.078-0.932-0.804-1.956-1.59-3.016-2.248-0.567-0.366-1.298-0.603-1.901-0.914-0.219-0.11-0.585-0.165-0.713-0.347-0.329-0.402-0.512-0.932-0.75-1.407-0.53-1.005-1.042-2.12-1.499-3.18-0.329-0.713-0.53-1.426-0.932-2.084-1.883-3.107-3.93-4.99-7.074-6.836-0.676-0.384-1.481-0.548-2.34-0.749-0.457-0.018-0.914-0.055-1.371-0.073-0.292-0.128-0.585-0.475-0.841-0.64-1.042-0.658-3.729-2.084-4.497-0.201-0.494 1.188 0.731 2.358 1.152 2.961 0.311 0.42 0.713 0.896 0.932 1.371 0.128 0.311 0.164 0.64 0.292 0.969 0.293 0.804 0.567 1.7 0.95 2.449 0.201 0.384 0.42 0.786 0.676 1.133 0.146 0.201 0.402 0.293 0.457 0.621-0.256 0.366-0.274 0.914-0.421 1.371-0.658 2.066-0.402 4.625 0.53 6.142 0.292 0.457 0.987 1.462 1.919 1.078 0.823-0.329 0.64-1.371 0.877-2.285 0.055-0.22 0.018-0.366 0.128-0.512v0.037c0.256 0.512 0.512 1.005 0.749 1.517 0.567 0.896 1.554 1.828 2.376 2.449 0.439 0.329 0.786 0.896 1.334 1.097v-0.055h-0.037c-0.11-0.165-0.274-0.238-0.42-0.366-0.329-0.329-0.695-0.731-0.95-1.097-0.768-1.024-1.444-2.157-2.047-3.327-0.292-0.567-0.548-1.188-0.786-1.755-0.11-0.22-0.11-0.548-0.293-0.658-0.274 0.402-0.676 0.749-0.877 1.243-0.347 0.786-0.384 1.755-0.512 2.76-0.073 0.018-0.037 0-0.073 0.037-0.585-0.146-0.786-0.749-1.005-1.261-0.548-1.298-0.64-3.382-0.164-4.88 0.128-0.384 0.676-1.59 0.457-1.956-0.11-0.347-0.475-0.548-0.676-0.823-0.238-0.347-0.494-0.786-0.658-1.17-0.439-1.024-0.658-2.157-1.133-3.181-0.219-0.475-0.603-0.969-0.914-1.407-0.347-0.494-0.731-0.841-1.005-1.426-0.091-0.201-0.219-0.53-0.073-0.749 0.037-0.146 0.11-0.201 0.256-0.238 0.238-0.201 0.914 0.055 1.152 0.164 0.676 0.274 1.243 0.53 1.81 0.914 0.256 0.183 0.53 0.53 0.859 0.621h0.384c0.585 0.128 1.243 0.037 1.791 0.201 0.969 0.311 1.846 0.768 2.632 1.261 2.395 1.517 4.369 3.674 5.703 6.251 0.219 0.42 0.311 0.804 0.512 1.243 0.384 0.896 0.859 1.81 1.243 2.687 0.384 0.859 0.749 1.736 1.298 2.449 0.274 0.384 1.371 0.585 1.864 0.786 0.366 0.164 0.932 0.311 1.261 0.512 0.621 0.384 1.243 0.823 1.828 1.243 0.293 0.219 1.206 0.676 1.261 1.042z"></path>
<path fill="#fff" style="fill: var(--color1, #fff)" d="M8.673 7.329c-0.311 0-0.53 0.037-0.749 0.092v0.037h0.037c0.146 0.292 0.402 0.494 0.585 0.749 0.146 0.292 0.274 0.585 0.421 0.877l0.036-0.037c0.256-0.183 0.384-0.475 0.384-0.914-0.11-0.128-0.128-0.256-0.219-0.384-0.11-0.183-0.347-0.274-0.493-0.421z"></path>
</symbol>
<symbol id="icon-ts" viewBox="0 0 32 32">
<path fill="#fff" style="fill: var(--color1, #fff)" d="M5.884 3.429c-1.356 0-2.455 1.099-2.455 2.455v20.232c0 1.356 1.099 2.455 2.455 2.455h20.232c1.356 0 2.455-1.099 2.455-2.455v-20.232c0-1.356-1.099-2.455-2.455-2.455h-20.232zM18.993 25.894v-2.458c0.446 0.374 0.93 0.654 1.453 0.841s1.050 0.28 1.583 0.28c0.313 0 0.585-0.028 0.819-0.085s0.428-0.134 0.584-0.234c0.156-0.1 0.273-0.218 0.35-0.353s0.115-0.283 0.115-0.442c0-0.215-0.061-0.407-0.184-0.576s-0.291-0.325-0.503-0.469c-0.213-0.143-0.465-0.282-0.757-0.415s-0.607-0.269-0.945-0.407c-0.861-0.358-1.503-0.796-1.925-1.314s-0.634-1.142-0.634-1.874c0-0.574 0.115-1.067 0.346-1.479s0.544-0.752 0.941-1.018c0.397-0.266 0.857-0.462 1.38-0.588s1.076-0.188 1.66-0.188c0.574 0 1.082 0.035 1.526 0.104s0.852 0.175 1.226 0.319v2.297c-0.184-0.128-0.386-0.241-0.603-0.338s-0.442-0.178-0.672-0.242c-0.231-0.064-0.46-0.111-0.688-0.142s-0.444-0.046-0.649-0.046c-0.282 0-0.538 0.027-0.769 0.081s-0.425 0.129-0.584 0.227c-0.159 0.097-0.282 0.214-0.369 0.35s-0.131 0.288-0.131 0.457c0 0.184 0.049 0.35 0.146 0.496s0.236 0.284 0.415 0.415c0.179 0.131 0.397 0.259 0.653 0.384s0.546 0.255 0.868 0.388c0.441 0.184 0.836 0.38 1.187 0.588s0.652 0.442 0.903 0.703c0.251 0.261 0.443 0.56 0.576 0.895s0.2 0.726 0.2 1.172c0 0.615-0.117 1.131-0.35 1.548s-0.549 0.755-0.949 1.014c-0.4 0.259-0.865 0.444-1.395 0.557s-1.090 0.169-1.679 0.169c-0.605 0-1.18-0.051-1.725-0.154s-1.018-0.256-1.418-0.461zM18.014 17.379h-3.154v8.983h-2.498v-8.983h-3.138v-2.017h8.79v2.017z"></path>
</symbol>
<symbol id="icon-next" viewBox="0 0 32 32">
<path fill="#fff" style="fill: var(--color1, #fff)" d="M7.551 11.296h6.035v0.477h-5.482v3.593h5.155v0.477h-5.155v3.945h5.545v0.477h-6.098v-8.97zM14.127 11.296h0.641l2.842 3.945 2.905-3.945 3.951-5.011-6.491 9.37 3.345 4.611h-0.666l-3.043-4.196-3.055 4.196h-0.654l3.37-4.611-3.143-4.359zM21.558 11.774v-0.477h6.878v0.477h-3.169v8.493h-0.553v-8.493h-3.156zM0 11.296h0.692l9.536 14.201-3.941-5.231-5.708-8.292-0.025 8.292h-0.553v-8.97zM28.578 19.445c0 0.113-0.083 0.2-0.198 0.2-0.113 0-0.198-0.087-0.198-0.2s0.085-0.2 0.198-0.2c0.114 0 0.198 0.087 0.198 0.2zM29.516 19.669c-0.351 0-0.592-0.217-0.592-0.55h0.296c0.004 0.16 0.121 0.267 0.293 0.267 0.192 0 0.301-0.115 0.301-0.331v-1.368h0.301v1.369c0 0.389-0.226 0.613-0.6 0.613zM31.252 19.669c-0.431 0-0.72-0.221-0.741-0.567h0.299c0.026 0.184 0.206 0.3 0.466 0.3 0.242 0 0.42-0.125 0.42-0.296 0-0.148-0.113-0.236-0.37-0.296l-0.25-0.060c-0.351-0.082-0.511-0.251-0.511-0.535 0-0.345 0.283-0.574 0.706-0.574 0.394 0 0.682 0.229 0.7 0.555h-0.293c-0.028-0.178-0.184-0.29-0.41-0.29-0.238 0-0.397 0.114-0.397 0.288 0 0.138 0.102 0.217 0.355 0.276l0.214 0.052c0.398 0.093 0.562 0.253 0.562 0.544 0 0.37-0.288 0.602-0.748 0.602z"></path>
</symbol>
<symbol id="icon-aws" viewBox="0 0 32 32">
<path fill="#fff" style="fill: var(--color1, #fff)" d="M10.016 13.957c0 0.337 0.036 0.611 0.1 0.812 0.073 0.201 0.164 0.42 0.292 0.657 0.046 0.073 0.064 0.146 0.064 0.21 0 0.091-0.055 0.182-0.173 0.274l-0.575 0.383c-0.082 0.055-0.164 0.082-0.237 0.082-0.091 0-0.182-0.046-0.274-0.128-0.128-0.137-0.237-0.283-0.328-0.429-0.091-0.155-0.182-0.328-0.283-0.538-0.712 0.839-1.606 1.259-2.682 1.259-0.766 0-1.377-0.219-1.824-0.657s-0.675-1.022-0.675-1.752c0-0.775 0.274-1.405 0.83-1.879s1.295-0.712 2.235-0.712c0.31 0 0.63 0.027 0.967 0.073s0.684 0.119 1.049 0.201v-0.666c0-0.693-0.146-1.177-0.429-1.46-0.292-0.283-0.785-0.42-1.487-0.42-0.319 0-0.648 0.037-0.985 0.119s-0.666 0.182-0.985 0.31c-0.146 0.064-0.255 0.1-0.319 0.119s-0.109 0.027-0.146 0.027c-0.128 0-0.192-0.091-0.192-0.283v-0.447c0-0.146 0.018-0.255 0.064-0.319s0.128-0.128 0.255-0.192c0.319-0.164 0.702-0.301 1.149-0.411 0.447-0.119 0.921-0.173 1.423-0.173 1.086 0 1.879 0.246 2.39 0.739 0.502 0.493 0.757 1.241 0.757 2.244v2.956h0.018zM6.312 15.344c0.301 0 0.611-0.055 0.94-0.164s0.62-0.31 0.867-0.584c0.146-0.173 0.255-0.365 0.31-0.584s0.091-0.483 0.091-0.794v-0.383c-0.265-0.064-0.547-0.119-0.839-0.155s-0.575-0.055-0.857-0.055c-0.611 0-1.058 0.119-1.359 0.365s-0.447 0.593-0.447 1.049c0 0.429 0.109 0.748 0.338 0.967 0.219 0.228 0.538 0.338 0.958 0.338zM13.637 16.329c-0.164 0-0.274-0.027-0.347-0.091-0.073-0.055-0.137-0.182-0.192-0.356l-2.144-7.052c-0.055-0.182-0.082-0.301-0.082-0.365 0-0.146 0.073-0.228 0.219-0.228h0.894c0.173 0 0.292 0.027 0.356 0.091 0.073 0.055 0.128 0.182 0.182 0.356l1.533 6.039 1.423-6.039c0.046-0.182 0.1-0.301 0.173-0.356s0.201-0.091 0.365-0.091h0.73c0.173 0 0.292 0.027 0.365 0.091 0.073 0.055 0.137 0.182 0.173 0.356l1.441 6.112 1.578-6.112c0.055-0.182 0.119-0.301 0.182-0.356 0.073-0.055 0.192-0.091 0.356-0.091h0.848c0.146 0 0.228 0.073 0.228 0.228 0 0.039-0.007 0.078-0.014 0.123l-0.004 0.023c-0.009 0.055-0.027 0.128-0.064 0.228l-2.198 7.052c-0.055 0.182-0.119 0.301-0.192 0.356s-0.192 0.091-0.347 0.091h-0.785c-0.173 0-0.292-0.027-0.365-0.091s-0.137-0.182-0.173-0.365l-1.414-5.884-1.405 5.875c-0.046 0.182-0.1 0.301-0.173 0.365s-0.201 0.091-0.365 0.091h-0.785zM25.36 16.575c-0.474 0-0.949-0.055-1.405-0.164s-0.812-0.228-1.049-0.365c-0.146-0.082-0.246-0.173-0.283-0.255s-0.055-0.173-0.055-0.255v-0.465c0-0.192 0.073-0.283 0.21-0.283 0.055 0 0.11 0.009 0.164 0.027 0.035 0.012 0.082 0.031 0.135 0.053v0h0c0.029 0.012 0.061 0.025 0.093 0.038 0.31 0.137 0.648 0.246 1.003 0.319 0.365 0.073 0.721 0.11 1.086 0.11 0.575 0 1.022-0.1 1.332-0.301s0.474-0.493 0.474-0.867c0-0.255-0.082-0.465-0.246-0.639s-0.474-0.328-0.921-0.474l-1.323-0.411c-0.666-0.21-1.159-0.52-1.46-0.93-0.301-0.401-0.456-0.848-0.456-1.323 0-0.383 0.082-0.721 0.246-1.013s0.383-0.547 0.657-0.748c0.274-0.21 0.584-0.365 0.949-0.474s0.748-0.155 1.149-0.155c0.201 0 0.41 0.009 0.611 0.037 0.21 0.027 0.401 0.064 0.593 0.1 0.183 0.046 0.356 0.091 0.52 0.146s0.292 0.109 0.383 0.164c0.128 0.073 0.219 0.146 0.274 0.228 0.055 0.073 0.082 0.173 0.082 0.301v0.429c0 0.192-0.073 0.292-0.21 0.292-0.073 0-0.192-0.037-0.347-0.11-0.52-0.237-1.104-0.356-1.752-0.356-0.52 0-0.93 0.082-1.213 0.255s-0.429 0.438-0.429 0.812c0 0.255 0.091 0.474 0.274 0.648s0.52 0.347 1.003 0.502l1.295 0.411c0.657 0.21 1.131 0.502 1.414 0.876s0.42 0.803 0.42 1.277c0 0.392-0.082 0.748-0.237 1.058-0.164 0.31-0.383 0.584-0.666 0.803-0.283 0.228-0.62 0.392-1.013 0.511-0.41 0.128-0.839 0.192-1.305 0.192zM27.084 21.009c-3.001 2.217-7.362 3.394-11.111 3.394-5.255 0-9.989-1.943-13.565-5.172-0.283-0.255-0.027-0.602 0.31-0.401 3.868 2.244 8.639 3.603 13.574 3.603 3.33 0 6.988-0.693 10.354-2.116 0.502-0.228 0.93 0.328 0.438 0.693zM24.822 19.467c0.976-0.119 3.129-0.374 3.512 0.119 0.383 0.483-0.429 2.518-0.794 3.421-0.109 0.274 0.128 0.383 0.374 0.173 1.606-1.35 2.025-4.169 1.697-4.579-0.328-0.401-3.147-0.748-4.862 0.456-0.265 0.192-0.219 0.447 0.073 0.41z"></path>
</symbol>
<symbol id="icon-node" viewBox="0 0 32 32">
<path fill="#fff" style="fill: var(--color1, #fff)" d="M6.682 12.107c0.115 0.068 0.185 0.193 0.185 0.33l-0.006 4.873c-0 0.033-0.009 0.066-0.025 0.095s-0.039 0.053-0.067 0.070c-0.028 0.017-0.060 0.026-0.093 0.026s-0.065-0.009-0.093-0.026l-1.82-1.070c-0.114-0.070-0.186-0.195-0.186-0.33v-2.277c0-0.136-0.070-0.261-0.185-0.329l-0.775-0.458c-0.056-0.034-0.121-0.051-0.184-0.051-0.065-0-0.129 0.018-0.185 0.051l-0.775 0.458c-0.056 0.033-0.103 0.081-0.135 0.139s-0.049 0.123-0.049 0.19v2.277c0 0.135-0.070 0.259-0.185 0.33l-1.821 1.071c-0.056 0.036-0.127 0.036-0.184 0-0.058-0.033-0.092-0.096-0.092-0.164l-0.007-4.873c0-0.067 0.017-0.133 0.050-0.191s0.079-0.106 0.136-0.14l3.064-1.809c0.053-0.031 0.111-0.048 0.169-0.050h0.032c0.059 0.002 0.117 0.019 0.168 0.050l3.064 1.809zM21.279 15.056c0.029-0.017 0.046-0.048 0.046-0.082l-0-1.247c0-0.034-0.017-0.065-0.046-0.082l-1.052-0.624c-0.029-0.017-0.064-0.017-0.093 0l-1.052 0.624c-0.028 0.017-0.046 0.048-0.046 0.082v1.247c0 0.034 0.017 0.065 0.046 0.082l1.053 0.623c0.014 0.008 0.030 0.013 0.046 0.013s0.032-0.004 0.046-0.013l1.052-0.623zM21.517 5.714c0.032-0 0.064 0.008 0.092 0.024l1.823 1.045c0.058 0.033 0.106 0.081 0.139 0.139s0.051 0.125 0.051 0.192v9.052c0 0.136-0.071 0.261-0.185 0.329l-3.065 1.817c-0.115 0.068-0.256 0.068-0.37 0l-3.065-1.817c-0.114-0.068-0.185-0.193-0.185-0.329v-3.632c0-0.067 0.017-0.132 0.050-0.19s0.079-0.105 0.135-0.139l3.065-1.815c0.056-0.033 0.12-0.051 0.185-0.051s0.129 0.018 0.185 0.051l0.767 0.454c0.020 0.012 0.042 0.018 0.065 0.018s0.045-0.006 0.065-0.018c0.020-0.012 0.036-0.028 0.047-0.049s0.017-0.043 0.017-0.066v-4.826c0-0.068 0.035-0.13 0.091-0.164 0.028-0.017 0.059-0.026 0.092-0.026zM31.951 13.556c-0.032 0.058-0.079 0.105-0.135 0.139l-1.838 1.096c-0.057 0.034-0.128 0.034-0.185 0.001s-0.093-0.097-0.093-0.165v-0.895c0-0.068-0.035-0.131-0.093-0.164l-0.96-0.568c-0.057-0.034-0.127-0.034-0.184 0l-0.959 0.568c-0.058 0.034-0.093 0.097-0.093 0.165v1.139c0 0.068 0.035 0.131 0.093 0.164l3.083 1.816c0.058 0.033 0.093 0.097 0.093 0.166s-0.037 0.131-0.095 0.165l-1.842 1.051c-0.114 0.065-0.251 0.064-0.363-0.002l-3.045-1.781c-0.115-0.068-0.187-0.194-0.187-0.33v-3.63c0-0.136 0.070-0.261 0.185-0.329l3.064-1.815c0.056-0.034 0.12-0.051 0.186-0.051s0.129 0.018 0.186 0.051l3.045 1.815c0.114 0.068 0.184 0.193 0.184 0.329v0.88c0 0.066-0.017 0.132-0.049 0.189zM15.817 25.83c-0.106 0-0.211-0.028-0.303-0.083l-0.965-0.586c-0.144-0.083-0.074-0.112-0.026-0.129 0.192-0.069 0.231-0.085 0.436-0.204 0.022-0.013 0.050-0.008 0.072 0.005l0.741 0.451c0.027 0.015 0.065 0.015 0.090 0l2.89-1.712c0.027-0.016 0.044-0.048 0.044-0.080v-3.423c0-0.034-0.017-0.065-0.045-0.082l-2.889-1.71c-0.027-0.016-0.062-0.016-0.089 0l-2.888 1.71c-0.028 0.016-0.046 0.048-0.046 0.081v3.423c0 0.033 0.017 0.064 0.045 0.079l0.791 0.469c0.43 0.221 0.692-0.039 0.692-0.301v-3.378c0-0.048 0.037-0.085 0.084-0.085h0.366c0.046 0 0.083 0.037 0.083 0.085v3.38c0 0.588-0.313 0.926-0.856 0.926-0.167 0-0.299 0-0.666-0.186l-0.758-0.448c-0.092-0.055-0.169-0.134-0.222-0.229s-0.081-0.203-0.081-0.312v-3.423c0-0.223 0.116-0.431 0.303-0.541l2.893-1.713c0.183-0.106 0.426-0.106 0.608 0l2.889 1.713c0.092 0.055 0.169 0.134 0.222 0.229s0.081 0.202 0.081 0.312v3.423c0 0.222-0.116 0.429-0.303 0.541l-2.889 1.713c-0.093 0.055-0.198 0.083-0.305 0.083l0 0.002zM16.709 23.471c-1.264 0-1.53-0.596-1.53-1.095 0-0.047 0.037-0.085 0.084-0.085h0.373c0.041 0 0.076 0.031 0.082 0.073 0.056 0.39 0.224 0.587 0.989 0.587 0.609 0 0.868-0.141 0.868-0.473 0-0.191-0.074-0.333-1.020-0.428-0.791-0.080-1.28-0.259-1.28-0.909 0-0.598 0.492-0.955 1.316-0.955 0.925 0 1.384 0.33 1.442 1.038 0.001 0.012-0 0.024-0.004 0.035s-0.010 0.022-0.018 0.030c-0.008 0.009-0.017 0.016-0.028 0.021s-0.022 0.007-0.034 0.007h-0.375c-0.039 0-0.073-0.028-0.081-0.067-0.090-0.411-0.309-0.542-0.903-0.542-0.665 0-0.742 0.238-0.742 0.416 0 0.216 0.091 0.279 0.988 0.401 0.888 0.121 1.31 0.292 1.31 0.933 0 0.646-0.525 1.016-1.441 1.016l0.004-0.003zM20.225 19.845h0.097c0.080 0 0.095-0.057 0.095-0.091 0-0.088-0.059-0.088-0.091-0.088h-0.1l-0.001 0.178zM20.107 19.564h0.215c0.074 0 0.218 0 0.218 0.169 0 0.118-0.073 0.142-0.118 0.157l-0 0c0.084 0.006 0.091 0.061 0.102 0.139l0.001 0.007 0.001 0.006v0c0.006 0.052 0.015 0.135 0.032 0.163h-0.132l-0.003-0.021c-0.007-0.053-0.021-0.174-0.021-0.181-0.009-0.036-0.021-0.054-0.065-0.054h-0.109v0.257h-0.121v-0.642zM19.849 19.884c0 0.266 0.209 0.481 0.466 0.481 0.259 0 0.468-0.22 0.468-0.481 0-0.267-0.212-0.478-0.469-0.478-0.253 0-0.466 0.209-0.466 0.477l0.001 0.001zM20.872 19.885c0 0.315-0.251 0.572-0.557 0.572-0.304 0-0.557-0.254-0.557-0.572 0-0.324 0.259-0.572 0.557-0.572 0.3 0 0.556 0.249 0.556 0.572h0.001zM28.578 13.43c0.011-0.006 0.023-0.010 0.035-0.010s0.025 0.003 0.035 0.010l0.588 0.348c0.022 0.013 0.035 0.037 0.035 0.063v0.697c0 0.026-0.013 0.050-0.035 0.063l-0.588 0.348c-0.011 0.006-0.023 0.010-0.035 0.010s-0.025-0.003-0.035-0.010l-0.588-0.348c-0.011-0.006-0.020-0.015-0.026-0.027s-0.010-0.024-0.010-0.037v-0.697c0-0.026 0.013-0.050 0.035-0.063l0.588-0.348zM11.863 10.227c-0.064 0-0.127 0.017-0.183 0.051l-3.037 1.786c-0.116 0.067-0.183 0.19-0.183 0.324v3.575c0 0.066 0.018 0.131 0.050 0.188s0.080 0.104 0.136 0.136l3.034 1.786c0.056 0.033 0.119 0.051 0.183 0.051s0.127-0.017 0.183-0.051l3.035-1.786c0.114-0.067 0.183-0.19 0.183-0.324v-3.575c0-0.133-0.069-0.257-0.183-0.324l-3.035-1.786c-0.056-0.033-0.119-0.051-0.183-0.051z"></path>
</symbol>
<symbol id="icon-php" viewBox="0 0 32 32">
<path fill="#fff" style="fill: var(--color1, #fff)" d="M13.892 8.571l-2.368 11.806h2.269l1.348-6.758 1.825 0.016c0.581 0 0.959 0.115 1.135 0.345s0.208 0.619 0.099 1.167l-1.052 5.229h2.302l1.102-5.476c0.23-1.228 0.066-2.061-0.493-2.499-0.548-0.438-1.381-0.669-2.499-0.691h-2.039l0.641-3.141h-2.269zM3.494 11.712h4.407c1.293 0.011 2.231 0.384 2.812 1.118s0.773 1.737 0.575 3.009c-0.077 0.581-0.247 1.151-0.51 1.71-0.252 0.559-0.603 1.063-1.052 1.513-0.548 0.57-1.135 0.932-1.759 1.085s-1.272 0.23-1.94 0.23h-1.973l-0.625 3.124h-2.286l2.351-11.79zM4.432 18.52l0.983-4.917h0.332c0.121 0 0.247-0.006 0.378-0.016 0.877-0.011 1.606 0.071 2.187 0.247 0.592 0.175 0.789 0.839 0.592 1.99-0.241 1.37-0.713 2.17-1.414 2.401-0.701 0.219-1.579 0.323-2.631 0.312h-0.23c-0.066 0-0.132-0.006-0.197-0.016zM27.395 11.712h-4.407l-2.351 11.79h2.286l0.625-3.124h1.973c0.669 0 1.315-0.077 1.94-0.23s1.211-0.515 1.759-1.085c0.45-0.45 0.8-0.954 1.052-1.513 0.263-0.559 0.433-1.129 0.51-1.71 0.197-1.272 0.006-2.275-0.576-3.009s-1.518-1.107-2.812-1.118zM24.909 13.603l-0.983 4.917c0.066 0.011 0.132 0.016 0.197 0.016h0.23c1.052 0.011 1.929-0.093 2.631-0.312 0.701-0.23 1.173-1.030 1.414-2.401 0.197-1.151 0-1.814-0.592-1.99-0.581-0.175-1.31-0.258-2.187-0.247-0.132 0.011-0.258 0.016-0.378 0.016h-0.332z"></path>
</symbol>
<symbol id="icon-react" viewBox="0 0 32 32">
<path fill="#fff" style="fill: var(--color1, #fff)" d="M22.521 4.303c0.419 0.242 0.752 0.728 0.925 1.537s0.168 1.874-0.034 3.137c-0.078 0.485-0.184 0.995-0.318 1.524-1.175-0.266-2.456-0.467-3.81-0.592-0.785-1.11-1.6-2.119-2.418-3.004 0.392-0.381 0.78-0.727 1.161-1.037 0.993-0.807 1.912-1.343 2.7-1.598s1.375-0.209 1.794 0.032zM15.133 6.905c-0.392-0.381-0.78-0.727-1.161-1.037-0.993-0.807-1.912-1.343-2.7-1.598s-1.375-0.209-1.794 0.032c-0.419 0.242-0.752 0.728-0.925 1.537s-0.168 1.874 0.034 3.137c0.078 0.485 0.184 0.995 0.318 1.524 1.175-0.266 2.456-0.467 3.81-0.592 0.786-1.11 1.6-2.119 2.418-3.004zM15.999 6.016c-0.418-0.406-0.833-0.777-1.244-1.111-1.061-0.863-2.116-1.497-3.101-1.816s-1.968-0.34-2.797 0.139-1.302 1.341-1.519 2.353c-0.216 1.012-0.194 2.243 0.022 3.593 0.084 0.523 0.197 1.069 0.34 1.633-0.56 0.159-1.090 0.333-1.585 0.522-1.278 0.488-2.355 1.084-3.123 1.778s-1.279 1.535-1.279 2.492 0.51 1.798 1.279 2.492c0.768 0.694 1.845 1.29 3.123 1.778 0.495 0.189 1.024 0.363 1.585 0.522-0.143 0.564-0.256 1.11-0.34 1.633-0.216 1.351-0.239 2.581-0.022 3.593s0.69 1.875 1.519 2.353c0.829 0.479 1.813 0.457 2.797 0.139s2.040-0.953 3.101-1.816c0.411-0.334 0.827-0.705 1.244-1.111 0.417 0.406 0.833 0.777 1.244 1.111 1.061 0.863 2.116 1.497 3.101 1.816s1.968 0.34 2.797-0.139c0.829-0.479 1.302-1.341 1.519-2.353s0.194-2.243-0.022-3.593c-0.084-0.523-0.198-1.069-0.34-1.633 0.56-0.159 1.090-0.333 1.585-0.522 1.278-0.488 2.355-1.084 3.123-1.778s1.279-1.535 1.279-2.492-0.511-1.798-1.279-2.492c-0.768-0.694-1.845-1.29-3.123-1.778-0.495-0.189-1.024-0.363-1.585-0.522 0.143-0.565 0.256-1.11 0.34-1.633 0.216-1.351 0.239-2.581 0.022-3.594s-0.69-1.875-1.519-2.353-1.813-0.457-2.797-0.139c-0.985 0.319-2.040 0.953-3.101 1.816-0.411 0.334-0.827 0.706-1.244 1.111zM22.755 11.698c-0.802-0.179-1.661-0.328-2.564-0.441 0.295 0.461 0.583 0.935 0.865 1.422s0.548 0.974 0.799 1.46c0.353-0.839 0.654-1.656 0.9-2.441zM22.569 15.599c0.569-1.235 1.035-2.445 1.392-3.596 0.526 0.149 1.020 0.312 1.479 0.487 1.195 0.456 2.119 0.984 2.734 1.539s0.869 1.086 0.869 1.57-0.254 1.015-0.869 1.57c-0.615 0.555-1.539 1.083-2.734 1.539-0.459 0.175-0.954 0.338-1.479 0.487-0.357-1.151-0.823-2.361-1.392-3.596zM21.196 15.599c-0.365-0.758-0.771-1.527-1.216-2.298s-0.908-1.507-1.382-2.202c-0.839-0.063-1.708-0.096-2.598-0.096s-1.759 0.033-2.598 0.096c-0.474 0.695-0.937 1.431-1.382 2.202s-0.851 1.54-1.216 2.298c0.365 0.758 0.771 1.527 1.216 2.298s0.908 1.507 1.382 2.202c0.839 0.063 1.708 0.096 2.598 0.096s1.759-0.033 2.598-0.096c0.474-0.695 0.937-1.431 1.382-2.202s0.851-1.54 1.216-2.298zM20.191 19.94c0.295-0.461 0.583-0.935 0.865-1.422s0.548-0.974 0.799-1.46c0.353 0.839 0.654 1.656 0.9 2.441-0.802 0.179-1.661 0.328-2.564 0.441zM17.663 21.399c-0.546 0.025-1.101 0.038-1.664 0.038s-1.118-0.013-1.664-0.038c0.55 0.725 1.108 1.394 1.664 2 0.556-0.605 1.114-1.274 1.664-2zM16.866 24.292c0.818-0.885 1.633-1.893 2.418-3.004 1.354-0.125 2.635-0.326 3.81-0.592 0.134 0.529 0.24 1.039 0.318 1.524 0.202 1.263 0.207 2.327 0.034 3.137s-0.506 1.296-0.925 1.537-1.006 0.287-1.794 0.032c-0.788-0.255-1.707-0.791-2.7-1.598-0.381-0.31-0.77-0.657-1.161-1.037zM15.133 24.292c-0.818-0.885-1.633-1.893-2.418-3.004-1.354-0.125-2.635-0.326-3.81-0.592-0.134 0.53-0.24 1.039-0.318 1.524-0.202 1.263-0.207 2.327-0.034 3.137s0.506 1.296 0.925 1.537c0.419 0.242 1.006 0.287 1.794 0.032s1.707-0.791 2.7-1.598c0.381-0.31 0.77-0.657 1.161-1.037zM9.244 19.499c0.802 0.179 1.661 0.328 2.564 0.441-0.295-0.461-0.583-0.935-0.865-1.422s-0.548-0.974-0.799-1.46c-0.353 0.839-0.654 1.656-0.9 2.441zM10.144 14.139c0.252-0.485 0.518-0.973 0.799-1.46s0.57-0.962 0.865-1.422c-0.903 0.113-1.761 0.262-2.564 0.441 0.246 0.784 0.546 1.602 0.9 2.441zM9.43 15.599c-0.569 1.235-1.035 2.445-1.392 3.596-0.526-0.149-1.020-0.312-1.479-0.487-1.195-0.456-2.119-0.984-2.734-1.539s-0.869-1.086-0.869-1.57 0.254-1.015 0.869-1.57c0.615-0.555 1.539-1.083 2.734-1.539 0.459-0.175 0.953-0.338 1.479-0.487 0.357 1.151 0.823 2.361 1.392 3.596zM14.335 9.798c0.546-0.025 1.102-0.038 1.664-0.038s1.118 0.013 1.664 0.038c-0.55-0.725-1.107-1.394-1.664-2-0.556 0.605-1.114 1.274-1.664 2zM18.546 15.598c0 1.406-1.14 2.547-2.547 2.547s-2.547-1.14-2.547-2.547 1.14-2.547 2.547-2.547c1.406 0 2.547 1.14 2.547 2.547z"></path>
</symbol>
<symbol id="icon-menu" viewBox="0 0 32 32">
<path fill="#fff" style="fill: var(--color1, #fff)" d="M0 5.333c0-0.736 0.597-1.333 1.333-1.333h29.333c0.736 0 1.333 0.597 1.333 1.333s-0.597 1.333-1.333 1.333h-29.333c-0.736 0-1.333-0.597-1.333-1.333z"></path>
<path fill="#fff" style="fill: var(--color1, #fff)" d="M0 16c0-0.736 0.597-1.333 1.333-1.333h29.333c0.736 0 1.333 0.597 1.333 1.333s-0.597 1.333-1.333 1.333h-29.333c-0.736 0-1.333-0.597-1.333-1.333z"></path>
<path fill="#fff" style="fill: var(--color1, #fff)" d="M0 26.667c0-0.736 0.597-1.333 1.333-1.333h29.333c0.736 0 1.333 0.597 1.333 1.333s-0.597 1.333-1.333 1.333h-29.333c-0.736 0-1.333-0.597-1.333-1.333z"></path>
</symbol>
<symbol id="icon-untitled" viewBox="0 0 32 32">
<path fill="#fff" style="fill: var(--color1, #fff)" d="M0 19.2h32v-6.4h-32v6.4z"></path>
</symbol>
<symbol id="icon-untitled1" viewBox="0 0 32 32">
<path fill="#fff" style="fill: var(--color1, #fff)" d="M13.302 0v13.616h-13.302v4.831h13.302v13.553h5.333v-13.553h13.365v-4.831h-13.365v-13.616h-5.333z"></path>
</symbol>
</defs>
</svg>
