<svg width="132" height="132" viewBox="0 0 132 132" fill="none" xmlns="http://www.w3.org/2000/svg">
<path d="M57.5744 117.189C57.7182 116.044 58.6171 115.468 59.9734 115.639L62.3996 115.944L61.9341 119.651L59.5531 119.352C58.2119 119.183 57.4287 118.35 57.5744 117.189ZM57.2533 121.94C57.3877 120.87 58.2056 120.33 59.4865 120.492L61.7922 120.782L61.3646 124.188L59.089 123.901C57.7478 123.732 57.1228 122.98 57.2533 121.94ZM56.2201 116.881C56.0573 118.177 56.8535 119.395 57.9742 119.735C56.9229 119.939 55.9976 120.604 55.831 121.93C55.6475 123.392 56.6113 124.738 58.8265 125.016L62.594 125.49L63.9129 114.986L59.9948 114.493C57.8247 114.22 56.4188 115.299 56.2201 116.881Z" fill="white"/>
<path d="M43.3108 109.35L41.9842 108.745L41.0927 119.908L42.5437 120.57L50.3861 112.578L49.0595 111.973L47.3104 113.762L43.1095 111.846L43.3108 109.35ZM43.0032 113.033L46.4856 114.622L42.5298 118.693L43.0032 113.033Z" fill="white"/>
<path d="M33.0972 109.391C35.2702 107.077 35.0959 103.868 32.9391 101.838C31.2689 100.266 29.1619 99.8471 27.1935 100.79L28.3991 101.924C29.6824 101.401 30.9895 101.651 32.1177 102.712C33.7325 104.232 33.836 106.541 32.0686 108.423C30.2907 110.316 27.983 110.355 26.3682 108.835C25.24 107.774 24.9102 106.483 25.3632 105.157L24.1576 104.023C23.3292 106.059 23.8663 108.149 25.5364 109.721C27.6932 111.751 30.9242 111.705 33.0972 109.391Z" fill="white"/>
<path d="M22.238 87.791L21.3633 86.2093L19.0851 93.0118L12.1261 91.3814L12.9713 92.9099L19.3791 94.3596L15.0882 96.7379L15.7571 97.9475L25.0164 92.8153L24.3476 91.6058L20.1231 93.9473L22.238 87.791Z" fill="white"/>
<path d="M7.99026 73.0913L7.82804 70.1948L17.2757 69.6644L17.1984 68.2844L7.75076 68.8148L7.58939 65.9334L6.46719 65.9964L6.86806 73.1542L7.99026 73.0913Z" fill="white"/>
<path d="M14.6643 47.9837C11.586 47.2084 8.8545 48.9169 8.12527 51.8189C7.39975 54.7061 8.99481 57.5199 12.0731 58.2952C15.1514 59.0705 17.8866 57.3473 18.6121 54.4601C19.3413 51.5582 17.7426 48.7591 14.6643 47.9837ZM12.4174 56.9253C9.89876 56.2909 8.7447 54.2773 9.28884 52.1119C9.83298 49.9465 11.8014 48.7193 14.32 49.3537C16.8239 49.9843 17.9927 52.0016 17.4485 54.1671C16.9044 56.3325 14.9212 57.5559 12.4174 56.9253Z" fill="white"/>
<path d="M19.8998 29.9538L21.8306 27.7886L28.8859 34.0943L29.8058 33.0627L22.7505 26.757L24.6711 24.6031L23.8331 23.8541L19.0618 29.2048L19.8998 29.9538Z" fill="white"/>
<path d="M42.3495 16.9017C40.72 14.1774 37.5808 13.4561 35.0144 14.9946C32.4611 16.5253 31.601 19.6442 33.2305 22.3685C34.86 25.0928 38.0122 25.8062 40.5656 24.2755C43.1319 22.737 43.9789 19.626 42.3495 16.9017ZM34.442 21.6422C33.1088 19.4132 33.7154 17.1724 35.6304 16.0244C37.5453 14.8764 39.8047 15.399 41.138 17.628C42.4634 19.844 41.8646 22.0978 39.9496 23.2458C38.0346 24.3938 35.7674 23.8581 34.442 21.6422Z" fill="white"/>
<path d="M51.4512 13.3751L50.5699 9.58798L52.552 9.12567C54.0903 8.76686 54.9064 9.32513 55.1852 10.5234C55.4538 11.6773 54.9716 12.554 53.4333 12.9128L51.4512 13.3751ZM56.5609 10.2025C56.1684 8.51609 54.7196 7.45035 52.2938 8.01616L48.9657 8.79244L51.3652 19.1034L52.7112 18.7895L51.7094 14.4846L53.6915 14.0223C56.2504 13.4254 56.9258 11.7706 56.5609 10.2025Z" fill="white"/>
<path d="M80.0957 15.9399C79.8249 17.062 78.8674 17.5336 77.5387 17.2122L75.1619 16.6373L76.0384 13.0051L78.371 13.5694C79.6849 13.8872 80.3701 14.803 80.0957 15.9399ZM80.9453 11.2542C80.6923 12.3025 79.8193 12.7477 78.5644 12.4441L76.3057 11.8978L77.111 8.56093L79.3402 9.10016C80.6541 9.41798 81.1912 10.2355 80.9453 11.2542ZM81.4071 16.3977C81.7135 15.128 81.0583 13.8287 79.9827 13.3654C81.0502 13.2798 82.0439 12.7232 82.3575 11.4239C82.7031 9.99175 81.8957 8.54631 79.7256 8.02137L76.0348 7.12861L73.5512 17.4197L77.3895 18.3481C79.5154 18.8624 81.0329 17.948 81.4071 16.3977Z" fill="white"/>
<path d="M93.3931 25.3272L94.6437 26.0769L96.7769 15.0834L95.4091 14.2634L86.7233 21.3286L87.9739 22.0783L89.9118 20.4953L93.8721 22.8694L93.3931 25.3272ZM94.1103 21.7018L90.8275 19.7337L95.2133 16.1294L94.1103 21.7018Z" fill="white"/>
<path d="M103.548 26.4284C101.13 28.4851 100.944 31.6937 102.861 33.952C104.345 35.7007 106.392 36.3523 108.453 35.6358L107.382 34.3735C106.048 34.7502 104.777 34.3558 103.775 33.1746C102.34 31.4838 102.495 29.1783 104.462 27.5054C106.44 25.8227 108.738 26.0418 110.173 27.7326C111.175 28.9139 111.359 30.2334 110.76 31.5L111.832 32.7624C112.882 30.8317 112.582 28.6941 111.098 26.9454C109.182 24.6871 105.966 24.3717 103.548 26.4284Z" fill="white"/>
<path d="M111.926 49.108L112.619 50.7775L115.643 44.2729L122.377 46.6713L121.708 45.0579L115.502 42.9007L120.032 41.0173L119.502 39.7407L109.727 43.8048L110.256 45.0815L114.716 43.2273L111.926 49.108Z" fill="white"/>
<path d="M124.446 65.3109L124.283 68.2074L114.836 67.6771L114.758 69.0571L124.206 69.5875L124.045 72.4688L125.167 72.5318L125.568 65.3739L124.446 65.3109Z" fill="white"/>
<path d="M115.01 89.5142C117.983 90.6291 120.888 89.2368 121.936 86.4344C122.98 83.6463 121.709 80.6715 118.737 79.5566C115.765 78.4417 112.854 79.8482 111.811 82.6364C110.762 85.4387 112.038 88.3993 115.01 89.5142ZM118.242 80.8795C120.674 81.7917 121.596 83.9219 120.813 86.013C120.03 88.1041 117.937 89.1034 115.506 88.1913C113.088 87.2844 112.152 85.1489 112.934 83.0578C113.717 80.9667 115.824 79.9727 118.242 80.8795Z" fill="white"/>
<path d="M107.795 106.845L105.634 108.781L99.3278 101.726L98.2984 102.648L104.605 109.703L102.455 111.629L103.204 112.467L108.544 107.683L107.795 106.845Z" fill="white"/>
<path d="M84.027 117.304C85.3419 120.193 88.3811 121.261 91.1034 120.019C93.8119 118.784 95.0151 115.781 93.7002 112.891C92.3853 110.002 89.3323 108.941 86.6238 110.176C83.9015 111.418 82.712 114.414 84.027 117.304ZM92.415 113.478C93.4909 115.842 92.6377 118 90.6063 118.927C88.575 119.854 86.388 119.082 85.3121 116.718C84.2426 114.367 85.0894 112.195 87.1208 111.268C89.1522 110.342 91.3455 111.127 92.415 113.478Z" fill="white"/>
<path d="M74.5892 119.787L75.0421 123.649L73.0207 123.887C71.4519 124.071 70.7032 123.425 70.5599 122.203C70.4219 121.027 70.999 120.209 72.5678 120.025L74.5892 119.787ZM69.157 122.368C69.3587 124.088 70.6795 125.309 73.1534 125.018L76.5475 124.619L75.3144 114.105L73.9416 114.266L74.4565 118.656L72.4351 118.894C69.8254 119.2 68.9695 120.769 69.157 122.368Z" fill="white"/>
</svg>
