<svg width="140" height="140" viewBox="0 0 140 140" fill="none" xmlns="http://www.w3.org/2000/svg">
<g opacity="0.8" clip-path="url(#clip0_33_1161)">
<path d="M62.589 139.853L61.5149 139.728C36.9474 136.787 10.4013 111.203 2.35156 82.6897L2.75857 82.554C5.70939 90.1123 17.1961 95.6114 34.2679 97.6594H34.4149L34.4488 97.8178C40.0565 117.676 49.9604 132.804 61.6393 139.332L62.589 139.864V139.853ZM3.44823 84.8509C12.052 111.871 37.0378 135.734 60.4974 139.163C49.1577 132.328 39.5703 117.438 34.0757 98.0668C18.5528 96.1885 7.62008 91.4362 3.44823 84.8509Z" fill="#92DEED"/>
<path d="M41.3906 116.68C31.8937 115.548 21.6506 105.67 18.5415 94.6723L18.9598 94.5591C22.0237 105.41 32.1085 115.152 41.4471 116.261L41.4019 116.691L41.3906 116.68Z" fill="#92DEED"/>
<path d="M50.7179 130.733C32.9225 128.606 13.7026 110.083 7.88013 89.4335L8.29844 89.3203C14.087 109.812 33.1373 128.199 50.7744 130.303L50.7292 130.733H50.7179Z" fill="#92DEED"/>
<path d="M37.0039 129.964C31.2945 125.788 30.2091 114.066 34.0418 97.8178L34.4601 97.9196C30.6726 113.987 31.7015 125.551 37.2639 129.613L37.0152 129.964H37.0039Z" fill="#92DEED"/>
<path d="M34.5393 98.1234L34.2227 98.0894C16.9813 96.0301 5.37024 90.4292 2.36289 82.7124C-1.98985 67.2901 -0.237446 53.4858 7.17917 44.8073C13.013 37.9843 21.9898 34.9067 32.4477 36.1626L32.6851 36.1966L32.6286 36.4342C28.1741 55.5678 28.8411 77.9375 34.4488 97.8178L34.5393 98.1234ZM27.9593 36.321C19.5477 36.321 12.3912 39.3648 7.50704 45.0901C0.192175 53.6556 -1.53762 67.3127 2.7699 82.5766C5.69811 90.0671 17.0605 95.5435 33.9514 97.6255C28.4228 77.8356 27.7671 55.6131 32.165 36.57C30.7405 36.4116 29.3386 36.3324 27.9706 36.3324L27.9593 36.321Z" fill="#92DEED"/>
<path d="M18.5416 94.661C16.857 88.698 17.5466 83.346 20.4183 79.9741C22.6908 77.3151 26.173 76.1157 30.2431 76.6023L30.1979 77.0322C26.2747 76.5683 22.9169 77.7111 20.7462 80.257C17.965 83.5157 17.3092 88.7206 18.9486 94.5365L18.5302 94.6496L18.5416 94.661Z" fill="#92DEED"/>
<path d="M7.88013 89.4335C4.72581 78.2769 6.00337 68.2745 11.3849 61.9834C15.6133 57.0274 22.1255 54.7984 29.7117 55.7149L29.6665 56.1449C22.2272 55.251 15.8507 57.4348 11.7128 62.2663C6.43299 68.4442 5.18935 78.3109 8.29845 89.3316L7.88013 89.4448V89.4335Z" fill="#92DEED"/>
<path d="M34.1323 98.0442C16.4387 86.1974 4.38664 71.3748 1.07404 57.3782L1.49235 57.2764C4.78235 71.1711 16.7665 85.8919 34.3697 97.6934L34.1323 98.0442Z" fill="#92DEED"/>
<path d="M34.0757 97.9989C20.5427 79.7365 12.4138 58.8604 11.7806 40.7452H12.2103C12.8434 58.7699 20.9384 79.5442 34.4262 97.7499L34.087 98.0102L34.0757 97.9989Z" fill="#92DEED"/>
<path d="M49.3612 98.938C44.104 98.938 39.0164 98.6551 34.2227 98.0781H34.0757L34.0418 97.9197C28.4115 77.9714 27.7445 55.5225 32.2216 36.321L32.2668 36.1287L32.459 36.1513C57.0265 39.0932 83.5726 64.6763 91.6224 93.19L91.6789 93.405L91.4641 93.4616C77.6371 97.0597 62.9395 98.938 49.3725 98.938H49.3612ZM34.4149 97.6707C51.4528 99.6848 72.1085 98.0215 91.1362 93.0995C83.0751 64.9026 56.8909 39.625 32.5946 36.6039C28.1967 55.647 28.8637 77.8922 34.4149 97.6707Z" fill="#92DEED"/>
<path d="M52.6851 98.7456C49.6212 87.8946 39.5364 78.1524 30.1978 77.0436L30.243 76.6136C39.7399 77.7451 49.983 87.623 53.0921 98.6325L52.6738 98.7456H52.6851Z" fill="#92DEED"/>
<path d="M72.1424 97.1163C66.3538 76.6249 47.3035 58.2381 29.6664 56.1335L29.7117 55.7036C47.507 57.8308 66.7269 76.3534 72.5494 97.0032L72.1311 97.1163H72.1424Z" fill="#92DEED"/>
<path d="M34.4601 97.9197L34.0418 97.8178C37.8519 81.6374 46.0938 62.7415 56.6535 45.984L57.0152 46.2103C46.4782 62.9338 38.2589 81.7845 34.4601 97.9197Z" fill="#92DEED"/>
<path d="M66.0034 140C64.5449 140 63.0412 139.909 61.5149 139.728L61.4358 139.706C49.6664 133.132 39.6834 117.902 34.0418 97.931L33.9514 97.6255L34.2679 97.6594C51.3962 99.7074 72.199 98.0328 91.3397 93.0543L91.5432 92.9977L91.5997 93.2014C95.9412 108.601 94.1888 122.405 86.7722 131.084C81.7976 136.911 74.528 140 65.9921 140H66.0034ZM61.6054 139.31C71.905 140.521 80.7348 137.511 86.4556 130.801C93.7365 122.269 95.4889 108.692 91.2493 93.5182C72.2329 98.4402 51.5997 100.115 34.5393 98.1234C40.1582 117.811 50.0056 132.804 61.6054 139.31Z" fill="#92DEED"/>
<path d="M43.1317 116.782C42.5664 116.782 41.9785 116.748 41.3906 116.68L41.4358 116.25C45.3476 116.714 48.7167 115.571 50.8875 113.025C53.6687 109.766 54.3244 104.562 52.6851 98.7457L53.1034 98.6325C54.788 104.595 54.0983 109.947 51.2266 113.308C49.2933 115.582 46.4556 116.782 43.143 116.782H43.1317Z" fill="#92DEED"/>
<path d="M53.974 130.925C52.9112 130.925 51.8259 130.858 50.7179 130.733L50.7631 130.303C58.2137 131.197 64.5788 129.013 68.7168 124.182C73.9966 118.004 75.2402 108.137 72.1311 97.1276L72.5494 97.0145C75.7038 108.171 74.4262 118.173 69.0446 124.465C65.4268 128.696 60.1583 130.937 53.9627 130.937L53.974 130.925Z" fill="#92DEED"/>
<path d="M92.6738 118.773C73.1487 117.449 51.8146 109.891 34.1323 98.0441L34.3697 97.6934C51.9842 109.495 73.2504 117.019 92.7077 118.343L92.6738 118.773Z" fill="#92DEED"/>
<path d="M81.9107 135.361C65.0537 129.884 47.6201 116.261 34.0757 97.9989L34.4149 97.7386C47.9028 115.933 65.2572 129.5 82.035 134.942L81.8994 135.35L81.9107 135.361Z" fill="#92DEED"/>
<path d="M66.0034 140C64.8728 140 63.7309 139.943 62.5551 139.842L62.589 139.864L61.4697 139.728C52.606 138.665 43.1995 134.625 34.2566 128.04C32.1085 126.377 29.4064 124.17 27.5297 122.541C26.693 121.828 25.7094 120.855 24.8502 119.995C24.5788 119.724 24.3188 119.475 24.0814 119.237C22.035 117.257 18.9372 113.67 17.2414 111.498C15.9751 109.88 14.3245 107.537 12.1763 104.335C11.5658 103.419 10.8762 102.231 10.2657 101.167L9.89257 100.533C9.20292 99.3567 8.32106 97.6934 7.69924 96.4035C6.87392 94.7062 5.82247 92.364 5.07629 90.5876C4.01354 87.9738 3.09777 85.3148 2.36289 82.7011C-1.98985 67.2901 -0.237446 53.4858 7.17917 44.8073C13.013 37.9843 21.9898 34.9067 32.4477 36.1626C57.0152 39.1045 83.5613 64.6876 91.6111 93.2013C95.9525 108.601 94.2001 122.405 86.7835 131.084C81.8089 136.911 74.5393 140 66.0034 140ZM61.6054 139.31C71.905 140.521 80.7349 137.511 86.4556 130.801C93.7705 122.236 95.5003 108.567 91.1927 93.3145C83.1882 64.9592 56.8117 39.5119 32.3912 36.5926C22.0689 35.3593 13.2278 38.3804 7.49574 45.0901C0.192175 53.6556 -1.53762 67.3127 2.7699 82.5766C3.50478 85.179 4.40925 87.8154 5.47199 90.4179C6.21818 92.1943 7.26962 94.5252 8.08364 96.2111C8.70546 97.4897 9.57601 99.1417 10.2657 100.318L10.6388 100.952C11.2493 102.004 11.9276 103.192 12.5381 104.098C14.6749 107.288 16.3256 109.619 17.5805 111.237C19.2651 113.41 22.3516 116.963 24.3866 118.943C24.6354 119.18 24.8954 119.441 25.1667 119.701C26.026 120.55 27.0096 121.511 27.8349 122.224C29.7117 123.842 32.4025 126.049 34.5393 127.701C43.0752 133.98 52.0294 137.929 60.52 139.163C49.1577 132.317 39.5477 117.37 34.0644 97.931L34.4827 97.8178C40.0791 117.653 49.983 132.781 61.6393 139.31H61.6054Z" fill="#92DEED"/>
<path d="M62.589 139.853L61.5149 139.728C36.9474 136.787 10.4013 111.203 2.35156 82.6897L2.75857 82.554C5.70939 90.1123 17.1961 95.6114 34.2679 97.6594H34.4149L34.4488 97.8178C40.0565 117.676 49.9604 132.804 61.6393 139.332L62.589 139.864V139.853ZM3.44823 84.8509C12.052 111.871 37.0378 135.734 60.4974 139.163C49.1577 132.328 39.5703 117.438 34.0757 98.0668C18.5528 96.1885 7.62008 91.4362 3.44823 84.8509Z" fill="#92DEED"/>
<path d="M16.0203 109.732C15.9298 109.732 15.8846 109.699 15.8507 109.676C15.8168 109.642 15.6924 109.529 15.7716 109.314L16.1786 109.461C16.1786 109.461 16.1786 109.404 16.1447 109.359C16.1107 109.314 16.0655 109.303 16.0542 109.303C16.3595 109.303 18.5867 108.431 34.1209 97.6934L34.3583 98.0441C19.1407 108.567 16.5856 109.732 16.009 109.732H16.0203Z" fill="#92DEED"/>
<path d="M34.2679 128.04C34.1096 127.927 33.9626 127.814 33.8043 127.701C32.7529 126.92 31.4414 125.924 30.4804 125.098C30.3221 124.962 30.1526 124.815 29.9717 124.668C29.6664 124.408 29.3612 124.148 29.0672 123.887C28.4002 123.31 27.6879 122.699 27.1226 122.19C26.3651 121.5 25.4493 120.606 24.6466 119.814L23.9909 119.169C21.2662 116.521 18.338 112.878 17.2413 111.509C15.602 109.472 14.9462 108.488 12.1763 104.347C11.5432 103.396 10.8422 102.185 10.2204 101.11L9.79077 100.364C8.82978 98.7117 7.73312 96.4713 6.87387 94.7175C6.67037 94.2876 6.45556 93.8123 6.22944 93.3032C5.82243 92.398 5.43803 91.4928 5.06494 90.5876L5.46065 90.4178C5.63023 90.8139 5.82243 91.2552 6.01463 91.7078C6.21814 92.183 6.42164 92.6695 6.62514 93.1334C11.758 104.528 19.7851 115.254 29.3272 123.548C29.4968 123.695 29.6664 123.842 29.8247 123.978C29.9717 124.102 30.1073 124.227 30.243 124.34C31.4866 125.392 32.7529 126.388 34.0305 127.361C34.1887 127.486 34.347 127.599 34.494 127.701L34.2453 128.051L34.2679 128.04Z" fill="#92DEED"/>
<path d="M2.40812 82.8708L2.36289 82.6898C-1.98985 67.2901 -0.237446 53.4858 7.17917 44.8073C13.013 37.9843 21.9898 34.9067 32.4477 36.1626H32.5381L32.5947 36.2418C38.1006 43.2232 44.2057 47.0703 50.1978 47.6247C53.1713 44.4678 57.5692 43.0648 62.6681 43.6758L63.1882 43.7323L62.7812 44.0492C58.8807 47.0929 54.6636 48.4054 50.3674 48.066C50.277 48.1565 50.1978 48.2583 50.1074 48.3602C46.4217 52.6712 45.5624 59.5507 47.7332 67.2448L47.7784 67.3806L47.6653 67.4711C38.225 74.8259 21.3793 80.5739 2.61162 82.8368L2.43073 82.8595L2.40812 82.8708ZM27.9706 36.321C19.559 36.321 12.4025 39.3648 7.51835 45.0901C0.214786 53.6216 -1.52631 67.2109 2.71337 82.3956C21.2662 80.1326 37.8858 74.4751 47.2583 67.2335C45.0989 59.4601 46.0034 52.4901 49.7569 48.0886C49.7795 48.066 49.7908 48.0433 49.8134 48.0207C43.844 47.3531 37.784 43.4834 32.3007 36.57C30.8196 36.4002 29.3725 36.3097 27.9593 36.3097L27.9706 36.321ZM50.7518 47.67C54.641 47.8963 58.4963 46.7082 62.0689 44.0492C57.4788 43.6192 53.5104 44.8978 50.7518 47.67Z" fill="#92DEED"/>
<path d="M19.8417 79.4423C16.6196 68.0255 17.9197 57.7855 23.4257 51.3473C27.7558 46.2782 34.4149 44.0039 42.182 44.9317L42.1368 45.3617C34.5167 44.4452 27.9932 46.6742 23.7535 51.6302C18.3493 57.9552 17.0718 68.0595 20.26 79.3292L19.8417 79.4423Z" fill="#92DEED"/>
<path d="M35.3307 74.2262C32.8547 65.4458 33.8609 57.5592 38.0893 52.6033C41.4245 48.6996 46.546 46.9458 52.5381 47.6586L52.4929 48.0886C46.6591 47.3984 41.6619 49.0957 38.4285 52.8862C34.2905 57.729 33.3182 65.4684 35.749 74.113L35.3307 74.2262Z" fill="#92DEED"/>
<path d="M38.6659 50.6684C30.7179 50.6684 21.4245 47.3645 11.8711 40.9036L12.1085 40.5529C27.8462 51.1889 42.8151 53.203 52.1537 45.9275L52.4138 46.2669C48.6263 49.2201 43.9457 50.6684 38.6659 50.6684Z" fill="#92DEED"/>
<path d="M91.758 93.7331L91.2832 93.4276C87.3035 90.9044 85.1215 87.8041 84.9519 84.4549C84.8841 82.95 85.2233 81.4111 85.9468 79.861C79.3669 66.6564 69.1464 54.9228 57.7049 46.9684C49.3725 50.2271 40.1809 46.5611 32.2442 36.5021L31.9163 36.0947L32.4364 36.1513C40.9158 37.1696 49.6325 40.881 57.7501 46.4819C59.3669 45.8256 60.9497 44.9091 62.4873 43.7097L62.5551 43.6531H62.6455C75.1272 45.158 88.6037 58.1476 92.6851 72.6194L92.7303 72.7552L92.6173 72.8457C89.6665 75.154 87.5749 77.5188 86.4217 79.8497C88.5585 84.1607 90.3109 88.6301 91.5998 93.1787L91.7467 93.7218L91.758 93.7331ZM86.2069 80.3588C85.6077 81.7393 85.325 83.1084 85.3929 84.4435C85.5398 87.4986 87.4844 90.3726 91.0458 92.76C89.8134 88.5396 88.1854 84.387 86.2182 80.3702L86.2069 80.3588ZM58.1911 46.776C69.5195 54.7192 79.6269 66.3283 86.2069 79.3858C87.394 77.1115 89.429 74.8258 92.2555 72.6081C88.1741 58.3739 74.9576 45.6332 62.7021 44.117C61.2436 45.2485 59.7286 46.1424 58.1911 46.7874V46.776ZM32.9225 36.6378C40.5653 46.1085 49.3273 49.6048 57.2866 46.6629C49.4743 41.3109 41.0967 37.7241 32.9225 36.6378Z" fill="#92DEED"/>
<path d="M85.6077 87.3063C79.6834 66.3283 60.1809 47.5115 42.1255 45.3504L42.1707 44.9204C60.3844 47.0929 80.0452 66.0568 86.0147 87.1818L85.5964 87.2949L85.6077 87.3063Z" fill="#92DEED"/>
<path d="M85.8338 80.2683C81.2888 64.1785 66.3312 49.7406 52.4929 48.0886L52.5381 47.6586C66.5348 49.3332 81.6619 63.9069 86.2408 80.1439L85.8225 80.257L85.8338 80.2683Z" fill="#92DEED"/>
<path d="M64.251 53.8592C63.3804 53.8592 62.5664 53.7234 61.8202 53.4519C59.2651 52.524 57.4675 49.9895 56.6309 46.1424L57.0492 46.0519C57.8519 49.7519 59.5591 52.1733 61.9672 53.0558C65.2007 54.2326 69.6665 52.7051 74.8672 48.6543L75.1272 48.9938C70.9893 52.2185 67.2809 53.8705 64.251 53.8705V53.8592Z" fill="#92DEED"/>
<path d="M66.0034 140C64.5449 140 63.0412 139.91 61.515 139.728L61.3228 139.706V139.513C61.8315 119.61 67.7897 103.317 77.2413 95.9509L77.3092 95.8943H77.3996C82.329 96.494 86.58 95.1588 89.4629 92.1378C86.6478 89.8748 85.0989 87.261 84.9632 84.4662C84.771 80.5739 87.3374 76.4439 92.3685 72.5176L92.6173 72.3253L92.7077 72.6308C94.9237 80.4607 94.0192 87.4873 90.243 91.9115C90.1978 91.968 90.1413 92.0246 90.0961 92.0812C90.537 92.4206 91.0231 92.7488 91.5206 93.0769L91.5884 93.1222L91.611 93.2014C95.9525 108.601 94.2001 122.405 86.7835 131.084C81.8089 136.911 74.5393 140 66.0034 140ZM61.7637 139.321C71.9954 140.487 80.7688 137.477 86.4669 130.801C93.7705 122.247 95.5003 108.612 91.2267 93.3937C90.7292 93.0769 90.2543 92.7374 89.8021 92.398C86.84 95.5209 82.4872 96.9127 77.4449 96.3356C68.1515 103.634 62.3064 119.678 61.7637 139.321ZM92.3798 73.0607C87.6314 76.8286 85.2233 80.7662 85.3928 84.4436C85.5172 87.1139 87.0209 89.6258 89.7569 91.8096C89.8134 91.753 89.8699 91.6852 89.9152 91.6286C93.5443 87.3742 94.4375 80.6191 92.3798 73.0494V73.0607Z" fill="#92DEED"/>
<path d="M67.0096 121.896C65.9242 121.896 64.8163 121.828 63.6744 121.692L63.7196 121.262C71.3397 122.168 77.8632 119.939 82.1029 114.994C87.5071 108.669 88.7846 98.576 85.5964 87.295L86.0147 87.1818C89.2368 98.5986 87.9367 108.839 82.4307 115.277C78.7337 119.61 73.3409 121.896 67.0096 121.896Z" fill="#92DEED"/>
<path d="M71.5997 106.87C70.7631 106.87 69.9039 106.813 69.0333 106.711L69.0785 106.281C74.9123 106.983 79.9095 105.274 83.143 101.484C87.2809 96.6411 88.2532 88.9017 85.8225 80.2571L86.2408 80.1439C88.7168 88.9243 87.7105 96.8109 83.4822 101.767C80.6331 105.105 76.4726 106.87 71.5997 106.87Z" fill="#92DEED"/>
<path d="M92.5042 118.683C83.3125 105.218 83.4934 92.7488 93.0129 85.3375L93.273 85.6769C83.9683 92.9298 83.81 105.184 92.8547 118.445L92.5042 118.683Z" fill="#92DEED"/>
<path d="M47.394 67.6748L47.3035 67.3693C45.0989 59.5393 45.992 52.5127 49.7682 48.0886C49.8134 48.032 49.8699 47.9754 49.9152 47.9188C49.4742 47.5794 48.9881 47.2513 48.4906 46.9231L48.4228 46.8779L48.4002 46.7987C44.0588 31.399 45.8112 17.5947 53.2278 8.91617C59.0503 2.09325 68.0271 -0.973101 78.485 0.282859L78.6772 0.305489V0.497844C78.1684 20.4009 72.2102 36.6944 62.7586 44.0604L62.6908 44.117H62.6003C57.671 43.5173 53.42 44.8525 50.537 47.8736C53.3521 50.1366 54.901 52.7503 55.0367 55.5451C55.2289 59.4375 52.6625 63.5674 47.6314 67.4937L47.3827 67.6861L47.394 67.6748ZM50.2543 48.1791C50.1978 48.2357 50.1526 48.3036 50.0961 48.3601C46.4669 52.6146 45.5737 59.3696 47.6314 66.9393C52.3798 63.1714 54.788 59.2338 54.6184 55.5564C54.494 52.8861 52.9904 50.3742 50.2543 48.1904V48.1791ZM48.7846 46.6063C49.282 46.9231 49.7569 47.2626 50.2091 47.602C53.1712 44.4791 57.524 43.0874 62.5664 43.6644C71.8598 36.3663 77.7049 20.3217 78.2476 0.678883C68.0158 -0.497873 59.2425 2.52322 53.5443 9.19905C46.2408 17.7532 44.511 31.3877 48.7846 46.6063Z" fill="#92DEED"/>
<path d="M52.4138 46.2668L52.1537 45.9274C61.4924 38.6519 63.6065 23.3201 57.8293 4.91066L58.2363 4.78619C64.0701 23.3654 61.8994 38.8782 52.4138 46.2668Z" fill="#92DEED"/>
<path d="M92.3799 73.0607L92.2894 72.7552C88.2419 58.4305 74.935 45.588 62.6116 44.1057L62.0916 44.0491L62.4986 43.7323C71.8598 36.4342 77.7501 20.2764 78.2476 0.497868V0.260254L78.485 0.282884C103.053 3.22477 129.599 28.8079 137.648 57.3216L137.716 57.5592L137.467 57.5932C118.768 59.8448 102.001 65.5589 92.6286 72.8683L92.3799 73.0607ZM63.1656 43.7436C75.4098 45.5088 88.4906 58.1702 92.6173 72.3252C102.058 65.095 118.666 59.4488 137.174 57.1858C129.112 29.0116 102.951 3.77921 78.6772 0.735482C78.1345 20.2538 72.3572 36.2645 63.1656 43.7436Z" fill="#92DEED"/>
<path d="M75.1159 48.9825L74.8558 48.643C84.2397 41.3336 94.641 26.9296 102.679 10.1156L103.064 10.2966C95.0028 27.1559 84.5562 41.6164 75.1159 48.9712V48.9825Z" fill="#92DEED"/>
<path d="M85.8338 59.313L85.5737 58.9736C94.9802 51.6415 109.316 40.9715 123.912 30.4373L124.16 30.788C109.576 41.3109 95.2515 51.9809 85.8338 59.313Z" fill="#92DEED"/>
<path d="M112.041 104.12C110.582 104.12 109.079 104.03 107.552 103.849H107.462L107.405 103.769C101.899 96.7995 95.7942 92.9411 89.8022 92.3866C86.8287 95.5435 82.4308 96.9352 77.3318 96.3356L76.8118 96.279L77.2188 95.9622C81.1193 92.9184 85.3477 91.6059 89.6326 91.9454C89.723 91.8548 89.8022 91.753 89.8926 91.6512C93.5783 87.3402 94.4375 80.4607 92.2668 72.7665L92.2216 72.6307L92.3347 72.5402C101.775 65.1855 118.621 59.4375 137.388 57.1745L137.569 57.1519L137.614 57.3329C141.956 72.7326 140.204 86.5368 132.787 95.2154C127.812 101.043 120.543 104.132 112.007 104.132L112.041 104.12ZM107.688 103.43C117.965 104.641 126.772 101.62 132.493 94.9212C139.785 86.3897 141.526 72.8004 137.275 57.6158C118.722 59.8788 102.103 65.5362 92.7304 72.7778C94.8898 80.5512 93.9853 87.5212 90.2318 91.9227C90.2092 91.9454 90.1979 91.968 90.1752 91.9793C96.1447 92.6469 102.205 96.5166 107.688 103.43ZM77.931 95.9622C82.5212 96.3808 86.4896 95.1135 89.2482 92.3414C85.3477 92.1038 81.5037 93.3031 77.931 95.9622Z" fill="#92DEED"/>
<path d="M93.273 85.6769L93.013 85.3374C102.476 77.9601 119.582 76.8851 138.79 82.4747L138.666 82.8934C119.593 77.349 102.634 78.39 93.273 85.6882V85.6769Z" fill="#92DEED"/>
<path d="M86.6704 95.7585L86.2634 95.6228C86.433 94.9891 86.4895 93.9821 86.4217 92.6356C86.3538 91.2891 86.1616 90.3047 85.9129 88.9583C85.7546 88.0983 85.4946 87.0573 85.2685 86.3332C84.7597 84.6812 84.0814 82.7463 83.5613 81.3885C83.3917 80.9473 81.8089 77.2812 80.6218 75.2445C79.6495 73.5699 78.2249 71.273 77.0831 69.5305C76.5291 68.6818 75.7264 67.6182 75.0141 66.7017C74.0983 65.5023 73.3861 64.6311 72.8547 64.0314C70.944 61.8929 69.4064 60.2522 68.2758 59.1433C67.6314 58.5097 66.7043 57.6384 65.9581 57.0161L65.2911 56.4617C64.7371 55.9978 64.1379 55.4886 63.6291 55.0926C63.1317 54.6966 62.4759 54.2213 61.8993 53.7914L61.3453 53.384C61.3453 53.384 58.5189 51.3021 54.901 49.6275C54.0079 49.2201 51.7241 48.2244 49.7117 47.9868C49.3725 47.9415 49.2255 47.9415 49.0785 47.9528L49.0446 47.5229C49.3273 47.4889 50.3448 47.3079 51.5884 46.3348C54.4827 44.0831 58.3041 43.1666 62.6342 43.6758C75.1158 45.1694 88.5924 58.1589 92.6738 72.6308C95.2402 81.7054 93.6235 89.5693 88.3663 93.6653C87.9253 94.0387 87.6653 94.2537 87.3374 94.661C86.8852 95.2041 86.7156 95.5775 86.6478 95.7585H86.6704ZM50.243 47.6247C52.1876 47.9528 54.2566 48.8467 55.0932 49.2314C58.745 50.9287 61.5828 53.0219 61.6054 53.0446L62.1594 53.4519C62.736 53.8819 63.3917 54.3571 63.9005 54.7531C64.4092 55.1492 65.0084 55.6583 65.5737 56.1336L66.2295 56.688C66.987 57.3216 67.9253 58.2042 68.5698 58.8378C69.7004 59.9467 71.2493 61.5987 73.1712 63.7372C73.7139 64.3482 74.4262 65.2308 75.3533 66.4415C76.0655 67.3693 76.8682 68.4329 77.4335 69.3042C78.5867 71.058 80.0113 73.3662 80.9836 75.0409C82.1933 77.1341 83.7761 80.7775 83.9457 81.2528C84.4658 82.6106 85.1441 84.5567 85.6642 86.22C85.8903 86.9555 86.1503 88.0191 86.3086 88.8677C86.5686 90.2595 86.7608 91.2552 86.8287 92.6356C86.8739 93.405 86.8739 94.0839 86.8287 94.6384C86.8852 94.5592 86.9417 94.48 87.0096 94.4007C87.3714 93.9595 87.654 93.7219 88.0836 93.3598C93.2165 89.3543 94.7767 81.6601 92.2555 72.7552C88.208 58.4305 74.901 45.588 62.5777 44.1058C58.3606 43.5966 54.641 44.4905 51.8372 46.6743C51.2266 47.1382 50.6727 47.4437 50.2091 47.6247H50.243Z" fill="#92DEED"/>
<path d="M2.40812 82.8708L2.36289 82.6898C-1.98985 67.2901 -0.237446 53.4858 7.17917 44.8073C13.013 37.9843 21.9898 34.9067 32.4477 36.1626H32.5381L32.5947 36.2418C38.1006 43.2232 44.2057 47.0703 50.1978 47.6247C53.1713 44.4678 57.5692 43.0648 62.6681 43.6758L63.1882 43.7323L62.7812 44.0492C58.8807 47.0929 54.6636 48.4054 50.3674 48.066C50.277 48.1565 50.1978 48.2583 50.1074 48.3602C46.4217 52.6712 45.5624 59.5507 47.7332 67.2448L47.7784 67.3806L47.6653 67.4711C38.225 74.8259 21.3793 80.5739 2.61162 82.8368L2.43073 82.8595L2.40812 82.8708ZM27.9706 36.321C19.559 36.321 12.4025 39.3648 7.51835 45.0901C0.214786 53.6216 -1.52631 67.2109 2.71337 82.3956C21.2662 80.1326 37.8858 74.4751 47.2583 67.2335C45.0989 59.4601 46.0034 52.4901 49.7569 48.0886C49.7795 48.066 49.7908 48.0433 49.8134 48.0207C43.844 47.3531 37.784 43.4834 32.3007 36.57C30.8196 36.4002 29.3725 36.3097 27.9593 36.3097L27.9706 36.321ZM50.7518 47.67C54.641 47.8963 58.4963 46.7082 62.0689 44.0492C57.4788 43.6192 53.5104 44.8978 50.7518 47.67Z" fill="#92DEED"/>
<path d="M19.8417 79.4423C16.6196 68.0255 17.9197 57.7855 23.4257 51.3473C27.7558 46.2782 34.4149 44.0039 42.182 44.9317L42.1368 45.3617C34.5167 44.4452 27.9932 46.6742 23.7535 51.6302C18.3493 57.9552 17.0718 68.0595 20.26 79.3292L19.8417 79.4423Z" fill="#92DEED"/>
<path d="M35.3307 74.2262C32.8547 65.4458 33.8609 57.5592 38.0893 52.6033C41.4245 48.6996 46.546 46.9458 52.5381 47.6586L52.4929 48.0886C46.6591 47.3984 41.6619 49.0957 38.4285 52.8862C34.2905 57.729 33.3182 65.4684 35.749 74.113L35.3307 74.2262Z" fill="#92DEED"/>
<path d="M38.6659 50.6684C30.7179 50.6684 21.4245 47.3645 11.8711 40.9036L12.1085 40.5529C27.8462 51.1889 42.8151 53.203 52.1537 45.9275L52.4138 46.2669C48.6263 49.2201 43.9457 50.6684 38.6659 50.6684Z" fill="#92DEED"/>
<path d="M91.758 93.7331L91.2832 93.4276C87.3035 90.9044 85.1215 87.8041 84.9519 84.4549C84.8841 82.95 85.2233 81.4111 85.9468 79.861C79.3669 66.6564 69.1464 54.9228 57.7049 46.9684C49.3725 50.2271 40.1809 46.5611 32.2442 36.5021L31.9163 36.0947L32.4364 36.1513C40.9158 37.1696 49.6325 40.881 57.7501 46.4819C59.3669 45.8256 60.9497 44.9091 62.4873 43.7097L62.5551 43.6531H62.6455C75.1272 45.158 88.6037 58.1476 92.6851 72.6194L92.7303 72.7552L92.6173 72.8457C89.6665 75.154 87.5749 77.5188 86.4217 79.8497C88.5585 84.1607 90.3109 88.6301 91.5998 93.1787L91.7467 93.7218L91.758 93.7331ZM86.2069 80.3588C85.6077 81.7393 85.325 83.1084 85.3929 84.4435C85.5398 87.4986 87.4844 90.3726 91.0458 92.76C89.8134 88.5396 88.1854 84.387 86.2182 80.3702L86.2069 80.3588ZM58.1911 46.776C69.5195 54.7192 79.6269 66.3283 86.2069 79.3858C87.394 77.1115 89.429 74.8258 92.2555 72.6081C88.1741 58.3739 74.9576 45.6332 62.7021 44.117C61.2436 45.2485 59.7286 46.1424 58.1911 46.7874V46.776ZM32.9225 36.6378C40.5653 46.1085 49.3273 49.6048 57.2866 46.6629C49.4743 41.3109 41.0967 37.7241 32.9225 36.6378Z" fill="#92DEED"/>
<path d="M85.6077 87.3063C79.6834 66.3283 60.1809 47.5115 42.1255 45.3504L42.1707 44.9204C60.3844 47.0929 80.0452 66.0568 86.0147 87.1818L85.5964 87.2949L85.6077 87.3063Z" fill="#92DEED"/>
<path d="M85.8338 80.2683C81.2888 64.1785 66.3312 49.7406 52.4929 48.0886L52.5381 47.6586C66.5348 49.3332 81.6619 63.9069 86.2408 80.1439L85.8225 80.257L85.8338 80.2683Z" fill="#92DEED"/>
<path d="M64.251 53.8592C63.3804 53.8592 62.5664 53.7234 61.8202 53.4519C59.2651 52.524 57.4675 49.9895 56.6309 46.1424L57.0492 46.0519C57.8519 49.7519 59.5591 52.1733 61.9672 53.0558C65.2007 54.2326 69.6665 52.7051 74.8672 48.6543L75.1272 48.9938C70.9893 52.2185 67.2809 53.8705 64.251 53.8705V53.8592Z" fill="#92DEED"/>
<path d="M66.0034 140C64.5449 140 63.0412 139.91 61.515 139.728L61.3228 139.706V139.513C61.8315 119.61 67.7897 103.317 77.2413 95.9509L77.3092 95.8943H77.3996C82.329 96.494 86.58 95.1588 89.4629 92.1378C86.6478 89.8748 85.0989 87.261 84.9632 84.4662C84.771 80.5739 87.3374 76.4439 92.3685 72.5176L92.6173 72.3253L92.7077 72.6308C94.9237 80.4607 94.0192 87.4873 90.243 91.9115C90.1978 91.968 90.1413 92.0246 90.0961 92.0812C90.537 92.4206 91.0231 92.7488 91.5206 93.0769L91.5884 93.1222L91.611 93.2014C95.9525 108.601 94.2001 122.405 86.7835 131.084C81.8089 136.911 74.5393 140 66.0034 140ZM61.7637 139.321C71.9954 140.487 80.7688 137.477 86.4669 130.801C93.7705 122.247 95.5003 108.612 91.2267 93.3937C90.7292 93.0769 90.2543 92.7374 89.8021 92.398C86.84 95.5209 82.4872 96.9127 77.4449 96.3356C68.1515 103.634 62.3064 119.678 61.7637 139.321ZM92.3798 73.0607C87.6314 76.8286 85.2233 80.7662 85.3928 84.4436C85.5172 87.1139 87.0209 89.6258 89.7569 91.8096C89.8134 91.753 89.8699 91.6852 89.9152 91.6286C93.5443 87.3742 94.4375 80.6191 92.3798 73.0494V73.0607Z" fill="#92DEED"/>
<path d="M67.0096 121.896C65.9242 121.896 64.8163 121.828 63.6744 121.692L63.7196 121.262C71.3397 122.168 77.8632 119.939 82.1029 114.994C87.5071 108.669 88.7846 98.576 85.5964 87.295L86.0147 87.1818C89.2368 98.5986 87.9367 108.839 82.4307 115.277C78.7337 119.61 73.3409 121.896 67.0096 121.896Z" fill="#92DEED"/>
<path d="M71.5997 106.87C70.7631 106.87 69.9039 106.813 69.0333 106.711L69.0785 106.281C74.9123 106.983 79.9095 105.274 83.143 101.484C87.2809 96.6411 88.2532 88.9017 85.8225 80.2571L86.2408 80.1439C88.7168 88.9243 87.7105 96.8109 83.4822 101.767C80.6331 105.105 76.4726 106.87 71.5997 106.87Z" fill="#92DEED"/>
<path d="M92.5042 118.683C83.3125 105.218 83.4934 92.7488 93.0129 85.3375L93.273 85.6769C83.9683 92.9298 83.81 105.184 92.8547 118.445L92.5042 118.683Z" fill="#92DEED"/>
<path d="M47.394 67.6748L47.3035 67.3693C45.0989 59.5393 45.992 52.5127 49.7682 48.0886C49.8134 48.032 49.8699 47.9754 49.9152 47.9188C49.4742 47.5794 48.9881 47.2513 48.4906 46.9231L48.4228 46.8779L48.4002 46.7987C44.0588 31.399 45.8112 17.5947 53.2278 8.91617C59.0503 2.09325 68.0271 -0.973101 78.485 0.282859L78.6772 0.305489V0.497844C78.1684 20.4009 72.2102 36.6944 62.7586 44.0604L62.6908 44.117H62.6003C57.671 43.5173 53.42 44.8525 50.537 47.8736C53.3521 50.1366 54.901 52.7503 55.0367 55.5451C55.2289 59.4375 52.6625 63.5674 47.6314 67.4937L47.3827 67.6861L47.394 67.6748ZM50.2543 48.1791C50.1978 48.2357 50.1526 48.3036 50.0961 48.3601C46.4669 52.6146 45.5737 59.3696 47.6314 66.9393C52.3798 63.1714 54.788 59.2338 54.6184 55.5564C54.494 52.8861 52.9904 50.3742 50.2543 48.1904V48.1791ZM48.7846 46.6063C49.282 46.9231 49.7569 47.2626 50.2091 47.602C53.1712 44.4791 57.524 43.0874 62.5664 43.6644C71.8598 36.3663 77.7049 20.3217 78.2476 0.678883C68.0158 -0.497873 59.2425 2.52322 53.5443 9.19905C46.2408 17.7532 44.511 31.3877 48.7846 46.6063Z" fill="#92DEED"/>
<path d="M52.4138 46.2668L52.1537 45.9274C61.4924 38.6519 63.6065 23.3201 57.8293 4.91066L58.2363 4.78619C64.0701 23.3654 61.8994 38.8782 52.4138 46.2668Z" fill="#92DEED"/>
<path d="M92.3799 73.0607L92.2894 72.7552C88.2419 58.4305 74.935 45.588 62.6116 44.1057L62.0916 44.0491L62.4986 43.7323C71.8598 36.4342 77.7501 20.2764 78.2476 0.497868V0.260254L78.485 0.282884C103.053 3.22477 129.599 28.8079 137.648 57.3216L137.716 57.5592L137.467 57.5932C118.768 59.8448 102.001 65.5589 92.6286 72.8683L92.3799 73.0607ZM63.1656 43.7436C75.4098 45.5088 88.4906 58.1702 92.6173 72.3252C102.058 65.095 118.666 59.4488 137.174 57.1858C129.112 29.0116 102.951 3.77921 78.6772 0.735482C78.1345 20.2538 72.3572 36.2645 63.1656 43.7436Z" fill="#92DEED"/>
<path d="M75.1159 48.9825L74.8558 48.643C84.2397 41.3336 94.641 26.9296 102.679 10.1156L103.064 10.2966C95.0028 27.1559 84.5562 41.6164 75.1159 48.9712V48.9825Z" fill="#92DEED"/>
<path d="M85.8338 59.313L85.5737 58.9736C94.9802 51.6415 109.316 40.9715 123.912 30.4373L124.16 30.788C109.576 41.3109 95.2515 51.9809 85.8338 59.313Z" fill="#92DEED"/>
<path d="M112.041 104.12C110.582 104.12 109.079 104.03 107.552 103.849H107.462L107.405 103.769C101.899 96.7995 95.7942 92.9411 89.8022 92.3866C86.8287 95.5435 82.4308 96.9352 77.3318 96.3356L76.8118 96.279L77.2188 95.9622C81.1193 92.9184 85.3477 91.6059 89.6326 91.9454C89.723 91.8548 89.8022 91.753 89.8926 91.6512C93.5783 87.3402 94.4375 80.4607 92.2668 72.7665L92.2216 72.6307L92.3347 72.5402C101.775 65.1855 118.621 59.4375 137.388 57.1745L137.569 57.1519L137.614 57.3329C141.956 72.7326 140.204 86.5368 132.787 95.2154C127.812 101.043 120.543 104.132 112.007 104.132L112.041 104.12ZM107.688 103.43C117.965 104.641 126.772 101.62 132.493 94.9212C139.785 86.3897 141.526 72.8004 137.275 57.6158C118.722 59.8788 102.103 65.5362 92.7304 72.7778C94.8898 80.5512 93.9853 87.5212 90.2318 91.9227C90.2092 91.9454 90.1979 91.968 90.1752 91.9793C96.1447 92.6469 102.205 96.5166 107.688 103.43ZM77.931 95.9622C82.5212 96.3808 86.4896 95.1135 89.2482 92.3414C85.3477 92.1038 81.5037 93.3031 77.931 95.9622Z" fill="#92DEED"/>
<path d="M93.273 85.6769L93.013 85.3374C102.476 77.9601 119.582 76.8851 138.79 82.4747L138.666 82.8934C119.593 77.349 102.634 78.39 93.273 85.6882V85.6769Z" fill="#92DEED"/>
<path d="M82.9508 134.716L82.8603 134.433C77.0831 117.268 78.4398 102.717 86.4104 94.8646C86.5121 93.9142 86.433 92.7601 86.3878 92.0698C86.3199 91.1081 86.2747 90.8478 85.7885 88.3812C85.6416 87.6457 85.3928 86.6839 85.1667 85.9598C84.6806 84.4662 83.9683 82.4634 83.403 80.9925C83.0525 80.076 82.5099 78.8992 82.0689 78.0393C81.9333 77.7677 81.775 77.4735 81.6167 77.1567C81.2662 76.4778 80.9157 75.7763 80.5992 75.1992C80.2713 74.5995 79.8417 73.8867 79.4347 73.1965C79.2538 72.891 79.0729 72.5855 78.9146 72.3139C78.5641 71.7255 76.6874 68.8176 75.0254 66.7017C74.0418 65.4457 71.7467 62.5039 68.2532 59.1207C65.2233 56.1788 62.9282 54.5268 61.074 53.1916C60.9497 53.1011 57.9536 50.9513 54.3018 49.3559C52.719 48.6657 51.1023 48.1791 49.9152 48.0094C40.3504 53.78 25.9581 51.517 10.7857 41.707L10.537 41.5486L10.7744 41.3675C16.4386 36.9434 23.9344 35.1556 32.4477 36.1739C57.0152 39.1158 83.5613 64.699 91.611 93.2127C96.6421 111.056 93.4991 126.501 83.1882 134.546L82.9508 134.727V134.716ZM86.286 95.5888C78.8581 103.373 77.6597 117.438 83.1656 133.992C93.1486 126.015 96.1447 110.83 91.204 93.3032C83.1995 64.9479 56.823 39.5005 32.4025 36.5813C24.1266 35.5969 16.8343 37.2941 11.2832 41.5033C25.9355 50.906 39.8191 53.203 49.1803 47.9302C49.1464 47.9302 49.1238 47.9302 49.0898 47.9302L49.0672 47.5002C49.316 47.4776 49.7795 47.3644 50.3109 47.1155C50.8536 46.8666 51.1249 46.6742 51.611 46.3122L51.8711 46.6516L51.758 46.4932L51.8824 46.6516C51.4301 47.0024 50.9666 47.3418 50.4805 47.6473C51.645 47.8736 53.0921 48.3262 54.494 48.9485C58.1797 50.5553 61.2097 52.739 61.3454 52.8296C63.1995 54.176 65.5172 55.8393 68.5698 58.7925C72.0859 62.1984 74.3923 65.1629 75.3759 66.4188C77.0378 68.5574 78.9485 71.4879 79.2877 72.0763C79.446 72.3479 79.6269 72.6421 79.8078 72.9589C80.2148 73.6491 80.6444 74.3619 80.9836 74.9729C81.3001 75.55 81.6619 76.2515 82.0124 76.9417C82.1707 77.2472 82.3177 77.5527 82.4646 77.813C82.9056 78.6729 83.4482 79.8723 83.81 80.8002C84.3866 82.2711 85.0989 84.2852 85.585 85.79C85.8225 86.5142 86.0825 87.5099 86.2182 88.2454C86.7043 90.746 86.7608 91.0176 86.8287 92.002C86.8626 92.5903 86.9304 93.5182 86.8852 94.3894C87.2922 94.016 87.7218 93.6539 88.1515 93.3145L88.4228 93.6539C88.0723 93.9368 87.1452 94.6949 86.693 95.7585L86.286 95.6227C86.286 95.6227 86.286 95.6001 86.286 95.5888Z" fill="#92DEED"/>
<path d="M61.7524 139.751L61.515 139.728C36.9474 136.787 10.4013 111.203 2.35159 82.6897L2.28375 82.4521L2.53248 82.4182C21.2323 80.1665 37.9988 74.4524 47.3714 67.143L47.6201 66.9506L47.7106 67.2561C51.758 81.5809 65.065 94.4233 77.3883 95.9056L77.9084 95.9622L77.5014 96.279C68.1402 103.577 62.2498 119.735 61.7524 139.513V139.751ZM2.83774 82.8142C10.8988 110.988 37.0492 136.221 61.3341 139.276C61.8767 119.758 67.654 103.747 76.8457 96.2677C64.6015 94.5026 51.5206 81.8411 47.394 67.6861C37.9536 74.9164 21.3454 80.5625 2.83774 82.8255V82.8142Z" fill="#92DEED"/>
<path d="M63.6744 121.704C45.4607 119.531 25.7999 100.567 19.8304 79.4423L20.2487 79.3292C26.1729 100.307 45.6755 119.124 63.7309 121.285L63.6857 121.715L63.6744 121.704Z" fill="#92DEED"/>
<path d="M69.0333 106.711C55.0367 105.037 39.9095 90.4631 35.3307 74.2261L35.749 74.113C40.2939 90.2028 55.2515 104.641 69.0899 106.293L69.0447 106.723L69.0333 106.711Z" fill="#92DEED"/>
<path d="M37.3205 129.884L36.9361 129.703C44.9971 112.833 55.4437 98.3836 64.8841 91.0289L65.1441 91.3683C55.7603 98.6778 45.3589 113.082 37.3205 129.896V129.884Z" fill="#92DEED"/>
<path d="M2.40812 82.8708L2.36289 82.6898C-1.98985 67.2901 -0.237446 53.4858 7.17917 44.8073C13.013 37.9843 21.9898 34.9067 32.4477 36.1626H32.5381L32.5947 36.2418C38.1006 43.2232 44.2057 47.0703 50.1978 47.6247C53.1713 44.4678 57.5692 43.0648 62.6681 43.6758L63.1882 43.7323L62.7812 44.0492C58.8807 47.0929 54.6636 48.4054 50.3674 48.066C50.277 48.1565 50.1978 48.2583 50.1074 48.3602C46.4217 52.6712 45.5624 59.5507 47.7332 67.2448L47.7784 67.3806L47.6653 67.4711C38.225 74.8259 21.3793 80.5739 2.61162 82.8368L2.43073 82.8595L2.40812 82.8708ZM27.9706 36.321C19.559 36.321 12.4025 39.3648 7.51835 45.0901C0.214786 53.6216 -1.52631 67.2109 2.71337 82.3956C21.2662 80.1326 37.8858 74.4751 47.2583 67.2335C45.0989 59.4601 46.0034 52.4901 49.7569 48.0886C49.7795 48.066 49.7908 48.0433 49.8134 48.0207C43.844 47.3531 37.784 43.4834 32.3007 36.57C30.8196 36.4002 29.3725 36.3097 27.9593 36.3097L27.9706 36.321ZM50.7518 47.67C54.641 47.8963 58.4963 46.7082 62.0689 44.0492C57.4788 43.6192 53.5104 44.8978 50.7518 47.67Z" fill="#92DEED"/>
<path d="M19.8417 79.4423C16.6196 68.0255 17.9197 57.7855 23.4257 51.3473C27.7558 46.2782 34.4149 44.0039 42.182 44.9317L42.1368 45.3617C34.5167 44.4452 27.9932 46.6742 23.7535 51.6302C18.3493 57.9552 17.0718 68.0595 20.26 79.3292L19.8417 79.4423Z" fill="#92DEED"/>
<path d="M35.3307 74.2262C32.8547 65.4458 33.8609 57.5592 38.0893 52.6033C41.4245 48.6996 46.546 46.9458 52.5381 47.6586L52.4929 48.0886C46.6591 47.3984 41.6619 49.0957 38.4285 52.8862C34.2905 57.729 33.3182 65.4684 35.749 74.113L35.3307 74.2262Z" fill="#92DEED"/>
<path d="M24.104 61.0782C17.1396 61.0782 9.3612 59.9127 1.22101 57.5366L1.34537 57.1179C20.407 62.6622 37.377 61.6213 46.7383 54.3231L46.9983 54.6626C41.5489 58.9057 33.567 61.0668 24.104 61.0668V61.0782Z" fill="#92DEED"/>
<path d="M108.072 103.905L107.552 103.849C99.0729 102.83 90.3561 99.1191 82.2385 93.5182C80.6218 94.1744 79.039 95.0909 77.5014 96.2903L77.4335 96.3469H77.3431C64.8615 94.842 51.3849 81.8524 47.3035 67.3806L47.2583 67.2448L47.3714 67.1543C50.3222 64.846 52.4138 62.4812 53.5556 60.1503C51.4188 55.8393 49.6664 51.3699 48.3776 46.8213L48.2306 46.2782L48.7054 46.5837C52.6851 49.1069 54.8671 52.2072 55.0367 55.5565C55.1045 57.0614 54.7654 58.6002 54.0418 60.1503C60.6218 73.3549 70.8422 85.0885 82.2837 93.0429C90.6161 89.7955 99.8078 93.4503 107.744 103.509L108.072 103.917V103.905ZM82.7247 93.3258C90.537 98.6778 98.9146 102.265 107.089 103.351C99.446 93.8915 90.6953 90.3839 82.7247 93.3258ZM47.7671 67.3919C51.8485 81.6261 65.065 94.3668 77.3205 95.883C78.7789 94.7515 80.2939 93.8576 81.8315 93.2126C70.5031 85.2809 60.3957 73.6604 53.8157 60.6029C52.6286 62.8772 50.5935 65.1629 47.7671 67.3806V67.3919ZM48.9768 47.24C50.2091 51.4604 51.8372 55.613 53.8157 59.6298C54.4149 58.2494 54.6975 56.8803 54.6297 55.5451C54.4827 52.4901 52.5381 49.6161 48.9768 47.2287V47.24Z" fill="#92DEED"/>
<path d="M82.9621 93.9481C82.1594 90.2481 80.4635 87.8267 78.0441 86.9441C74.8106 85.7674 70.3561 87.2949 65.1441 91.3457L64.8841 91.0062C70.2091 86.8536 74.8219 85.3148 78.1911 86.5368C80.7462 87.4646 82.5438 89.9992 83.3804 93.8463L82.9621 93.9368V93.9481Z" fill="#92DEED"/>
<path d="M54.4375 81.0264L54.1775 80.687C60.9836 75.3802 63.0526 73.502 63.6744 72.8344C63.3917 72.9589 62.9282 73.2078 62.1368 73.683L61.922 73.3096C63.9231 72.1102 64.1605 72.1555 64.3188 72.3818C64.4997 72.642 64.7484 73.0041 54.4601 81.0264H54.4375Z" fill="#92DEED"/>
<path d="M47.394 67.6748L47.3035 67.3693C45.0989 59.5393 45.992 52.5127 49.7682 48.0886C49.8134 48.032 49.8699 47.9754 49.9152 47.9188C49.4742 47.5794 48.9881 47.2513 48.4906 46.9231L48.4228 46.8779L48.4002 46.7987C44.0588 31.399 45.8112 17.5947 53.2278 8.91617C59.0503 2.09325 68.0271 -0.973101 78.485 0.282859L78.6772 0.305489V0.497844C78.1684 20.4009 72.2102 36.6944 62.7586 44.0604L62.6908 44.117H62.6003C57.671 43.5173 53.42 44.8525 50.537 47.8736C53.3521 50.1366 54.901 52.7503 55.0367 55.5451C55.2289 59.4375 52.6625 63.5674 47.6314 67.4937L47.3827 67.6861L47.394 67.6748ZM50.2543 48.1791C50.1978 48.2357 50.1526 48.3036 50.0961 48.3601C46.4669 52.6146 45.5737 59.3696 47.6314 66.9393C52.3798 63.1714 54.788 59.2338 54.6184 55.5564C54.494 52.8861 52.9904 50.3742 50.2543 48.1904V48.1791ZM48.7846 46.6063C49.282 46.9231 49.7569 47.2626 50.2091 47.602C53.1712 44.4791 57.524 43.0874 62.5664 43.6644C71.8598 36.3663 77.7049 20.3217 78.2476 0.678883C68.0158 -0.497873 59.2425 2.52322 53.5443 9.19905C46.2408 17.7532 44.511 31.3877 48.7846 46.6063Z" fill="#92DEED"/>
<path d="M46.9983 54.6739L46.7382 54.3344C56.0429 47.0815 56.2012 34.8274 47.1565 21.5663L47.507 21.3287C56.6987 34.7935 56.5178 47.2626 46.9983 54.6739Z" fill="#92DEED"/>
<path d="M61.7524 139.751L61.515 139.728C36.9474 136.787 10.4014 111.203 2.35161 82.6898C-2.69079 64.8461 0.463533 49.4011 10.7744 41.3562L10.8988 41.2657L11.0232 41.3449C27.1001 51.7433 42.2612 53.599 51.5998 46.3235L51.8598 46.6629C46.7496 50.6458 45.1894 58.34 47.7106 67.2448C51.7581 81.5696 65.065 94.412 77.3884 95.8943L77.9084 95.9509L77.5014 96.2677C68.1402 103.566 62.2499 119.724 61.7524 139.502V139.74V139.751ZM10.9214 41.7975C0.847931 49.7406 -2.20464 64.9705 2.76992 82.5766C10.7518 110.841 36.9813 136.221 61.3341 139.276C61.8768 119.758 67.654 103.747 76.8457 96.2677C64.511 94.4913 51.3397 81.6601 47.3036 67.3806C45.0763 59.4828 46.0034 52.5128 49.7343 48.1339C40.1922 53.7461 25.9469 51.4831 10.9214 41.8088V41.7975Z" fill="#92DEED"/>
<path d="M66.0034 140C64.5449 140 63.0412 139.909 61.515 139.728L61.3228 139.706V139.513C61.8315 119.61 67.7897 103.317 77.2413 95.9508L77.3092 95.8943H77.3996C82.329 96.494 86.58 95.1588 89.4629 92.1377C86.6478 89.8747 85.0989 87.2609 84.9632 84.4662C84.771 80.5738 87.3374 76.4438 92.3685 72.5175L92.6173 72.3252L92.7077 72.6307C94.9237 80.4607 94.0192 87.4872 90.243 91.9114C90.1978 91.968 90.1413 92.0245 90.0961 92.0811C90.537 92.4206 91.0231 92.7487 91.5206 93.0768L91.5884 93.1221L91.611 93.2013C95.9525 108.601 94.2001 122.405 86.7835 131.084C81.8089 136.911 74.5393 140 66.0034 140ZM61.7637 139.321C71.9954 140.487 80.7688 137.477 86.4669 130.801C93.7705 122.247 95.5003 108.612 91.2267 93.3937C90.7292 93.0768 90.2543 92.7374 89.8021 92.3979C86.84 95.5209 82.4872 96.9126 77.4449 96.3355C68.1515 103.634 62.3064 119.678 61.7637 139.321ZM92.3798 73.0607C87.6314 76.8286 85.2233 80.7662 85.3928 84.4435C85.5172 87.1138 87.0209 89.6258 89.7569 91.8096C89.8134 91.753 89.8699 91.6851 89.9152 91.6285C93.5443 87.3741 94.4375 80.6191 92.3798 73.0494V73.0607Z" fill="#92DEED"/>
<path d="M67.0096 121.896C65.9242 121.896 64.8163 121.828 63.6744 121.692L63.7196 121.262C71.3397 122.168 77.8632 119.939 82.1029 114.994C87.5071 108.669 88.7846 98.5759 85.5964 87.2949L86.0147 87.1818C89.2368 98.5986 87.9367 108.839 82.4307 115.277C78.7337 119.61 73.3409 121.896 67.0096 121.896Z" fill="#92DEED"/>
<path d="M71.5997 106.87C70.7631 106.87 69.9039 106.813 69.0333 106.711L69.0785 106.281C74.9123 106.983 79.9095 105.274 83.143 101.484C87.2809 96.6411 88.2532 88.9016 85.8225 80.257L86.2408 80.1439C88.7168 88.9243 87.7105 96.8108 83.4822 101.767C80.6331 105.105 76.4726 106.87 71.5997 106.87Z" fill="#92DEED"/>
<path d="M81.7637 135.214C75.9186 116.635 78.1006 101.122 87.5862 93.7331L87.8462 94.0725C78.5076 101.348 76.3934 116.68 82.1707 135.089L81.7637 135.214Z" fill="#92DEED"/>
<path d="M112.041 104.12C110.582 104.12 109.079 104.03 107.552 103.849H107.462L107.405 103.769C101.899 96.7995 95.7942 92.9411 89.8021 92.3866C86.8287 95.5435 82.4307 96.9352 77.3318 96.3356L76.8117 96.279L77.2187 95.9622C81.1192 92.9184 85.3476 91.6059 89.6325 91.9454C89.723 91.8548 89.8021 91.753 89.8925 91.6512C93.5782 87.3402 94.4375 80.4607 92.2668 72.7665L92.2215 72.6307L92.3346 72.5402C101.775 65.1855 118.621 59.4375 137.388 57.1745L137.569 57.1519L137.614 57.3329C141.956 72.7326 140.203 86.5368 132.787 95.2154C127.812 101.043 120.543 104.132 112.007 104.132L112.041 104.12ZM107.688 103.43C117.965 104.641 126.772 101.62 132.493 94.9212C139.785 86.3897 141.526 72.8004 137.275 57.6158C118.722 59.8788 102.103 65.5362 92.7303 72.7778C94.8897 80.5512 93.9852 87.5212 90.2317 91.9227C90.2091 91.9454 90.1978 91.968 90.1752 91.9793C96.1447 92.6469 102.205 96.5166 107.688 103.43ZM77.931 95.9622C82.5211 96.3808 86.4895 95.1135 89.2481 92.3414C85.3476 92.1038 81.5036 93.3031 77.931 95.9622Z" fill="#92DEED"/>
<path d="M127.891 99.4472C112.154 88.8111 97.1848 86.797 87.8462 94.0725L87.5862 93.7331C97.0718 86.3331 112.233 88.3359 128.129 99.0851L127.891 99.4358V99.4472Z" fill="#92DEED"/>
<path d="M66.0486 140C64.5788 140 63.0638 139.909 61.515 139.728L61.3228 139.706V139.513C61.8315 119.61 67.7897 103.317 77.2413 95.9509L77.3092 95.8943H77.3996C81.628 96.4035 85.3363 95.5209 88.1402 93.3371L88.4002 93.6765C79.0616 100.952 77.1396 116.137 83.256 134.297L83.3013 134.444L83.1769 134.535C78.5415 138.156 72.6738 140.011 66.0373 140.011L66.0486 140ZM61.7637 139.321C70.0169 140.26 77.2866 138.529 82.8038 134.275C77.1283 117.302 78.4285 102.898 86.2295 95.023C83.7196 96.2564 80.7235 96.709 77.4449 96.3242C68.1515 103.622 62.3064 119.667 61.7637 139.31V139.321Z" fill="#92DEED"/>
<path d="M61.7524 139.751L61.515 139.728C36.9474 136.787 10.4013 111.203 2.35159 82.6897L2.28375 82.4521L2.53248 82.4182C21.2323 80.1665 37.9988 74.4524 47.3714 67.143L47.6201 66.9506L47.7106 67.2561C51.758 81.5809 65.065 94.4233 77.3883 95.9056L77.9084 95.9622L77.5014 96.279C68.1402 103.577 62.2498 119.735 61.7524 139.513V139.751ZM2.83774 82.8142C10.8988 110.988 37.0492 136.221 61.3341 139.276C61.8767 119.758 67.654 103.747 76.8457 96.2677C64.6015 94.5026 51.5206 81.8411 47.394 67.6861C37.9536 74.9164 21.3454 80.5625 2.83774 82.8255V82.8142Z" fill="#92DEED"/>
<path d="M37.3205 129.884L36.9361 129.703C44.9971 112.833 55.4437 98.3836 64.8841 91.0289L65.1441 91.3683C55.7603 98.6778 45.3589 113.082 37.3205 129.896V129.884Z" fill="#92DEED"/>
<path d="M2.40812 82.8708L2.36289 82.6898C-1.98985 67.2901 -0.237446 53.4858 7.17917 44.8073C13.013 37.9843 21.9898 34.9067 32.4477 36.1626H32.5381L32.5947 36.2418C38.1006 43.2232 44.2057 47.0703 50.1978 47.6247C53.1713 44.4678 57.5692 43.0648 62.6681 43.6758L63.1882 43.7323L62.7812 44.0492C58.8807 47.0929 54.6636 48.4054 50.3674 48.066C50.277 48.1565 50.1978 48.2583 50.1074 48.3602C46.4217 52.6712 45.5624 59.5507 47.7332 67.2448L47.7784 67.3806L47.6653 67.4711C38.225 74.8259 21.3793 80.5739 2.61162 82.8368L2.43073 82.8595L2.40812 82.8708ZM27.9706 36.321C19.559 36.321 12.4025 39.3648 7.51835 45.0901C0.214786 53.6216 -1.52631 67.2109 2.71337 82.3956C21.2662 80.1326 37.8858 74.4751 47.2583 67.2335C45.0989 59.4601 46.0034 52.4901 49.7569 48.0886C49.7795 48.066 49.7908 48.0433 49.8134 48.0207C43.844 47.3531 37.784 43.4834 32.3007 36.57C30.8196 36.4002 29.3725 36.3097 27.9593 36.3097L27.9706 36.321ZM50.7518 47.67C54.641 47.8963 58.4963 46.7082 62.0689 44.0492C57.4788 43.6192 53.5104 44.8978 50.7518 47.67Z" fill="#92DEED"/>
<path d="M24.104 61.0782C17.1396 61.0782 9.3612 59.9127 1.22101 57.5366L1.34537 57.1179C20.407 62.6622 37.377 61.6213 46.7383 54.3231L46.9983 54.6626C41.5489 58.9057 33.567 61.0668 24.104 61.0668V61.0782Z" fill="#92DEED"/>
<path d="M108.072 103.905L107.552 103.849C99.0729 102.83 90.3561 99.1191 82.2385 93.5182C80.6218 94.1744 79.039 95.0909 77.5014 96.2903L77.4335 96.3469H77.3431C64.8615 94.842 51.3849 81.8524 47.3035 67.3806L47.2583 67.2448L47.3714 67.1543C50.3222 64.846 52.4138 62.4812 53.5556 60.1503C51.4188 55.8393 49.6664 51.3699 48.3776 46.8213L48.2306 46.2782L48.7054 46.5837C52.6851 49.1069 54.8671 52.2072 55.0367 55.5565C55.1045 57.0614 54.7654 58.6002 54.0418 60.1503C60.6218 73.3549 70.8422 85.0885 82.2837 93.0429C90.6161 89.7955 99.8078 93.4503 107.744 103.509L108.072 103.917V103.905ZM82.7247 93.3258C90.537 98.6778 98.9146 102.265 107.089 103.351C99.446 93.8915 90.6953 90.3839 82.7247 93.3258ZM47.7671 67.3919C51.8485 81.6261 65.065 94.3668 77.3205 95.883C78.7789 94.7515 80.2939 93.8576 81.8315 93.2126C70.5031 85.2809 60.3957 73.6604 53.8157 60.6029C52.6286 62.8772 50.5935 65.1629 47.7671 67.3806V67.3919ZM48.9768 47.24C50.2091 51.4604 51.8372 55.613 53.8157 59.6298C54.4149 58.2494 54.6975 56.8803 54.6297 55.5451C54.4827 52.4901 52.5381 49.6161 48.9768 47.2287V47.24Z" fill="#92DEED"/>
<path d="M87.4618 92.3414C73.4652 90.6668 58.338 76.0931 53.7592 59.8561L54.1775 59.743C58.7224 75.8329 73.68 90.2707 87.5183 91.9227L87.4731 92.3527L87.4618 92.3414Z" fill="#92DEED"/>
<path d="M97.8293 95.0796C79.6156 92.9071 59.9548 73.9433 53.9853 52.8182L54.4036 52.7051C60.3279 73.683 79.8304 92.4998 97.8858 94.6609L97.8406 95.0909L97.8293 95.0796Z" fill="#92DEED"/>
<path d="M82.9621 93.9481C82.1594 90.2481 80.4635 87.8267 78.0441 86.9441C74.8106 85.7674 70.3561 87.2949 65.1441 91.3457L64.8841 91.0062C70.2091 86.8536 74.8219 85.3148 78.1911 86.5368C80.7462 87.4646 82.5438 89.9992 83.3804 93.8463L82.9621 93.9368V93.9481Z" fill="#92DEED"/>
<path d="M47.394 67.6748L47.3035 67.3693C45.0989 59.5393 45.992 52.5127 49.7682 48.0886C49.8134 48.032 49.8699 47.9754 49.9152 47.9188C49.4742 47.5794 48.9881 47.2513 48.4906 46.9231L48.4228 46.8779L48.4002 46.7987C44.0588 31.399 45.8112 17.5947 53.2278 8.91617C59.0503 2.09325 68.0271 -0.973101 78.485 0.282859L78.6772 0.305489V0.497844C78.1684 20.4009 72.2102 36.6944 62.7586 44.0604L62.6908 44.117H62.6003C57.671 43.5173 53.42 44.8525 50.537 47.8736C53.3521 50.1366 54.901 52.7503 55.0367 55.5451C55.2289 59.4375 52.6625 63.5674 47.6314 67.4937L47.3827 67.6861L47.394 67.6748ZM50.2543 48.1791C50.1978 48.2357 50.1526 48.3036 50.0961 48.3601C46.4669 52.6146 45.5737 59.3696 47.6314 66.9393C52.3798 63.1714 54.788 59.2338 54.6184 55.5564C54.494 52.8861 52.9904 50.3742 50.2543 48.1904V48.1791ZM48.7846 46.6063C49.282 46.9231 49.7569 47.2626 50.2091 47.602C53.1712 44.4791 57.524 43.0874 62.5664 43.6644C71.8598 36.3663 77.7049 20.3217 78.2476 0.678883C68.0158 -0.497873 59.2425 2.52322 53.5443 9.19905C46.2408 17.7532 44.511 31.3877 48.7846 46.6063Z" fill="#92DEED"/>
<path d="M53.7591 59.8561C51.2832 51.0757 52.2894 43.1892 56.5178 38.2332C59.853 34.3296 64.9858 32.5757 70.9666 33.2886L70.9214 33.7186C65.0989 33.017 60.0904 34.7256 56.8456 38.5161C52.7077 43.3589 51.7354 51.0983 54.1774 59.743L53.7591 59.8561Z" fill="#92DEED"/>
<path d="M53.9853 52.8182C50.7631 41.4014 52.0633 31.1614 57.5692 24.7232C61.8993 19.6541 68.5585 17.3684 76.3256 18.3076L76.2804 18.7376C68.6602 17.821 62.1368 20.0501 57.8971 25.006C52.4929 31.3311 51.2153 41.4354 54.4036 52.7051L53.9853 52.8182Z" fill="#92DEED"/>
<path d="M46.9983 54.6739L46.7382 54.3344C56.0429 47.0815 56.2012 34.8274 47.1565 21.5663L47.507 21.3287C56.6987 34.7935 56.5178 47.2626 46.9983 54.6739Z" fill="#92DEED"/>
<path d="M77.4336 96.3356H77.3431C64.8615 94.8307 51.385 81.8411 47.3036 67.3693C44.7371 58.2947 46.3539 50.4308 51.6111 46.3348C51.9503 46.0519 52.8773 45.3051 53.3409 44.2415L53.7479 44.3886C53.4652 45.407 53.5783 47.0589 53.6348 47.9528C53.7027 48.9146 53.7366 49.1296 54.234 51.6528C54.3697 52.377 54.6297 53.3387 54.8558 54.0742C55.342 55.5678 56.0543 57.5705 56.6196 59.0415C56.97 59.9354 57.5014 61.1234 57.9536 61.9947C58.0893 62.2662 58.2476 62.5604 58.4059 62.8659C58.7564 63.5448 59.1068 64.2464 59.4234 64.8234C59.7513 65.4231 60.1809 66.136 60.5992 66.8262C60.7801 67.1317 60.961 67.4372 61.1193 67.7087C61.1306 67.7314 62.6003 70.1867 65.0085 73.321C65.9356 74.5317 66.6478 75.4142 67.1905 76.0252C68.5359 77.5301 70.3787 79.4989 71.7694 80.902C73.3409 82.4861 76.4613 85.0093 76.7778 85.2469C78.0215 86.1748 79.7513 87.3628 81.0627 88.2228C81.7185 88.6527 82.6343 89.1732 83.3465 89.5353C85.0989 90.4179 85.6868 90.7121 87.0322 91.1986C87.5975 91.4023 88.3211 91.6286 88.8298 91.7643C89.2595 91.8775 89.8587 91.9793 90.2883 92.0472L90.2318 92.4772C85.7547 91.9454 81.4697 93.2353 77.5127 96.313L77.4449 96.3695L77.4336 96.3356ZM53.1487 45.3843C52.6738 46.018 52.1198 46.4706 51.8711 46.6742C46.7496 50.6571 45.2007 58.3626 47.7106 67.2561C51.7467 81.5469 65.0085 94.3668 77.3092 95.8943C80.6218 93.3371 84.1492 92.002 87.8462 91.9114C87.5184 91.8096 87.1792 91.6965 86.8739 91.5833C85.5059 91.0855 84.9067 90.7913 83.143 89.8974C82.4194 89.5353 81.4811 89.0035 80.814 88.5622C79.4912 87.7023 77.7614 86.4916 76.5065 85.5638C76.1899 85.3261 73.0243 82.7803 71.4415 81.1849C70.0396 79.7705 68.1967 77.8017 66.84 76.2855C66.286 75.6632 65.5625 74.7693 64.6354 73.5586C62.2272 70.4243 60.7349 67.9237 60.7236 67.9011C60.5653 67.6295 60.3844 67.3354 60.2035 67.0298C59.7852 66.3396 59.3669 65.6155 59.0277 65.0045C58.7111 64.4274 58.3493 63.7259 57.9989 63.0357C57.8406 62.7302 57.6936 62.4247 57.5466 62.1644C57.0944 61.2932 56.5517 60.0825 56.2012 59.1773C55.6246 57.7063 54.9124 55.6923 54.4262 54.1874C54.1888 53.4519 53.9288 52.4562 53.7931 51.732C53.2956 49.1748 53.2504 48.9599 53.1826 47.9755C53.1374 47.3305 53.0695 46.3122 53.1374 45.3843H53.1487Z" fill="#92DEED"/>
<path d="M61.7524 139.751L61.515 139.728C36.9474 136.787 10.4013 111.203 2.35159 82.6897L2.28375 82.4521L2.53248 82.4182C21.2323 80.1665 37.9988 74.4524 47.3714 67.143L47.6201 66.9506L47.7106 67.2561C51.758 81.5809 65.065 94.4233 77.3883 95.9056L77.9084 95.9622L77.5014 96.279C68.1402 103.577 62.2498 119.735 61.7524 139.513V139.751ZM2.83774 82.8142C10.8988 110.988 37.0492 136.221 61.3341 139.276C61.8767 119.758 67.654 103.747 76.8457 96.2677C64.6015 94.5026 51.5206 81.8411 47.394 67.6861C37.9536 74.9164 21.3454 80.5625 2.83774 82.8255V82.8142Z" fill="#92DEED"/>
<path d="M37.3205 129.884L36.9361 129.703C44.9971 112.833 55.4437 98.3836 64.8841 91.0289L65.1441 91.3683C55.7603 98.6778 45.3589 113.082 37.3205 129.896V129.884Z" fill="#92DEED"/>
<path d="M16.0995 109.563L15.8508 109.212C30.424 98.7004 44.7484 88.0304 54.1775 80.687L54.4375 81.0265C45.0085 88.3699 30.684 99.0399 16.0995 109.563Z" fill="#92DEED"/>
<path d="M2.40812 82.8708L2.36289 82.6898C-1.98985 67.2901 -0.237446 53.4858 7.17917 44.8073C13.013 37.9843 21.9898 34.9067 32.4477 36.1626H32.5381L32.5947 36.2418C38.1006 43.2232 44.2057 47.0703 50.1978 47.6247C53.1713 44.4678 57.5692 43.0648 62.6681 43.6758L63.1882 43.7323L62.7812 44.0492C58.8807 47.0929 54.6636 48.4054 50.3674 48.066C50.277 48.1565 50.1978 48.2583 50.1074 48.3602C46.4217 52.6712 45.5624 59.5507 47.7332 67.2448L47.7784 67.3806L47.6653 67.4711C38.225 74.8259 21.3793 80.5739 2.61162 82.8368L2.43073 82.8595L2.40812 82.8708ZM27.9706 36.321C19.559 36.321 12.4025 39.3648 7.51835 45.0901C0.214786 53.6216 -1.52631 67.2109 2.71337 82.3956C21.2662 80.1326 37.8858 74.4751 47.2583 67.2335C45.0989 59.4601 46.0034 52.4901 49.7569 48.0886C49.7795 48.066 49.7908 48.0433 49.8134 48.0207C43.844 47.3531 37.784 43.4834 32.3007 36.57C30.8196 36.4002 29.3725 36.3097 27.9593 36.3097L27.9706 36.321ZM50.7518 47.67C54.641 47.8963 58.4963 46.7082 62.0689 44.0492C57.4788 43.6192 53.5104 44.8978 50.7518 47.67Z" fill="#92DEED"/>
<path d="M24.104 61.0782C17.1396 61.0782 9.3612 59.9127 1.22101 57.5366L1.34537 57.1179C20.407 62.6622 37.377 61.6213 46.7383 54.3231L46.9983 54.6626C41.5489 58.9057 33.567 61.0668 24.104 61.0668V61.0782Z" fill="#92DEED"/>
<path d="M108.072 103.905L107.552 103.849C99.0729 102.83 90.3561 99.1191 82.2385 93.5182C80.6218 94.1744 79.039 95.0909 77.5014 96.2903L77.4335 96.3469H77.3431C64.8615 94.842 51.3849 81.8524 47.3035 67.3806L47.2583 67.2448L47.3714 67.1543C50.3222 64.846 52.4138 62.4812 53.5556 60.1503C51.4188 55.8393 49.6664 51.3699 48.3776 46.8213L48.2306 46.2782L48.7054 46.5837C52.6851 49.1069 54.8671 52.2072 55.0367 55.5565C55.1045 57.0614 54.7654 58.6002 54.0418 60.1503C60.6218 73.3549 70.8422 85.0885 82.2837 93.0429C90.6161 89.7955 99.8078 93.4503 107.744 103.509L108.072 103.917V103.905ZM82.7247 93.3258C90.537 98.6778 98.9146 102.265 107.089 103.351C99.446 93.8915 90.6953 90.3839 82.7247 93.3258ZM47.7671 67.3919C51.8485 81.6261 65.065 94.3668 77.3205 95.883C78.7789 94.7515 80.2939 93.8576 81.8315 93.2126C70.5031 85.2809 60.3957 73.6604 53.8157 60.6029C52.6286 62.8772 50.5935 65.1629 47.7671 67.3806V67.3919ZM48.9768 47.24C50.2091 51.4604 51.8372 55.613 53.8157 59.6298C54.4149 58.2494 54.6975 56.8803 54.6297 55.5451C54.4827 52.4901 52.5381 49.6161 48.9768 47.2287V47.24Z" fill="#92DEED"/>
<path d="M87.4618 92.3414C73.4652 90.6668 58.338 76.0931 53.7592 59.8561L54.1775 59.743C58.7224 75.8329 73.68 90.2707 87.5183 91.9227L87.4731 92.3527L87.4618 92.3414Z" fill="#92DEED"/>
<path d="M97.8293 95.0796C79.6156 92.9071 59.9548 73.9433 53.9853 52.8182L54.4036 52.7051C60.3279 73.683 79.8304 92.4998 97.8858 94.6609L97.8406 95.0909L97.8293 95.0796Z" fill="#92DEED"/>
<path d="M82.9621 93.9481C82.1594 90.2481 80.4635 87.8267 78.0441 86.9441C74.8106 85.7674 70.3561 87.2949 65.1441 91.3457L64.8841 91.0062C70.2091 86.8536 74.8219 85.3148 78.1911 86.5368C80.7462 87.4646 82.5438 89.9992 83.3804 93.8463L82.9621 93.9368V93.9481Z" fill="#92DEED"/>
<path d="M47.394 67.6748L47.3035 67.3693C45.0989 59.5393 45.992 52.5127 49.7682 48.0886C49.8134 48.032 49.8699 47.9754 49.9152 47.9188C49.4742 47.5794 48.9881 47.2513 48.4906 46.9231L48.4228 46.8779L48.4002 46.7987C44.0588 31.399 45.8112 17.5947 53.2278 8.91617C59.0503 2.09325 68.0271 -0.973101 78.485 0.282859L78.6772 0.305489V0.497844C78.1684 20.4009 72.2102 36.6944 62.7586 44.0604L62.6908 44.117H62.6003C57.671 43.5173 53.42 44.8525 50.537 47.8736C53.3521 50.1366 54.901 52.7503 55.0367 55.5451C55.2289 59.4375 52.6625 63.5674 47.6314 67.4937L47.3827 67.6861L47.394 67.6748ZM50.2543 48.1791C50.1978 48.2357 50.1526 48.3036 50.0961 48.3601C46.4669 52.6146 45.5737 59.3696 47.6314 66.9393C52.3798 63.1714 54.788 59.2338 54.6184 55.5564C54.494 52.8861 52.9904 50.3742 50.2543 48.1904V48.1791ZM48.7846 46.6063C49.282 46.9231 49.7569 47.2626 50.2091 47.602C53.1712 44.4791 57.524 43.0874 62.5664 43.6644C71.8598 36.3663 77.7049 20.3217 78.2476 0.678883C68.0158 -0.497873 59.2425 2.52322 53.5443 9.19905C46.2408 17.7532 44.511 31.3877 48.7846 46.6063Z" fill="#92DEED"/>
<path d="M53.7591 59.8561C51.2832 51.0757 52.2894 43.1892 56.5178 38.2332C59.853 34.3296 64.9858 32.5757 70.9666 33.2886L70.9214 33.7186C65.0989 33.017 60.0904 34.7256 56.8456 38.5161C52.7077 43.3589 51.7354 51.0983 54.1774 59.743L53.7591 59.8561Z" fill="#92DEED"/>
<path d="M53.9853 52.8182C50.7631 41.4014 52.0633 31.1614 57.5692 24.7232C61.8993 19.6541 68.5585 17.3684 76.3256 18.3076L76.2804 18.7376C68.6602 17.821 62.1368 20.0501 57.8971 25.006C52.4929 31.3311 51.2153 41.4354 54.4036 52.7051L53.9853 52.8182Z" fill="#92DEED"/>
<path d="M46.9983 54.6739L46.7382 54.3344C56.0429 47.0815 56.2012 34.8274 47.1565 21.5663L47.507 21.3287C56.6987 34.7935 56.5178 47.2626 46.9983 54.6739Z" fill="#92DEED"/>
<path d="M108.072 103.905L107.552 103.849C82.9847 100.907 56.4386 75.3237 48.3889 46.81C43.3465 28.9663 46.5008 13.5101 56.8117 5.47645L57.0492 5.29541L57.1396 5.57828C62.9169 22.7431 61.5602 37.2941 53.5896 45.1467C53.4087 46.9458 53.7026 50.1932 54.7202 53.6555C55.1724 55.2057 55.896 57.2198 56.4273 58.5889C56.71 59.313 57.117 60.2069 57.4788 60.999C57.6031 61.2705 57.7275 61.5308 57.8406 61.7797C58.632 63.5222 59.4347 64.8913 61.0514 67.6295C61.0627 67.6522 62.5551 70.1528 64.9632 73.287C65.879 74.4751 66.9078 75.8216 69.3725 78.4806C71.0458 80.2796 73.2504 82.3277 74.0192 82.9726C76.416 84.9867 77.6145 85.9937 80.7575 88.0191C81.4471 88.4717 82.2838 88.9582 82.8604 89.2524C84.1944 89.9389 85.3891 90.5046 86.4443 90.9497C87.1226 91.2325 88.5359 91.753 90.2544 92.0019C96.3256 92.7261 102.363 96.6976 107.722 103.475L108.05 103.883L108.072 103.905ZM56.8457 6.00825C46.8626 13.9853 43.8553 29.17 48.8072 46.6968C56.7552 74.8485 82.8151 100.137 107.077 103.362C101.877 96.924 96.0542 93.1561 90.2204 92.4545C88.4454 92.1943 86.9983 91.6625 86.2973 91.3683C85.227 90.9232 84.0211 90.3537 82.6795 89.6597C81.9559 89.2864 81.074 88.7432 80.5314 88.4038C77.377 86.3671 76.1673 85.3487 73.7592 83.3234C72.9904 82.6784 70.7631 80.6078 69.0786 78.7974C66.6026 76.1271 65.5624 74.7693 64.6467 73.5699C62.2046 70.3904 60.7122 67.8898 60.7009 67.8671C59.0729 65.1176 58.2589 63.7372 57.4675 61.972C57.3544 61.7344 57.2414 61.4629 57.1057 61.1913C56.7326 60.3993 56.3256 59.4941 56.0429 58.7586C55.5116 57.3782 54.788 55.3415 54.3245 53.7913C53.3748 50.5779 53.0469 47.5115 53.1373 45.5993C52.7303 45.9727 52.3007 46.3348 51.8598 46.6855L51.5884 46.3461C52.0181 45.984 52.2894 45.7577 52.6286 45.3504C53.0695 44.8073 53.2504 44.4339 53.3182 44.2528L53.7252 44.3886C53.7252 44.3886 53.7252 44.4112 53.7252 44.4225C61.1532 36.6378 62.3516 22.5734 56.8457 6.00825Z" fill="#92DEED"/>
<path d="M2.40812 82.8708L2.36289 82.6898C-1.98985 67.2901 -0.237446 53.4858 7.17917 44.8073C13.013 37.9843 21.9898 34.9067 32.4477 36.1626H32.5381L32.5947 36.2418C38.1006 43.2232 44.2057 47.0703 50.1978 47.6247C53.1713 44.4678 57.5692 43.0648 62.6681 43.6758L63.1882 43.7323L62.7812 44.0492C58.8807 47.0929 54.6636 48.4054 50.3674 48.066C50.277 48.1565 50.1978 48.2583 50.1074 48.3602C46.4217 52.6712 45.5624 59.5507 47.7332 67.2448L47.7784 67.3806L47.6653 67.4711C38.225 74.8259 21.3793 80.5739 2.61162 82.8368L2.43073 82.8595L2.40812 82.8708ZM27.9706 36.321C19.559 36.321 12.4025 39.3648 7.51835 45.0901C0.214786 53.6216 -1.52631 67.2109 2.71337 82.3956C21.2662 80.1326 37.8858 74.4751 47.2583 67.2335C45.0989 59.4601 46.0034 52.4901 49.7569 48.0886C49.7795 48.066 49.7908 48.0433 49.8134 48.0207C43.844 47.3531 37.784 43.4834 32.3007 36.57C30.8196 36.4002 29.3725 36.3097 27.9593 36.3097L27.9706 36.321ZM50.7518 47.67C54.641 47.8963 58.4963 46.7082 62.0689 44.0492C57.4788 43.6192 53.5104 44.8978 50.7518 47.67Z" fill="#92DEED"/>
<path d="M38.6659 50.6684C30.7179 50.6684 21.4245 47.3645 11.8711 40.9036L12.1085 40.5529C27.8462 51.1889 42.8151 53.203 52.1537 45.9275L52.4138 46.2669C48.6263 49.2201 43.9457 50.6684 38.6659 50.6684Z" fill="#92DEED"/>
<path d="M91.758 93.7331L91.2832 93.4276C87.3035 90.9044 85.1215 87.8041 84.9519 84.4549C84.8841 82.95 85.2233 81.4111 85.9468 79.861C79.3669 66.6564 69.1464 54.9228 57.7049 46.9684C49.3725 50.2271 40.1809 46.5611 32.2442 36.5021L31.9163 36.0947L32.4364 36.1513C40.9158 37.1696 49.6325 40.881 57.7501 46.4819C59.3669 45.8256 60.9497 44.9091 62.4873 43.7097L62.5551 43.6531H62.6455C75.1272 45.158 88.6037 58.1476 92.6851 72.6194L92.7303 72.7552L92.6173 72.8457C89.6665 75.154 87.5749 77.5188 86.4217 79.8497C88.5585 84.1607 90.3109 88.6301 91.5998 93.1787L91.7467 93.7218L91.758 93.7331ZM86.2069 80.3588C85.6077 81.7393 85.325 83.1084 85.3929 84.4435C85.5398 87.4986 87.4844 90.3726 91.0458 92.76C89.8134 88.5396 88.1854 84.387 86.2182 80.3702L86.2069 80.3588ZM58.1911 46.776C69.5195 54.7192 79.6269 66.3283 86.2069 79.3858C87.394 77.1115 89.429 74.8258 92.2555 72.6081C88.1741 58.3739 74.9576 45.6332 62.7021 44.117C61.2436 45.2485 59.7286 46.1424 58.1911 46.7874V46.776ZM32.9225 36.6378C40.5653 46.1085 49.3273 49.6048 57.2866 46.6629C49.4743 41.3109 41.0967 37.7241 32.9225 36.6378Z" fill="#92DEED"/>
<path d="M64.251 53.8592C63.3804 53.8592 62.5664 53.7234 61.8202 53.4519C59.2651 52.524 57.4675 49.9895 56.6309 46.1424L57.0492 46.0519C57.8519 49.7519 59.5591 52.1733 61.9672 53.0558C65.2007 54.2326 69.6665 52.7051 74.8672 48.6543L75.1272 48.9938C70.9893 52.2185 67.2809 53.8705 64.251 53.8705V53.8592Z" fill="#92DEED"/>
<path d="M75.9299 67.7427C75.8055 67.7427 75.749 67.6861 75.7038 67.6182C75.5229 67.358 75.2742 66.9959 85.5625 58.9736L85.8225 59.313C79.0164 64.6197 76.9474 66.498 76.3256 67.1656C76.6083 67.0298 77.0718 66.7922 77.8745 66.317L78.0893 66.6904C76.7213 67.5051 76.1786 67.7427 75.9186 67.7427H75.9299Z" fill="#92DEED"/>
<path d="M66.0034 140C64.5449 140 63.0412 139.91 61.515 139.728L61.3228 139.706V139.513C61.8315 119.61 67.7897 103.317 77.2413 95.9509L77.3092 95.8943H77.3996C82.329 96.494 86.58 95.1588 89.4629 92.1378C86.6478 89.8748 85.0989 87.261 84.9632 84.4662C84.771 80.5739 87.3374 76.4439 92.3685 72.5176L92.6173 72.3253L92.7077 72.6308C94.9237 80.4607 94.0192 87.4873 90.243 91.9115C90.1978 91.968 90.1413 92.0246 90.0961 92.0812C90.537 92.4206 91.0231 92.7488 91.5206 93.0769L91.5884 93.1222L91.611 93.2014C95.9525 108.601 94.2001 122.405 86.7835 131.084C81.8089 136.911 74.5393 140 66.0034 140ZM61.7637 139.321C71.9954 140.487 80.7688 137.477 86.4669 130.801C93.7705 122.247 95.5003 108.612 91.2267 93.3937C90.7292 93.0769 90.2543 92.7374 89.8021 92.398C86.84 95.5209 82.4872 96.9127 77.4449 96.3356C68.1515 103.634 62.3064 119.678 61.7637 139.321ZM92.3798 73.0607C87.6314 76.8286 85.2233 80.7662 85.3928 84.4436C85.5172 87.1139 87.0209 89.6258 89.7569 91.8096C89.8134 91.753 89.8699 91.6852 89.9152 91.6286C93.5443 87.3742 94.4375 80.6191 92.3798 73.0494V73.0607Z" fill="#92DEED"/>
<path d="M92.5042 118.683C83.3125 105.218 83.4934 92.7488 93.0129 85.3375L93.273 85.6769C83.9683 92.9298 83.81 105.184 92.8547 118.445L92.5042 118.683Z" fill="#92DEED"/>
<path d="M47.394 67.6748L47.3035 67.3693C45.0989 59.5393 45.992 52.5127 49.7682 48.0886C49.8134 48.032 49.8699 47.9754 49.9152 47.9188C49.4742 47.5794 48.9881 47.2513 48.4906 46.9231L48.4228 46.8779L48.4002 46.7987C44.0588 31.399 45.8112 17.5947 53.2278 8.91617C59.0503 2.09325 68.0271 -0.973101 78.485 0.282859L78.6772 0.305489V0.497844C78.1684 20.4009 72.2102 36.6944 62.7586 44.0604L62.6908 44.117H62.6003C57.671 43.5173 53.42 44.8525 50.537 47.8736C53.3521 50.1366 54.901 52.7503 55.0367 55.5451C55.2289 59.4375 52.6625 63.5674 47.6314 67.4937L47.3827 67.6861L47.394 67.6748ZM50.2543 48.1791C50.1978 48.2357 50.1526 48.3036 50.0961 48.3601C46.4669 52.6146 45.5737 59.3696 47.6314 66.9393C52.3798 63.1714 54.788 59.2338 54.6184 55.5564C54.494 52.8861 52.9904 50.3742 50.2543 48.1904V48.1791ZM48.7846 46.6063C49.282 46.9231 49.7569 47.2626 50.2091 47.602C53.1712 44.4791 57.524 43.0874 62.5664 43.6644C71.8598 36.3663 77.7049 20.3217 78.2476 0.678883C68.0158 -0.497873 59.2425 2.52322 53.5443 9.19905C46.2408 17.7532 44.511 31.3877 48.7846 46.6063Z" fill="#92DEED"/>
<path d="M53.7591 59.8561C51.2832 51.0757 52.2894 43.1892 56.5178 38.2332C59.853 34.3296 64.9858 32.5757 70.9666 33.2886L70.9214 33.7186C65.0989 33.017 60.0904 34.7256 56.8456 38.5161C52.7077 43.3589 51.7354 51.0983 54.1774 59.743L53.7591 59.8561Z" fill="#92DEED"/>
<path d="M53.9853 52.8182C50.7631 41.4014 52.0633 31.1614 57.5692 24.7232C61.8993 19.6541 68.5585 17.3684 76.3256 18.3076L76.2804 18.7376C68.6602 17.821 62.1368 20.0501 57.8971 25.006C52.4929 31.3311 51.2153 41.4354 54.4036 52.7051L53.9853 52.8182Z" fill="#92DEED"/>
<path d="M52.4138 46.2668L52.1537 45.9274C61.4924 38.6519 63.6065 23.3201 57.8293 4.91066L58.2363 4.78619C64.0701 23.3654 61.8994 38.8782 52.4138 46.2668Z" fill="#92DEED"/>
<path d="M92.3799 73.0607L92.2894 72.7552C88.2419 58.4305 74.935 45.588 62.6116 44.1057L62.0916 44.0491L62.4986 43.7323C71.8598 36.4342 77.7501 20.2764 78.2476 0.497868V0.260254L78.485 0.282884C103.053 3.22477 129.599 28.8079 137.648 57.3216L137.716 57.5592L137.467 57.5932C118.768 59.8448 102.001 65.5589 92.6286 72.8683L92.3799 73.0607ZM63.1656 43.7436C75.4098 45.5088 88.4906 58.1702 92.6173 72.3252C102.058 65.095 118.666 59.4488 137.174 57.1858C129.112 29.0116 102.951 3.77921 78.6772 0.735482C78.1345 20.2538 72.3572 36.2645 63.1656 43.7436Z" fill="#92DEED"/>
<path d="M104.262 65.8983C99.7173 49.8085 84.7597 35.3706 70.9214 33.7186L70.9666 33.2886C84.9632 34.9632 100.09 49.5369 104.669 65.7739L104.251 65.887L104.262 65.8983Z" fill="#92DEED"/>
<path d="M119.751 60.6822C113.827 39.7042 94.3244 20.8875 76.269 18.7263L76.3143 18.2963C94.5279 20.4688 114.189 39.4327 120.158 60.5577L119.74 60.6708L119.751 60.6822Z" fill="#92DEED"/>
<path d="M75.1159 48.9825L74.8558 48.643C84.2397 41.3336 94.641 26.9296 102.679 10.1156L103.064 10.2966C95.0028 27.1559 84.5562 41.6164 75.1159 48.9712V48.9825Z" fill="#92DEED"/>
<path d="M112.041 104.12C110.582 104.12 109.079 104.03 107.552 103.849H107.462L107.405 103.769C101.899 96.7995 95.7942 92.9411 89.8022 92.3866C86.8287 95.5435 82.4308 96.9352 77.3318 96.3356L76.8118 96.279L77.2188 95.9622C81.1193 92.9184 85.3477 91.6059 89.6326 91.9454C89.723 91.8548 89.8022 91.753 89.8926 91.6512C93.5783 87.3402 94.4375 80.4607 92.2668 72.7665L92.2216 72.6307L92.3347 72.5402C101.775 65.1855 118.621 59.4375 137.388 57.1745L137.569 57.1519L137.614 57.3329C141.956 72.7326 140.204 86.5368 132.787 95.2154C127.812 101.043 120.543 104.132 112.007 104.132L112.041 104.12ZM107.688 103.43C117.965 104.641 126.772 101.62 132.493 94.9212C139.785 86.3897 141.526 72.8004 137.275 57.6158C118.722 59.8788 102.103 65.5362 92.7304 72.7778C94.8898 80.5512 93.9853 87.5212 90.2318 91.9227C90.2092 91.9454 90.1979 91.968 90.1752 91.9793C96.1447 92.6469 102.205 96.5166 107.688 103.43ZM77.931 95.9622C82.5212 96.3808 86.4896 95.1135 89.2482 92.3414C85.3477 92.1038 81.5037 93.3031 77.931 95.9622Z" fill="#92DEED"/>
<path d="M90.0283 92.4998C89.1916 92.4998 88.3324 92.4432 87.4619 92.3414L87.5071 91.9114C93.3409 92.613 98.338 90.9044 101.572 87.1139C105.709 82.2711 106.682 74.5316 104.251 65.887L104.669 65.7739C107.145 74.5543 106.139 82.4408 101.911 87.3967C99.0616 90.7347 94.9011 92.4998 90.0283 92.4998Z" fill="#92DEED"/>
<path d="M101.153 95.2833C100.068 95.2833 98.9599 95.2154 97.818 95.0796L97.8632 94.6496C105.483 95.5661 112.007 93.3371 116.246 88.3811C121.651 82.0561 122.928 71.9518 119.74 60.6821L120.158 60.569C123.38 71.9858 122.08 82.2258 116.574 88.664C112.877 92.9976 107.484 95.2833 101.153 95.2833Z" fill="#92DEED"/>
<path d="M93.273 85.6769L93.013 85.3374C102.476 77.9601 119.582 76.8851 138.79 82.4747L138.666 82.8934C119.593 77.349 102.634 78.39 93.273 85.6882V85.6769Z" fill="#92DEED"/>
<path d="M129.101 98.7343L128.977 98.6551C112.9 88.268 97.7388 86.401 88.4002 93.6652L88.1402 93.3258C93.2504 89.3429 94.8106 81.6488 92.2894 72.7439C88.2419 58.4191 74.935 45.5767 62.6116 44.0944C58.3946 43.5852 54.675 44.4791 51.8711 46.6629L51.6111 46.3235C60.9384 39.0479 62.8717 23.8633 56.7552 5.70275L56.71 5.55565L56.8344 5.46513C62.4873 1.06361 69.983 -0.746779 78.485 0.282882C103.053 3.22477 129.599 28.8079 137.648 57.3216C142.691 75.1653 139.536 90.6102 129.226 98.6551L129.101 98.7457V98.7343ZM102.216 88.8564C110.164 88.8564 119.469 92.0133 129.079 98.2025C139.152 90.2481 142.205 75.0182 137.23 57.4234C129.226 29.0681 102.849 3.6208 78.4398 0.701536C70.1074 -0.294181 62.7699 1.43701 57.2075 5.72538C62.883 22.6978 61.5715 37.1018 53.7931 44.977C56.3256 43.7323 59.3443 43.291 62.6682 43.6871C75.1498 45.1806 88.6263 58.1702 92.7077 72.642C94.935 80.5399 94.0079 87.5099 90.277 91.8888C93.714 89.8634 97.7614 88.8677 102.227 88.8677L102.216 88.8564Z" fill="#92DEED"/>
<path d="M66.0034 140C64.5449 140 63.0412 139.909 61.515 139.728L61.3228 139.706V139.513C61.8315 119.61 67.7897 103.317 77.2413 95.9508L77.3092 95.8943H77.3996C82.329 96.494 86.58 95.1588 89.4629 92.1377C86.6478 89.8747 85.0989 87.2609 84.9632 84.4662C84.771 80.5738 87.3374 76.4438 92.3685 72.5175L92.6173 72.3252L92.7077 72.6307C94.9237 80.4607 94.0192 87.4872 90.243 91.9114C90.1978 91.968 90.1413 92.0245 90.0961 92.0811C90.537 92.4206 91.0231 92.7487 91.5206 93.0768L91.5884 93.1221L91.611 93.2013C95.9525 108.601 94.2001 122.405 86.7835 131.084C81.8089 136.911 74.5393 140 66.0034 140ZM61.7637 139.321C71.9954 140.487 80.7688 137.477 86.4669 130.801C93.7705 122.247 95.5003 108.612 91.2267 93.3937C90.7292 93.0768 90.2543 92.7374 89.8021 92.3979C86.84 95.5209 82.4872 96.9126 77.4449 96.3355C68.1515 103.634 62.3064 119.678 61.7637 139.321ZM92.3798 73.0607C87.6314 76.8286 85.2233 80.7662 85.3928 84.4435C85.5172 87.1138 87.0209 89.6258 89.7569 91.8096C89.8134 91.753 89.8699 91.6851 89.9152 91.6285C93.5443 87.3741 94.4375 80.6191 92.3798 73.0494V73.0607Z" fill="#92DEED"/>
<path d="M81.7637 135.214C75.9186 116.635 78.1006 101.122 87.5862 93.7331L87.8462 94.0725C78.5076 101.348 76.3934 116.68 82.1707 135.089L81.7637 135.214Z" fill="#92DEED"/>
<path d="M112.041 104.12C110.582 104.12 109.079 104.03 107.552 103.849H107.462L107.405 103.769C101.899 96.7995 95.7942 92.9411 89.8021 92.3866C86.8287 95.5435 82.4307 96.9352 77.3318 96.3356L76.8117 96.279L77.2187 95.9622C81.1192 92.9184 85.3476 91.6059 89.6325 91.9454C89.723 91.8548 89.8021 91.753 89.8925 91.6512C93.5782 87.3402 94.4375 80.4607 92.2668 72.7665L92.2215 72.6307L92.3346 72.5402C101.775 65.1855 118.621 59.4375 137.388 57.1745L137.569 57.1519L137.614 57.3329C141.956 72.7326 140.203 86.5368 132.787 95.2154C127.812 101.043 120.543 104.132 112.007 104.132L112.041 104.12ZM107.688 103.43C117.965 104.641 126.772 101.62 132.493 94.9212C139.785 86.3897 141.526 72.8004 137.275 57.6158C118.722 59.8788 102.103 65.5362 92.7303 72.7778C94.8897 80.5512 93.9852 87.5212 90.2317 91.9227C90.2091 91.9454 90.1978 91.968 90.1752 91.9793C96.1447 92.6469 102.205 96.5166 107.688 103.43ZM77.931 95.9622C82.5211 96.3808 86.4895 95.1135 89.2481 92.3414C85.3476 92.1038 81.5036 93.3031 77.931 95.9622Z" fill="#92DEED"/>
<path d="M90.0282 92.4998C89.1916 92.4998 88.3323 92.4432 87.4618 92.3414L87.507 91.9114C93.3408 92.613 98.338 90.9044 101.571 87.1139C105.709 82.2711 106.682 74.5316 104.251 65.887L104.669 65.7739C107.145 74.5543 106.139 82.4408 101.911 87.3967C99.0616 90.7347 94.901 92.4998 90.0282 92.4998Z" fill="#92DEED"/>
<path d="M127.891 99.4472C112.154 88.8111 97.1848 86.797 87.8462 94.0725L87.5862 93.7331C97.0718 86.3331 112.233 88.3359 128.129 99.0851L127.891 99.4358V99.4472Z" fill="#92DEED"/>
<path d="M79.6608 96.4713C78.9146 96.4713 78.1458 96.4261 77.3544 96.3355L76.8344 96.279L77.2414 95.9621C81.2888 92.8053 85.6755 91.4814 90.277 92.0359C90.684 92.0811 90.797 92.0811 90.8988 92.0811L90.9327 92.5111C90.4013 92.579 89.5421 92.8392 88.4002 93.6992C86.0373 95.5435 83.0412 96.4939 79.6608 96.4939V96.4713ZM77.9423 95.9621C81.9446 96.3355 85.4607 95.4303 88.1402 93.3371C88.7394 92.8845 89.2708 92.5903 89.723 92.3979C85.5738 92.0245 81.6167 93.2239 77.931 95.9621H77.9423Z" fill="#92DEED"/>
<path d="M66.0034 140C64.5449 140 63.0412 139.909 61.515 139.728L61.3228 139.706V139.513C61.8315 119.61 67.7897 103.317 77.2413 95.9508L77.3092 95.8943H77.3996C82.329 96.494 86.58 95.1588 89.4629 92.1377C86.6478 89.8747 85.0989 87.2609 84.9632 84.4662C84.771 80.5738 87.3374 76.4438 92.3685 72.5175L92.6173 72.3252L92.7077 72.6307C94.9237 80.4607 94.0192 87.4872 90.243 91.9114C90.1978 91.968 90.1413 92.0245 90.0961 92.0811C90.537 92.4206 91.0231 92.7487 91.5206 93.0768L91.5884 93.1221L91.611 93.2013C95.9525 108.601 94.2001 122.405 86.7835 131.084C81.8089 136.911 74.5393 140 66.0034 140ZM61.7637 139.321C71.9954 140.487 80.7688 137.477 86.4669 130.801C93.7705 122.247 95.5003 108.612 91.2267 93.3937C90.7292 93.0768 90.2543 92.7374 89.8021 92.3979C86.84 95.5209 82.4872 96.9126 77.4449 96.3355C68.1515 103.634 62.3064 119.678 61.7637 139.321ZM92.3798 73.0607C87.6314 76.8286 85.2233 80.7662 85.3928 84.4435C85.5172 87.1138 87.0209 89.6258 89.7569 91.8096C89.8134 91.753 89.8699 91.6851 89.9152 91.6285C93.5443 87.3741 94.4375 80.6191 92.3798 73.0494V73.0607Z" fill="#92DEED"/>
<path d="M81.7637 135.214C75.9186 116.635 78.1006 101.122 87.5862 93.7331L87.8462 94.0725C78.5076 101.348 76.3934 116.68 82.1707 135.089L81.7637 135.214Z" fill="#92DEED"/>
<path d="M112.041 104.12C110.582 104.12 109.079 104.03 107.552 103.849H107.462L107.405 103.769C101.899 96.7995 95.7942 92.9411 89.8021 92.3866C86.8287 95.5435 82.4307 96.9352 77.3318 96.3356L76.8117 96.279L77.2187 95.9622C81.1192 92.9184 85.3476 91.6059 89.6325 91.9454C89.723 91.8548 89.8021 91.753 89.8925 91.6512C93.5782 87.3402 94.4375 80.4607 92.2668 72.7665L92.2215 72.6307L92.3346 72.5402C101.775 65.1855 118.621 59.4375 137.388 57.1745L137.569 57.1519L137.614 57.3329C141.956 72.7326 140.203 86.5368 132.787 95.2154C127.812 101.043 120.543 104.132 112.007 104.132L112.041 104.12ZM107.688 103.43C117.965 104.641 126.772 101.62 132.493 94.9212C139.785 86.3897 141.526 72.8004 137.275 57.6158C118.722 59.8788 102.103 65.5362 92.7303 72.7778C94.8897 80.5512 93.9852 87.5212 90.2317 91.9227C90.2091 91.9454 90.1978 91.968 90.1752 91.9793C96.1447 92.6469 102.205 96.5166 107.688 103.43ZM77.931 95.9622C82.5211 96.3808 86.4895 95.1135 89.2481 92.3414C85.3476 92.1038 81.5036 93.3031 77.931 95.9622Z" fill="#92DEED"/>
<path d="M90.0282 92.4998C89.1916 92.4998 88.3323 92.4432 87.4618 92.3414L87.507 91.9114C93.3408 92.613 98.338 90.9044 101.571 87.1139C105.709 82.2711 106.682 74.5316 104.251 65.887L104.669 65.7739C107.145 74.5543 106.139 82.4408 101.911 87.3967C99.0616 90.7347 94.901 92.4998 90.0282 92.4998Z" fill="#92DEED"/>
<path d="M101.153 95.2833C100.068 95.2833 98.9598 95.2154 97.8179 95.0796L97.8632 94.6496C105.483 95.5661 112.007 93.3371 116.246 88.3811C121.651 82.0561 122.928 71.9518 119.74 60.6821L120.158 60.569C123.38 71.9858 122.08 82.2258 116.574 88.664C112.877 92.9976 107.484 95.2833 101.153 95.2833Z" fill="#92DEED"/>
<path d="M127.891 99.4472C112.154 88.8111 97.1848 86.797 87.8462 94.0725L87.5862 93.7331C97.0718 86.3331 112.233 88.3359 128.129 99.0851L127.891 99.4358V99.4472Z" fill="#92DEED"/>
<path d="M112.086 104.12C110.616 104.12 109.101 104.03 107.552 103.849H107.462L107.405 103.769C102.284 97.2747 96.5291 93.405 90.7518 92.5224C89.6438 92.7487 88.7394 93.4163 88.3889 93.6765L88.1288 93.3371C97.6144 85.9484 112.968 87.8041 129.203 98.293L129.452 98.4515L129.214 98.6325C124.579 102.253 118.711 104.109 112.075 104.109L112.086 104.12ZM107.688 103.43C115.919 104.403 123.188 102.695 128.717 98.4967C114.064 89.094 100.17 86.797 90.8083 92.0698C90.8422 92.0698 90.8535 92.0698 90.8762 92.0698V92.1151C96.7326 93.0203 102.521 96.9239 107.688 103.441V103.43Z" fill="#92DEED"/>
<path d="M137.241 57.4461C134.279 49.8877 122.793 44.3886 105.732 42.3406L105.585 42.318L105.551 42.1822C99.9435 22.3358 90.0395 7.19634 78.3606 0.667606L77.4109 0.135803L78.485 0.260268C103.053 3.20216 129.599 28.7853 137.648 57.299L137.241 57.4348V57.4461ZM105.924 41.9333C121.447 43.8116 132.38 48.5638 136.552 55.1491C127.948 28.129 102.962 4.26576 79.5025 0.848646C90.8423 7.68288 100.43 22.5734 105.924 41.9446V41.9333Z" fill="#92DEED"/>
<path d="M105.879 42.3066L105.642 41.9559C123.38 29.6905 123.912 30.1544 124.161 30.3354C124.194 30.3694 124.319 30.4825 124.24 30.6975L123.844 30.5391C123.844 30.5391 123.844 30.5957 123.878 30.6409C123.912 30.6862 123.957 30.6975 123.968 30.6975C123.663 30.6975 121.436 31.5688 105.913 42.3066H105.879Z" fill="#92DEED"/>
<path d="M134.505 49.503C133.906 48.0886 133.137 46.3574 132.448 44.8865C127.462 34.5899 120.147 24.9269 111.543 17.2327C109.746 15.7052 107.439 13.8269 105.574 12.3673L105.834 12.0278C107.891 13.544 109.893 15.1734 111.826 16.9046C112.086 17.1196 112.323 17.3345 112.561 17.5382C113.375 18.2397 114.347 19.2015 115.206 20.0388C115.489 20.3217 115.76 20.5933 116.02 20.8422C118.033 22.7997 121.108 26.3526 122.793 28.525C124.059 30.1544 125.721 32.4966 127.858 35.6874C128.457 36.5926 129.146 37.7694 129.746 38.8103L130.141 39.4892C130.82 40.6434 131.701 42.3067 132.335 43.6192C132.493 43.9586 132.674 44.3207 132.855 44.7054C133.601 46.2443 134.291 47.7831 134.924 49.3446L134.528 49.5143L134.505 49.503Z" fill="#92DEED"/>
<path d="M107.744 103.871L107.552 103.849C82.9847 100.907 56.4387 75.3237 48.3889 46.81L48.3324 46.595L48.5472 46.5384C67.7445 41.5485 88.615 39.8626 105.777 41.9219L105.924 41.9446L105.958 42.0803C111.588 62.0173 112.256 84.4775 107.778 103.679L107.733 103.871H107.744ZM48.8638 46.9118C56.9248 75.1087 83.1091 100.386 107.405 103.407C111.803 84.353 111.136 62.1191 105.585 42.3406C88.5585 40.3265 67.9028 41.9898 48.8638 46.9118Z" fill="#92DEED"/>
<path d="M110.288 84.3078C92.493 82.1806 73.2731 63.658 67.4506 43.0082L67.8689 42.895C73.6575 63.3864 92.7078 81.7732 110.345 83.8778L110.3 84.3078H110.288Z" fill="#92DEED"/>
<path d="M109.757 63.3864C100.271 62.2549 90.0169 52.3769 86.9078 41.3675L87.3261 41.2543C90.39 52.1054 100.475 61.8476 109.813 62.9564L109.768 63.3864H109.757Z" fill="#92DEED"/>
<path d="M83.3578 94.0273L82.996 93.801C93.5331 77.0662 101.752 58.2268 105.551 42.0917L105.969 42.1935C102.159 58.3739 93.9175 77.2699 83.3578 94.0273Z" fill="#92DEED"/>
<path d="M48.4566 47.0137L48.4001 46.81C44.0586 31.4103 45.811 17.6061 53.2277 8.92751C59.0502 2.09328 68.027 -0.973076 78.4849 0.282885L78.564 0.305515C90.3334 6.89082 100.328 22.1208 105.958 42.0803L106.048 42.3858L105.732 42.3519C88.6149 40.3039 67.8122 41.9898 48.6601 46.9571L48.4566 47.0137ZM74.0078 0.429979C65.5962 0.429979 58.4396 3.4737 53.5442 9.19907C46.2633 17.7306 44.5109 31.3085 48.7505 46.4819C67.7782 41.5599 88.4114 39.8852 105.461 41.8767C99.8529 22.2 89.9942 7.19632 78.3944 0.690223C76.902 0.509184 75.4323 0.429979 73.9964 0.429979H74.0078Z" fill="#92DEED"/>
<path d="M67.4505 43.0081C64.2962 31.8516 65.5737 21.8492 70.9553 15.5581C75.1837 10.6021 81.6958 8.37305 89.282 9.27825L89.2368 9.70822C81.7976 8.82565 75.4211 10.9981 71.2832 15.8296C66.0034 22.0076 64.7597 31.8742 67.8688 42.8837L67.4505 42.9968V43.0081Z" fill="#92DEED"/>
<path d="M86.9078 41.3788C85.2233 35.4158 85.9129 30.0639 88.7846 26.7033C91.0571 24.0443 94.5393 22.8449 98.6094 23.3315L98.5641 23.7614C94.641 23.2862 91.2832 24.4403 89.1125 26.9862C86.3312 30.2449 85.6755 35.4498 87.3148 41.2657L86.8965 41.3788H86.9078Z" fill="#92DEED"/>
<path d="M105.642 42.318C88.0271 30.5165 66.7722 22.992 47.3035 21.6682L47.3374 21.2382C66.8739 22.5734 88.208 30.1205 105.879 41.9672L105.642 42.3293V42.318Z" fill="#92DEED"/>
<path d="M105.585 42.2614C92.1085 24.0782 74.7541 10.5116 57.9649 5.05779L58.1006 4.65045C74.9689 10.1382 92.4024 23.7501 105.936 42.0124L105.596 42.2727L105.585 42.2614Z" fill="#92DEED"/>
<path d="M137.241 57.4461C134.279 49.8877 122.793 44.3886 105.732 42.3406L105.585 42.318L105.551 42.1822C99.9435 22.3358 90.0395 7.19634 78.3606 0.667606L77.4109 0.135803L78.485 0.260268C103.053 3.20216 129.599 28.7853 137.648 57.299L137.241 57.4348V57.4461ZM105.924 41.9333C121.447 43.8116 132.38 48.5638 136.552 55.1491C127.948 28.129 102.962 4.26576 79.5025 0.848646C90.8423 7.68288 100.43 22.5734 105.924 41.9446V41.9333Z" fill="#92DEED"/>
<path d="M131.701 50.6911C125.913 30.1997 106.863 11.8129 89.2255 9.70829L89.2707 9.27832C107.066 11.4055 126.286 29.9281 132.109 50.5779L131.69 50.6911H131.701Z" fill="#92DEED"/>
<path d="M121.051 45.4635C117.988 34.6125 107.903 24.8703 98.5641 23.7614L98.6094 23.3315C108.106 24.463 118.349 34.3409 121.458 45.3504L121.04 45.4635H121.051Z" fill="#92DEED"/>
<path d="M105.969 42.1822L105.551 42.0804C109.327 26.0131 108.31 14.4606 102.747 10.3758L102.996 10.0251C108.705 14.2116 109.791 25.9226 105.958 42.1709L105.969 42.1822Z" fill="#92DEED"/>
<path d="M112.041 104.12C110.582 104.12 109.079 104.03 107.552 103.849L107.315 103.815L107.371 103.577C111.826 84.4322 111.159 62.0626 105.551 42.1935L105.461 41.888L105.777 41.9219C123.007 43.9813 134.618 49.5822 137.637 57.299V57.3216C141.99 72.7213 140.237 86.5255 132.821 95.2041C127.846 101.031 120.577 104.12 112.041 104.12ZM107.835 103.453C118.055 104.618 126.806 101.586 132.493 94.9212C139.808 86.3558 141.538 72.6986 137.23 57.4461C134.279 49.9443 122.928 44.4565 106.037 42.3972C111.566 62.1757 112.21 84.3983 107.824 103.453H107.835Z" fill="#92DEED"/>
<path d="M113.544 84.5002C112.482 84.5002 111.396 84.4323 110.288 84.3078L110.333 83.8778C117.784 84.7717 124.149 82.5879 128.287 77.7565C133.567 71.5785 134.811 61.7118 131.701 50.7024L132.12 50.5892C135.274 61.7458 133.997 71.7482 128.615 78.0393C125.008 82.2711 119.729 84.5115 113.544 84.5115V84.5002Z" fill="#92DEED"/>
<path d="M111.498 63.4996C110.933 63.4996 110.356 63.4656 109.757 63.3978L109.802 62.9678C113.725 63.4317 117.083 62.2889 119.254 59.743C122.035 56.4843 122.691 51.2794 121.051 45.4636L121.47 45.3504C123.154 51.3134 122.465 56.6654 119.593 60.0259C117.66 62.3002 114.822 63.4996 111.509 63.4996H111.498Z" fill="#92DEED"/>
<path d="M138.519 82.7237C135.218 68.8289 123.233 54.0968 105.642 42.3067L105.879 41.9446C123.561 53.7913 135.613 68.6139 138.937 82.6105L138.519 82.7124V82.7237Z" fill="#92DEED"/>
<path d="M127.801 99.2775C127.168 81.2301 119.073 60.4445 105.585 42.2614L105.924 42.0012C119.457 60.2522 127.586 81.1283 128.219 99.2549H127.79L127.801 99.2775Z" fill="#92DEED"/>
<path d="M112.041 104.12C110.639 104.12 109.203 104.041 107.744 103.871L107.315 103.815C82.8151 100.737 56.416 75.2219 48.3889 46.81C44.0475 31.4103 45.7999 17.6061 53.2165 8.92751C59.0503 2.09328 68.0271 -0.973076 78.485 0.282885C87.394 1.34649 96.8343 5.40856 105.811 12.0278C107.089 12.9783 108.536 14.0645 109.587 14.981C109.87 15.2186 110.164 15.4789 110.48 15.7504C111.295 16.452 112.222 17.244 112.934 17.9003C113.669 18.5792 114.573 19.4504 115.365 20.2312L116.077 20.9214C118.745 23.5125 121.662 27.1333 122.759 28.5024C124.409 30.5617 125.065 31.5574 127.835 35.6987C128.445 36.6152 129.146 37.8259 129.757 38.8895L130.209 39.6589C131.17 41.3109 132.301 43.6192 133.081 45.2146C133.477 46.0406 133.917 47.0589 134.336 48.032C134.528 48.4959 134.72 48.9372 134.901 49.3332C135.986 51.9809 136.914 54.6626 137.66 57.3103C142.001 72.7099 140.249 86.5142 132.832 95.1928C127.858 101.02 120.588 104.109 112.052 104.109L112.041 104.12ZM107.835 103.453C118.055 104.618 126.806 101.586 132.493 94.9212C139.808 86.3558 141.538 72.6873 137.23 57.4347C136.484 54.7984 135.568 52.128 134.494 49.503C134.324 49.1069 134.132 48.6656 133.94 48.2017C133.522 47.2286 133.092 46.2216 132.696 45.3956C131.928 43.8115 130.797 41.5033 129.847 39.8626L129.395 39.0932C128.785 38.0409 128.095 36.8415 127.484 35.925C124.726 31.795 124.07 30.8106 122.431 28.774C121.334 27.4048 118.428 23.7954 115.783 21.2269L115.071 20.5367C114.279 19.7672 113.386 18.8847 112.651 18.2171C111.939 17.5721 111.023 16.7801 110.209 16.0786C109.893 15.807 109.587 15.5468 109.316 15.3092C108.265 14.3926 106.761 13.2611 105.562 12.3786C96.6535 5.80458 87.2696 1.76514 78.4398 0.712853C68.1176 -0.520477 59.2764 2.50062 53.5444 9.21039C46.2295 17.7758 44.4997 31.4443 48.8072 46.6968C56.7891 74.9842 83.0526 100.375 107.417 103.396C111.826 84.2965 111.148 62.006 105.551 42.1935L105.969 42.0803C106.003 42.1822 106.026 42.2953 106.06 42.3972C106.06 42.3972 106.083 42.4764 106.094 42.5216C111.588 62.2662 112.222 84.4322 107.846 103.441L107.835 103.453Z" fill="#92DEED"/>
</g>
<defs>
<clipPath id="clip0_33_1161">
<rect width="140" height="140" fill="white"/>
</clipPath>
</defs>
</svg>
