<svg width="100%" height="100%" id="svg" viewBox="0 0 1440 590" xmlns="http://www.w3.org/2000/svg" class="transition duration-300 ease-in-out delay-150"><defs><linearGradient id="gradient" x1="50%" y1="100%" x2="50%" y2="0%"><stop offset="5%" stop-color="#d5d9e5"></stop><stop offset="95%" stop-color="#11112b"></stop></linearGradient></defs><path d="M 0,600 L 0,600 C 24.087142718301607,401.9040560921043 48.17428543660321,203.8081121842086 69,135 C 89.82571456339679,66.19188781579139 107.39000097188872,126.67160735526988 131,141 C 154.60999902811128,155.32839264473012 184.26571067584192,123.50545839471187 213,126 C 241.73428932415808,128.49454160528813 269.5471563247435,165.30655906588262 296,162 C 322.4528436752565,158.69344093411738 347.5456640251841,115.26830534175774 367,110 C 386.4543359748159,104.73169465824226 400.27018757452015,137.62021956708642 427,146 C 453.72981242547985,154.37978043291358 493.3735856767353,138.2508163898966 517,117 C 540.6264143232647,95.7491836101034 548.2354697185389,69.37651487332717 568,82 C 587.7645302814611,94.62348512667283 619.684535449109,146.2431241167947 649,158 C 678.315464550891,169.7568758832053 705.0263884850247,141.65098865949403 723,120 C 740.9736115149753,98.34901134050597 750.2099106107921,83.15292124522917 778,91 C 805.7900893892079,98.84707875477083 852.133969071807,129.73732635958936 877,148 C 901.866030928193,166.26267364041064 905.2542131019796,171.89777331641338 923,155 C 940.7457868980204,138.10222668358662 972.8491785202748,98.67158037475716 1002,79 C 1031.1508214797252,59.328419625242844 1057.349072816921,59.41590518455803 1085,70 C 1112.650927183079,80.58409481544197 1141.7545302120404,101.66479888701069 1163,114 C 1184.2454697879596,126.33520111298931 1197.632806334917,129.92489926739918 1220,133 C 1242.367193665083,136.07510073260082 1273.7142444482915,138.6356040433925 1302,111 C 1330.2857555517085,83.36439595660748 1355.510215871917,25.532684559030685 1378,102 C 1400.489784128083,178.46731544096932 1420.2448920640416,389.23365772048464 1440,600 L 1440,600 L 0,600 Z" stroke="none" stroke-width="0" fill="url(#gradient)" fill-opacity="0.4" class="transition-all duration-300 ease-in-out delay-150 path-0" transform="rotate(-180 720 300)"></path><defs><linearGradient id="gradient" x1="50%" y1="100%" x2="50%" y2="0%"><stop offset="5%" stop-color="#d5d9e5"></stop><stop offset="95%" stop-color="#11112b"></stop></linearGradient></defs><path d="M 0,600 L 0,600 C 28.140778213978983,486.6385116860247 56.281556427957966,373.27702337204937 79,310 C 101.71844357204203,246.72297662795066 119.0145525021471,233.5304181978273 139,230 C 158.9854474978529,226.4695818021727 181.66023356345357,232.60130383664145 206,236 C 230.33976643654643,239.39869616335855 256.3445132440386,240.06436645560683 280,260 C 303.6554867559614,279.93563354439317 324.9617134603921,319.1412303409312 346,315 C 367.0382865396079,310.8587696590688 387.808632914393,263.37071218066836 419,237 C 450.191367085607,210.62928781933164 491.8037548820356,205.37592093639535 517,210 C 542.1962451179644,214.62407906360465 550.9763475574646,229.12560407375014 571,258 C 591.0236524425354,286.87439592624986 622.2908548881061,330.1216627686041 648,315 C 673.7091451118939,299.8783372313959 693.8602328901109,226.38774485183322 719,215 C 744.1397671098891,203.61225514816678 774.2682135514507,254.32735782406291 795,288 C 815.7317864485493,321.6726421759371 827.066912904086,338.3028238519154 851,314 C 874.933087095914,289.6971761480846 911.4641348322048,224.4613467682757 942,214 C 972.5358651677952,203.5386532317243 997.0765477670946,247.85178907498204 1015,271 C 1032.9234522329054,294.14821092501796 1044.2296740994166,296.13149693179605 1070,298 C 1095.7703259005834,299.86850306820395 1136.0047558352392,301.62222319783365 1161,289 C 1185.9952441647608,276.37777680216635 1195.7513025596265,249.37961027686933 1215,239 C 1234.2486974403735,228.62038972313067 1262.9900339262542,234.85933569468904 1292,228 C 1321.0099660737458,221.14066430531096 1350.2885617353556,201.1830469443745 1375,261 C 1399.7114382646444,320.8169530556255 1419.855719132322,460.40847652781275 1440,600 L 1440,600 L 0,600 Z" stroke="none" stroke-width="0" fill="url(#gradient)" fill-opacity="0.53" class="transition-all duration-300 ease-in-out delay-150 path-1" transform="rotate(-180 720 300)"></path><defs><linearGradient id="gradient" x1="50%" y1="100%" x2="50%" y2="0%"><stop offset="5%" stop-color="#d5d9e5"></stop><stop offset="95%" stop-color="#11112b"></stop></linearGradient></defs><path d="M 0,600 L 0,600 C 19.42712102970855,526.4338033910414 38.8542420594171,452.86760678208276 67,426 C 95.1457579405829,399.13239321791724 132.01015279204015,418.96337626271054 154,425 C 175.98984720795985,431.03662373728946 183.10514677242233,423.2788881670752 204,435 C 224.89485322757767,446.7211118329248 259.56926011827045,477.92107106898885 283,464 C 306.43073988172955,450.07892893101115 318.6178127544959,391.03682755696946 346,378 C 373.3821872455041,364.96317244303054 415.95948886374606,397.93161870313344 443,406 C 470.04051113625394,414.06838129686656 481.5442317905199,397.23669763049674 505,395 C 528.4557682094801,392.76330236950326 563.8635839741744,405.12159077487956 587,420 C 610.1364160258256,434.87840922512044 621.0014323127823,452.2769392699852 639,465 C 656.9985676872177,477.7230607300148 682.1306867746966,485.77065214517967 708,467 C 733.8693132253034,448.22934785482033 760.4758205884311,402.6404521492962 784,377 C 807.5241794115689,351.3595478507038 827.9660308715787,345.6675392576352 855,365 C 882.0339691284213,384.3324607423648 915.6600559252537,428.6893908201628 945,428 C 974.3399440747463,427.3106091798372 999.3937454274062,381.57489746171353 1017,370 C 1034.6062545725938,358.42510253828647 1044.7649623651212,381.01101933298276 1070,386 C 1095.2350376348788,390.98898066701724 1135.5464051121085,378.3810252063555 1163,385 C 1190.4535948878915,391.6189747936445 1205.0494171864452,417.4648798415954 1228,422 C 1250.9505828135548,426.5351201584046 1282.255926142111,409.7594554272628 1309,384 C 1335.744073857889,358.2405445727372 1357.926878245111,323.4972984493534 1379,358 C 1400.073121754889,392.5027015506466 1420.0365608774446,496.2513507753233 1440,600 L 1440,600 L 0,600 Z" stroke="none" stroke-width="0" fill="url(#gradient)" fill-opacity="1" class="transition-all duration-300 ease-in-out delay-150 path-2" transform="rotate(-180 720 300)"></path></svg>