<svg width="100%" height="100%" id="svg" viewBox="0 0 1440 590" xmlns="http://www.w3.org/2000/svg" class="transition duration-300 ease-in-out delay-150"><defs><linearGradient id="gradient" x1="7%" y1="25%" x2="93%" y2="75%"><stop offset="5%" stop-color="#11112b"></stop><stop offset="95%" stop-color="#8ED1FC"></stop></linearGradient></defs><path d="M 0,600 L 0,112 C 56.72827722283884,115.41827598964115 113.45655444567768,118.83655197928229 158,140 C 202.54344555432232,161.1634480207177 234.9020594401282,200.072068072512 290,207 C 345.0979405598718,213.927931927488 422.93520779380935,188.87517573066964 483,217 C 543.0647922061906,245.12482426933036 585.3571093846344,326.4272290048094 638,371 C 690.6428906153656,415.5727709951906 753.6363546676531,423.41590825009257 814,443 C 874.3636453323469,462.58409174990743 932.0974719447528,493.9091379948204 975,519 C 1017.9025280552472,544.0908620051796 1045.9737575533359,562.9475397706253 1093,580 C 1140.0262424466641,597.0524602293747 1206.007497841904,612.3007029226784 1267,634 C 1327.992502158096,655.6992970773216 1383.9962510790479,683.8496485386609 1440,712 L 1440,600 L 0,600 Z" stroke="none" stroke-width="0" fill="url(#gradient)" fill-opacity="0.4" class="transition-all duration-300 ease-in-out delay-150 path-0" transform="rotate(-180 720 300)"></path><defs><linearGradient id="gradient" x1="7%" y1="25%" x2="93%" y2="75%"><stop offset="5%" stop-color="#11112b"></stop><stop offset="95%" stop-color="#8ED1FC"></stop></linearGradient></defs><path d="M 0,600 L 0,262 C 50.07754347021829,283.89453693427055 100.15508694043658,305.7890738685411 160,301 C 219.84491305956342,296.2109261314589 289.45719570847206,264.7382414601061 348,286 C 406.54280429152794,307.2617585398939 454.01613022567517,381.2579602910347 499,416 C 543.9838697743248,450.7420397089653 586.4782833888273,446.22991737575535 634,462 C 681.5217166111727,477.77008262424465 734.070736219016,513.822370205944 787,533 C 839.929263780984,552.177629794056 893.238771735109,554.4806018004685 942,590 C 990.761228264891,625.5193981995315 1034.9741768405474,694.2552225921816 1099,740 C 1163.0258231594526,785.7447774078184 1246.8645209027009,808.4985078308054 1307,825 C 1367.1354790972991,841.5014921691946 1403.5677395486496,851.7507460845973 1440,862 L 1440,600 L 0,600 Z" stroke="none" stroke-width="0" fill="url(#gradient)" fill-opacity="0.53" class="transition-all duration-300 ease-in-out delay-150 path-1" transform="rotate(-180 720 300)"></path><defs><linearGradient id="gradient" x1="7%" y1="25%" x2="93%" y2="75%"><stop offset="5%" stop-color="#11112b"></stop><stop offset="95%" stop-color="#8ED1FC"></stop></linearGradient></defs><path d="M 0,600 L 0,412 C 57.19176223948698,433.89966703662594 114.38352447897395,455.79933407325194 173,457 C 231.61647552102605,458.20066592674806 291.6576643235911,438.70233074361823 342,470 C 392.3423356764089,501.29766925638177 432.98581822666176,583.3913429522753 477,618 C 521.0141817733382,652.6086570477247 568.399062769762,639.7322974472809 627,659 C 685.600937230238,678.2677025527191 755.4179306942902,729.6794672586016 814,750 C 872.5820693057098,770.3205327413984 919.9292144530768,759.549833518313 972,777 C 1024.0707855469232,794.450166481687 1080.8652114934023,840.1211986681466 1136,861 C 1191.1347885065977,881.8788013318534 1244.6099395733138,877.9653718091009 1295,899 C 1345.3900604266862,920.0346281908991 1392.6950302133432,966.0173140954496 1440,1012 L 1440,600 L 0,600 Z" stroke="none" stroke-width="0" fill="url(#gradient)" fill-opacity="1" class="transition-all duration-300 ease-in-out delay-150 path-2" transform="rotate(-180 720 300)"></path></svg>