<svg width="100%" height="100%" id="svg" viewBox="0 0 1440 590" xmlns="http://www.w3.org/2000/svg" class="transition duration-300 ease-in-out delay-150"><defs><linearGradient id="gradient" x1="81%" y1="89%" x2="19%" y2="11%"><stop offset="5%" stop-color="#11112b"></stop><stop offset="95%" stop-color="#abb8c3"></stop></linearGradient></defs><path d="M 0,600 L 0,337 C 71.33890738685412,341.22449130595635 142.67781477370823,345.44898261191275 189,322 C 235.32218522629177,298.55101738808725 256.6276482920212,247.42856085830556 303,234 C 349.3723517079788,220.57143914169444 420.811592058207,244.83677395486498 477,239 C 533.188407941793,233.16322604513502 574.1259834751511,197.22434332223455 626,166 C 677.8740165248489,134.77565667776545 740.6844740411889,108.26585275619682 803,66 C 865.3155259588111,23.73414724380318 927.1361203600936,-34.28775434702183 979,-54 C 1030.8638796399064,-73.71224565297817 1072.7710445184366,-55.114835368109496 1121,-63 C 1169.2289554815634,-70.8851646318905 1223.779701566161,-105.25290418054016 1278,-143 C 1332.220298433839,-180.74709581945984 1386.1101492169196,-221.87354790972992 1440,-263 L 1440,600 L 0,600 Z" stroke="none" stroke-width="0" fill="url(#gradient)" fill-opacity="0.4" class="transition-all duration-300 ease-in-out delay-150 path-0" transform="rotate(-180 720 300)"></path><defs><linearGradient id="gradient" x1="81%" y1="89%" x2="19%" y2="11%"><stop offset="5%" stop-color="#11112b"></stop><stop offset="95%" stop-color="#abb8c3"></stop></linearGradient></defs><path d="M 0,600 L 0,487 C 45.47495375508694,494.97178443704524 90.94990751017389,502.9435688740905 141,488 C 191.0500924898261,473.0564311259095 245.67532371439142,435.1975089406832 301,414 C 356.3246762856086,392.8024910593168 412.34879763226047,388.26639536317674 468,356 C 523.6512023677395,323.73360463682326 578.9294857565668,263.7369096066099 628,221 C 677.0705142434332,178.2630903933901 719.9332593414724,152.78596621038355 774,150 C 828.0667406585276,147.21403378961645 893.3374768775435,167.11922555185595 952,142 C 1010.6625231224565,116.88077444814404 1062.7168331483538,46.737131582192625 1109,25 C 1155.2831668516462,3.2628684178073755 1195.7951905290417,29.932248119373536 1250,15 C 1304.2048094709583,0.06775188062646417 1372.102404735479,-56.46612405968677 1440,-113 L 1440,600 L 0,600 Z" stroke="none" stroke-width="0" fill="url(#gradient)" fill-opacity="0.53" class="transition-all duration-300 ease-in-out delay-150 path-1" transform="rotate(-180 720 300)"></path><defs><linearGradient id="gradient" x1="81%" y1="89%" x2="19%" y2="11%"><stop offset="5%" stop-color="#11112b"></stop><stop offset="95%" stop-color="#abb8c3"></stop></linearGradient></defs><path d="M 0,600 L 0,637 C 70.59109631273893,654.2765075841658 141.18219262547785,671.5530151683315 189,646 C 236.81780737452215,620.4469848316685 261.8623258108275,552.0644469108398 302,537 C 342.1376741891725,521.9355530891602 397.36850413121215,560.1891971883093 461,543 C 524.6314958687879,525.8108028116907 596.6636576643236,453.17876433592306 656,407 C 715.3363423356764,360.82123566407694 761.9768652114934,341.09574546799854 814,311 C 866.0231347885066,280.90425453200146 923.4288814897027,240.43825379208286 975,209 C 1026.5711185102973,177.56174620791714 1072.3076088296955,155.15123936367 1128,144 C 1183.6923911703045,132.84876063633 1249.3406831915154,132.95678875323716 1303,117 C 1356.6593168084846,101.04321124676285 1398.3296584042423,69.02160562338142 1440,37 L 1440,600 L 0,600 Z" stroke="none" stroke-width="0" fill="url(#gradient)" fill-opacity="1" class="transition-all duration-300 ease-in-out delay-150 path-2" transform="rotate(-180 720 300)"></path></svg>