<svg width="100%" height="100%" id="svg" viewBox="0 0 1440 690" xmlns="http://www.w3.org/2000/svg" class="transition duration-300 ease-in-out delay-150"><defs><linearGradient id="gradient" x1="81%" y1="89%" x2="19%" y2="11%"><stop offset="5%" stop-color="#11112b"></stop><stop offset="95%" stop-color="#abb8c3"></stop></linearGradient></defs><path d="M 0,700 L 0,131 C 30.46552710286001,136.63002484421457 60.93105420572002,142.26004968842912 109,153 C 157.06894579427998,163.73995031157088 222.74131027997998,179.5898260904981 267,166 C 311.25868972002,152.4101739095019 334.1037046743602,109.38064594957845 375,102 C 415.8962953256398,94.61935405042155 474.84387102257926,122.88759011118805 525,140 C 575.1561289774207,157.11240988881195 616.5208112353224,163.06899360566936 656,152 C 695.4791887646776,140.93100639433064 733.0728840361312,112.83643546613449 776,120 C 818.9271159638688,127.16356453386551 867.1876526201529,169.58526452979268 911,178 C 954.8123473798471,186.41473547020732 994.1765054832579,160.82250641469474 1046,163 C 1097.8234945167421,165.17749358530526 1162.1063254468154,195.12470981142835 1202,183 C 1241.8936745531846,170.87529018857165 1257.3981927294813,116.6786543395919 1293,101 C 1328.6018072705187,85.3213456604081 1384.3009036352594,108.16067283020405 1440,131 L 1440,700 L 0,700 Z" stroke="none" stroke-width="0" fill="url(#gradient)" fill-opacity="0.4" class="transition-all duration-300 ease-in-out delay-150 path-0" transform="rotate(-180 720 350)"></path><defs><linearGradient id="gradient" x1="81%" y1="89%" x2="19%" y2="11%"><stop offset="5%" stop-color="#11112b"></stop><stop offset="95%" stop-color="#abb8c3"></stop></linearGradient></defs><path d="M 0,700 L 0,306 C 35.37102523555963,294.51515178345335 70.74205047111926,283.0303035669067 113,263 C 155.25794952888074,242.96969643309328 204.40282335108253,214.39393751582645 255,244 C 305.59717664891747,273.60606248417355 357.6466561245505,361.3939463697874 403,370 C 448.3533438754495,378.6060536302126 487.01055215071574,308.0302770050238 532,290 C 576.9894478492843,271.9697229949762 628.3111352725869,306.48494561011756 668,328 C 707.6888647274131,349.51505438988244 735.7449067589367,358.02994055450586 771,343 C 806.2550932410633,327.97005944549414 848.7092376916663,289.3952921718589 902,276 C 955.2907623083337,262.6047078281411 1019.4181424743988,274.38889075805844 1070,290 C 1120.5818575256012,305.61110924194156 1157.6181924107386,325.04914479590735 1196,319 C 1234.3818075892614,312.95085520409265 1274.109087882646,281.41453005831215 1315,275 C 1355.890912117354,268.58546994168785 1397.9454560586769,287.2927349708439 1440,306 L 1440,700 L 0,700 Z" stroke="none" stroke-width="0" fill="url(#gradient)" fill-opacity="0.53" class="transition-all duration-300 ease-in-out delay-150 path-1" transform="rotate(-180 720 350)"></path><defs><linearGradient id="gradient" x1="81%" y1="89%" x2="19%" y2="11%"><stop offset="5%" stop-color="#11112b"></stop><stop offset="95%" stop-color="#abb8c3"></stop></linearGradient></defs><path d="M 0,700 L 0,481 C 40.240969402481596,473.90738579718413 80.48193880496319,466.8147715943682 124,478 C 167.5180611950368,489.1852284056318 214.31321418262888,518.6482994197114 264,525 C 313.6867858173711,531.3517005802886 366.2652044645214,514.5920307267863 412,485 C 457.7347955354786,455.4079692732137 496.62596795928584,412.9835776731436 528,428 C 559.3740320407142,443.0164223268564 583.230923698335,515.4736585806393 632,531 C 680.769076301665,546.5263414193607 754.4503372473743,505.1217880042994 806,485 C 857.5496627526257,464.8782119957006 886.9677273121677,466.0391894021629 929,485 C 971.0322726878323,503.9608105978371 1025.678753503955,540.7214543870491 1060,530 C 1094.321246496045,519.2785456129509 1108.317258672012,461.07499304964057 1153,449 C 1197.682741327988,436.92500695035943 1273.0522118079966,470.9785734143884 1326,484 C 1378.9477881920034,497.0214265856116 1409.4738940960017,489.0107132928058 1440,481 L 1440,700 L 0,700 Z" stroke="none" stroke-width="0" fill="url(#gradient)" fill-opacity="1" class="transition-all duration-300 ease-in-out delay-150 path-2" transform="rotate(-180 720 350)"></path></svg>