<svg id="visual" viewBox="0 0 900 600" width="900" height="600" xmlns="http://www.w3.org/2000/svg" xmlns:xlink="http://www.w3.org/1999/xlink" version="1.1"><path d="M0 88L21.5 102.8C43 117.7 86 147.3 128.8 165.3C171.7 183.3 214.3 189.7 257.2 197.3C300 205 343 214 385.8 230.8C428.7 247.7 471.3 272.3 514.2 265.8C557 259.3 600 221.7 642.8 219.8C685.7 218 728.3 252 771.2 252.2C814 252.3 857 218.7 878.5 201.8L900 185L900 0L878.5 0C857 0 814 0 771.2 0C728.3 0 685.7 0 642.8 0C600 0 557 0 514.2 0C471.3 0 428.7 0 385.8 0C343 0 300 0 257.2 0C214.3 0 171.7 0 128.8 0C86 0 43 0 21.5 0L0 0Z" fill="#d5d9e5"></path><path d="M0 199L21.5 189.8C43 180.7 86 162.3 128.8 138C171.7 113.7 214.3 83.3 257.2 86.8C300 90.3 343 127.7 385.8 149.7C428.7 171.7 471.3 178.3 514.2 160C557 141.7 600 98.3 642.8 85.2C685.7 72 728.3 89 771.2 116C814 143 857 180 878.5 198.5L900 217L900 0L878.5 0C857 0 814 0 771.2 0C728.3 0 685.7 0 642.8 0C600 0 557 0 514.2 0C471.3 0 428.7 0 385.8 0C343 0 300 0 257.2 0C214.3 0 171.7 0 128.8 0C86 0 43 0 21.5 0L0 0Z" fill="#9da1b3"></path><path d="M0 57L21.5 57.2C43 57.3 86 57.7 128.8 55.2C171.7 52.7 214.3 47.3 257.2 66.3C300 85.3 343 128.7 385.8 145C428.7 161.3 471.3 150.7 514.2 129.2C557 107.7 600 75.3 642.8 79C685.7 82.7 728.3 122.3 771.2 138.2C814 154 857 146 878.5 142L900 138L900 0L878.5 0C857 0 814 0 771.2 0C728.3 0 685.7 0 642.8 0C600 0 557 0 514.2 0C471.3 0 428.7 0 385.8 0C343 0 300 0 257.2 0C214.3 0 171.7 0 128.8 0C86 0 43 0 21.5 0L0 0Z" fill="#6a6d83"></path><path d="M0 61L21.5 75.2C43 89.3 86 117.7 128.8 124.8C171.7 132 214.3 118 257.2 98.7C300 79.3 343 54.7 385.8 45.8C428.7 37 471.3 44 514.2 54C557 64 600 77 642.8 75.3C685.7 73.7 728.3 57.3 771.2 55.8C814 54.3 857 67.7 878.5 74.3L900 81L900 0L878.5 0C857 0 814 0 771.2 0C728.3 0 685.7 0 642.8 0C600 0 557 0 514.2 0C471.3 0 428.7 0 385.8 0C343 0 300 0 257.2 0C214.3 0 171.7 0 128.8 0C86 0 43 0 21.5 0L0 0Z" fill="#3b3d55"></path><path d="M0 99L21.5 85C43 71 86 43 128.8 28.2C171.7 13.3 214.3 11.7 257.2 15C300 18.3 343 26.7 385.8 27.8C428.7 29 471.3 23 514.2 29.7C557 36.3 600 55.7 642.8 68.2C685.7 80.7 728.3 86.3 771.2 74.5C814 62.7 857 33.3 878.5 18.7L900 4L900 0L878.5 0C857 0 814 0 771.2 0C728.3 0 685.7 0 642.8 0C600 0 557 0 514.2 0C471.3 0 428.7 0 385.8 0C343 0 300 0 257.2 0C214.3 0 171.7 0 128.8 0C86 0 43 0 21.5 0L0 0Z" fill="#11112b"></path></svg>