<svg width="100%" height="100%" id="svg" viewBox="0 0 1440 590" xmlns="http://www.w3.org/2000/svg" class="transition duration-300 ease-in-out delay-150"><defs><linearGradient id="gradient" x1="7%" y1="25%" x2="93%" y2="75%"><stop offset="5%" stop-color="#11112b"></stop><stop offset="95%" stop-color="#8ED1FC"></stop></linearGradient></defs><path d="M 0,600 L 0,112 C 41.94297693920336,115.67586632137132 83.88595387840672,119.35173264274263 140,130 C 196.11404612159328,140.64826735725737 266.39916142557655,158.2689357504008 315,185 C 363.60083857442345,211.7310642495992 390.5174004192873,247.5725243556542 450,286 C 509.4825995807127,324.4274756443458 601.5312368972747,365.44096682698245 661,384 C 720.4687631027253,402.55903317301755 747.3576519916143,398.6636083364163 787,408 C 826.6423480083857,417.3363916635837 879.0381551362684,439.9045998273524 937,477 C 994.9618448637316,514.0954001726476 1058.4897274633124,565.7179923541745 1123,592 C 1187.5102725366876,618.2820076458255 1253.0029350104821,619.2234307559502 1306,635 C 1358.9970649895179,650.7765692440498 1399.4985324947588,681.3882846220249 1440,712 L 1440,600 L 0,600 Z" stroke="none" stroke-width="0" fill="url(#gradient)" fill-opacity="0.4" class="transition-all duration-300 ease-in-out delay-150 path-0"></path><defs><linearGradient id="gradient" x1="7%" y1="25%" x2="93%" y2="75%"><stop offset="5%" stop-color="#11112b"></stop><stop offset="95%" stop-color="#8ED1FC"></stop></linearGradient></defs><path d="M 0,600 L 0,262 C 42.269429029473415,253.60202244419781 84.53885805894683,245.2040448883956 141,239 C 197.46114194105317,232.7959551116044 268.113996793686,228.78584289061536 328,281 C 387.886003206314,333.21415710938464 437.00515476630903,441.6525835491429 493,460 C 548.994845233691,478.3474164508571 611.8653841410777,406.6038229128129 657,432 C 702.1346158589223,457.3961770871871 729.5333086693797,579.9321247996054 774,612 C 818.4666913306203,644.0678752003946 880.0013811814034,585.6676778887655 942,588 C 1003.9986188185966,590.3323221112345 1066.4611666050068,653.3971636453325 1117,691 C 1167.5388333949932,728.6028363546675 1206.1539523985693,740.743667529905 1258,765 C 1309.8460476014307,789.256332470095 1374.9230238007153,825.6281662350475 1440,862 L 1440,600 L 0,600 Z" stroke="none" stroke-width="0" fill="url(#gradient)" fill-opacity="0.53" class="transition-all duration-300 ease-in-out delay-150 path-1"></path><defs><linearGradient id="gradient" x1="7%" y1="25%" x2="93%" y2="75%"><stop offset="5%" stop-color="#11112b"></stop><stop offset="95%" stop-color="#8ED1FC"></stop></linearGradient></defs><path d="M 0,600 L 0,412 C 43.677000863238376,377.7189789123197 87.35400172647675,343.43795782463934 140,371 C 192.64599827352325,398.56204217536066 254.26099395733138,487.96714761376245 309,521 C 363.7390060426686,554.0328523862376 411.6020224441978,530.6934517203108 467,543 C 522.3979775558022,555.3065482796892 585.3309162658775,603.2590455049944 646,648 C 706.6690837341225,692.7409544950056 765.0743124922925,734.2703662597114 813,743 C 860.9256875077075,751.7296337402886 898.3718337649526,727.6594894561598 952,736 C 1005.6281662350474,744.3405105438402 1075.4383524478974,785.0916759156494 1134,833 C 1192.5616475521026,880.9083240843506 1239.874756443458,935.973806881243 1289,967 C 1338.125243556542,998.026193118757 1389.062621778271,1005.0130965593785 1440,1012 L 1440,600 L 0,600 Z" stroke="none" stroke-width="0" fill="url(#gradient)" fill-opacity="1" class="transition-all duration-300 ease-in-out delay-150 path-2"></path></svg>