<svg id="visual" viewBox="0 0 900 600" width="900" height="600" xmlns="http://www.w3.org/2000/svg" xmlns:xlink="http://www.w3.org/1999/xlink" version="1.1"><path d="M0 288L8.3 268.5C16.7 249 33.3 210 50 207.3C66.7 204.7 83.3 238.3 100 248.3C116.7 258.3 133.3 244.7 150 254.7C166.7 264.7 183.3 298.3 200 314C216.7 329.7 233.3 327.3 250 325.5C266.7 323.7 283.3 322.3 300 319.8C316.7 317.3 333.3 313.7 350 296C366.7 278.3 383.3 246.7 400 240.7C416.7 234.7 433.3 254.3 450 254.5C466.7 254.7 483.3 235.3 500 239.2C516.7 243 533.3 270 550 279.2C566.7 288.3 583.3 279.7 600 269C616.7 258.3 633.3 245.7 650 235.7C666.7 225.7 683.3 218.3 700 219.2C716.7 220 733.3 229 750 219C766.7 209 783.3 180 800 187.2C816.7 194.3 833.3 237.7 850 262.7C866.7 287.7 883.3 294.3 891.7 297.7L900 301L900 0L891.7 0C883.3 0 866.7 0 850 0C833.3 0 816.7 0 800 0C783.3 0 766.7 0 750 0C733.3 0 716.7 0 700 0C683.3 0 666.7 0 650 0C633.3 0 616.7 0 600 0C583.3 0 566.7 0 550 0C533.3 0 516.7 0 500 0C483.3 0 466.7 0 450 0C433.3 0 416.7 0 400 0C383.3 0 366.7 0 350 0C333.3 0 316.7 0 300 0C283.3 0 266.7 0 250 0C233.3 0 216.7 0 200 0C183.3 0 166.7 0 150 0C133.3 0 116.7 0 100 0C83.3 0 66.7 0 50 0C33.3 0 16.7 0 8.3 0L0 0Z" fill="#11112b"></path><path d="M0 163L8.3 170.2C16.7 177.3 33.3 191.7 50 179C66.7 166.3 83.3 126.7 100 107.5C116.7 88.3 133.3 89.7 150 97.8C166.7 106 183.3 121 200 120.7C216.7 120.3 233.3 104.7 250 97.5C266.7 90.3 283.3 91.7 300 102.7C316.7 113.7 333.3 134.3 350 152.2C366.7 170 383.3 185 400 194.7C416.7 204.3 433.3 208.7 450 199.3C466.7 190 483.3 167 500 171.5C516.7 176 533.3 208 550 216.7C566.7 225.3 583.3 210.7 600 203.8C616.7 197 633.3 198 650 191C666.7 184 683.3 169 700 151.5C716.7 134 733.3 114 750 121.7C766.7 129.3 783.3 164.7 800 172.5C816.7 180.3 833.3 160.7 850 168C866.7 175.3 883.3 209.7 891.7 226.8L900 244L900 0L891.7 0C883.3 0 866.7 0 850 0C833.3 0 816.7 0 800 0C783.3 0 766.7 0 750 0C733.3 0 716.7 0 700 0C683.3 0 666.7 0 650 0C633.3 0 616.7 0 600 0C583.3 0 566.7 0 550 0C533.3 0 516.7 0 500 0C483.3 0 466.7 0 450 0C433.3 0 416.7 0 400 0C383.3 0 366.7 0 350 0C333.3 0 316.7 0 300 0C283.3 0 266.7 0 250 0C233.3 0 216.7 0 200 0C183.3 0 166.7 0 150 0C133.3 0 116.7 0 100 0C83.3 0 66.7 0 50 0C33.3 0 16.7 0 8.3 0L0 0Z" fill="#6a6d83"></path><path d="M0 113L8.3 97.5C16.7 82 33.3 51 50 52.8C66.7 54.7 83.3 89.3 100 96.7C116.7 104 133.3 84 150 82.5C166.7 81 183.3 98 200 101.3C216.7 104.7 233.3 94.3 250 88.3C266.7 82.3 283.3 80.7 300 84.3C316.7 88 333.3 97 350 91.3C366.7 85.7 383.3 65.3 400 57.2C416.7 49 433.3 53 450 50.8C466.7 48.7 483.3 40.3 500 49.7C516.7 59 533.3 86 550 101.8C566.7 117.7 583.3 122.3 600 121.5C616.7 120.7 633.3 114.3 650 112.7C666.7 111 683.3 114 700 105.7C716.7 97.3 733.3 77.7 750 84.3C766.7 91 783.3 124 800 130C816.7 136 833.3 115 850 96.8C866.7 78.7 883.3 63.3 891.7 55.7L900 48L900 0L891.7 0C883.3 0 866.7 0 850 0C833.3 0 816.7 0 800 0C783.3 0 766.7 0 750 0C733.3 0 716.7 0 700 0C683.3 0 666.7 0 650 0C633.3 0 616.7 0 600 0C583.3 0 566.7 0 550 0C533.3 0 516.7 0 500 0C483.3 0 466.7 0 450 0C433.3 0 416.7 0 400 0C383.3 0 366.7 0 350 0C333.3 0 316.7 0 300 0C283.3 0 266.7 0 250 0C233.3 0 216.7 0 200 0C183.3 0 166.7 0 150 0C133.3 0 116.7 0 100 0C83.3 0 66.7 0 50 0C33.3 0 16.7 0 8.3 0L0 0Z" fill="#d5d9e5"></path></svg>