<svg width="100%" height="100%" id="svg" viewBox="0 0 1440 390" xmlns="http://www.w3.org/2000/svg" class="transition duration-300 ease-in-out delay-150"><defs><linearGradient id="gradient" x1="50%" y1="100%" x2="50%" y2="0%"><stop offset="5%" stop-color="#11112b"></stop><stop offset="95%" stop-color="#d5d9e5"></stop></linearGradient></defs><path d="M 0,400 L 0,0 C 24.073397359729142,27.073026553310264 48.146794719458285,54.14605310662053 78,76 C 107.85320528054172,97.85394689337947 143.48621848189603,114.48881412682817 174,127 C 204.51378151810397,139.51118587317183 229.9083313529576,147.89869038606668 251,142 C 272.0916686470424,136.10130961393332 288.8804561062737,115.91642432890515 312,119 C 335.1195438937263,122.08357567109485 364.56984422194773,148.4356122983128 392,135 C 419.43015577805227,121.5643877016872 444.84016700593565,68.34112647784367 468,50 C 491.15983299406435,31.658873522156327 512.0694877543099,48.19988179031252 545,72 C 577.9305122456901,95.80011820968748 622.8818819768251,126.85934636090626 652,124 C 681.1181180231749,121.14065363909374 694.4029843383895,84.36273276606241 718,67 C 741.5970156616105,49.637267233937585 775.5061806696169,51.68972257484411 801,77 C 826.4938193303831,102.31027742515589 843.5722929831425,150.87837693456112 867,149 C 890.4277070168575,147.12162306543888 920.2046473978132,94.79676968691153 951,78 C 981.7953526021868,61.20323031308847 1013.6091174256044,79.93454431779278 1040,84 C 1066.3908825743956,88.06545568220722 1087.358882899769,77.46505304191739 1115,81 C 1142.641117100231,84.53494695808261 1176.9553509753196,102.20524351453761 1201,118 C 1225.0446490246804,133.7947564854624 1238.8197131989525,147.71397289993217 1265,144 C 1291.1802868010475,140.28602710006783 1329.7657962288708,118.93886488573365 1361,92 C 1392.2342037711292,65.06113511426635 1416.1171018855646,32.530567557133175 1440,0 L 1440,400 L 0,400 Z" stroke="none" stroke-width="0" fill="url(#gradient)" fill-opacity="0.53" class="transition-all duration-300 ease-in-out delay-150 path-0" transform="rotate(-180 720 200)"></path><defs><linearGradient id="gradient" x1="50%" y1="100%" x2="50%" y2="0%"><stop offset="5%" stop-color="#11112b"></stop><stop offset="95%" stop-color="#d5d9e5"></stop></linearGradient></defs><path d="M 0,400 L 0,0 C 21.62342066468228,108.06296008387446 43.24684132936456,216.12592016774892 71,259 C 98.75315867063544,301.8740798322511 132.63605534722404,279.5592794128789 161,263 C 189.36394465277596,246.44072058712112 212.20893728173922,235.63696218073545 240,241 C 267.7910627182608,246.36303781926455 300.5281955258191,267.89287186417926 326,259 C 351.4718044741809,250.10712813582074 369.6782806149842,210.7915503625476 394,200 C 418.3217193850158,189.2084496374524 448.75868201424424,206.94092668563042 476,227 C 503.24131798575576,247.05907331436958 527.2869913280388,269.44474289493064 555,260 C 582.7130086719612,250.55525710506936 614.0933526736013,209.28010173464688 639,190 C 663.9066473263987,170.71989826535312 682.3395979775559,173.4348501664817 708,194 C 733.6604020224441,214.5651498335183 766.5482554161753,252.98049759942631 798,268 C 829.4517445838247,283.0195024005737 859.4673803577427,274.643159435813 887,254 C 914.5326196422573,233.35684056418702 939.582223152854,200.4468646573218 966,191 C 992.417776847146,181.5531353426782 1020.2037270308415,195.56938193489972 1042,209 C 1063.7962729691585,222.43061806510028 1079.60286872378,235.27560760307932 1110,240 C 1140.39713127622,244.72439239692068 1185.3847980740384,241.32818765278284 1212,225 C 1238.6152019259616,208.67181234721716 1246.8579389800666,179.41164178578921 1267,197 C 1287.1420610199334,214.58835821421079 1319.1834460056953,279.02524520406024 1350,254 C 1380.8165539943047,228.97475479593976 1410.4082769971524,114.48737739796988 1440,0 L 1440,400 L 0,400 Z" stroke="none" stroke-width="0" fill="url(#gradient)" fill-opacity="1" class="transition-all duration-300 ease-in-out delay-150 path-1" transform="rotate(-180 720 200)"></path></svg>