<svg width="100%" height="100%" id="svg" viewBox="0 0 1440 690" xmlns="http://www.w3.org/2000/svg" class="transition duration-300 ease-in-out delay-150"><defs><linearGradient id="gradient" x1="99%" y1="38%" x2="1%" y2="62%"><stop offset="5%" stop-color="#d5d9e5"></stop><stop offset="95%" stop-color="#11112b"></stop></linearGradient></defs><path d="M 0,700 L 0,131 C 61.180515476630916,121.37360956961402 122.36103095326183,111.74721913922804 172,133 C 221.63896904673817,154.25278086077196 259.7363916635836,206.38473301270193 306,217 C 352.2636083364164,227.61526698729807 406.6934023924035,196.71384880996425 465,221 C 523.3065976075965,245.28615119003575 585.4899987668023,324.7598717474411 645,353 C 704.5100012331977,381.2401282525589 761.3466025403874,358.24666420027137 814,380 C 866.6533974596126,401.75333579972863 915.1235910716489,468.2534714514736 968,524 C 1020.8764089283511,579.7465285485264 1078.1590331730176,624.739449993834 1124,639 C 1169.8409668269824,653.260550006166 1204.2402762362808,636.7887285731903 1255,647 C 1305.7597237637192,657.2112714268097 1372.8798618818596,694.1056357134048 1440,731 L 1440,700 L 0,700 Z" stroke="none" stroke-width="0" fill="url(#gradient)" fill-opacity="0.4" class="transition-all duration-300 ease-in-out delay-150 path-0" transform="rotate(-180 720 350)"></path><defs><linearGradient id="gradient" x1="99%" y1="38%" x2="1%" y2="62%"><stop offset="5%" stop-color="#d5d9e5"></stop><stop offset="95%" stop-color="#11112b"></stop></linearGradient></defs><path d="M 0,700 L 0,306 C 43.6660007399186,271.455123936367 87.3320014798372,236.910247872734 135,245 C 182.6679985201628,253.089752127266 234.33799482056975,303.814132445431 294,356 C 353.66200517943025,408.185867554569 421.3160192378839,461.833222345542 475,497 C 528.6839807621161,532.166777654458 568.3979282278948,548.8529781724011 623,554 C 677.6020717721052,559.1470218275989 747.0922678505366,552.7548649648538 808,576 C 868.9077321494634,599.2451350351462 921.2330003699591,652.1275619681835 970,692 C 1018.7669996300409,731.8724380318165 1063.9757306696265,758.7348871624122 1108,766 C 1152.0242693303735,773.2651128375878 1194.8640769515353,760.9328893821679 1250,781 C 1305.1359230484647,801.0671106178321 1372.5679615242325,853.533555308916 1440,906 L 1440,700 L 0,700 Z" stroke="none" stroke-width="0" fill="url(#gradient)" fill-opacity="0.53" class="transition-all duration-300 ease-in-out delay-150 path-1" transform="rotate(-180 720 350)"></path><defs><linearGradient id="gradient" x1="99%" y1="38%" x2="1%" y2="62%"><stop offset="5%" stop-color="#d5d9e5"></stop><stop offset="95%" stop-color="#11112b"></stop></linearGradient></defs><path d="M 0,700 L 0,481 C 42.33404858798865,508.97725983475146 84.6680971759773,536.9545196695029 136,546 C 187.3319028240227,555.0454803304971 247.66165988407937,545.1591811567395 313,541 C 378.33834011592063,536.8408188432605 448.68526328770497,538.4087557035393 495,573 C 541.314736712295,607.5912442964607 563.5972869651006,675.2057960291035 617,710 C 670.4027130348994,744.7942039708965 754.9255888518929,746.7680601800469 819,754 C 883.0744111481071,761.2319398199531 926.7003576273277,773.721963250709 966,816 C 1005.2996423726723,858.278036749291 1040.2729806387965,930.3440868171169 1101,980 C 1161.7270193612035,1029.655913182883 1248.2077198174868,1056.9016894808237 1309,1070 C 1369.7922801825132,1083.0983105191763 1404.8961400912567,1082.0491552595881 1440,1081 L 1440,700 L 0,700 Z" stroke="none" stroke-width="0" fill="url(#gradient)" fill-opacity="1" class="transition-all duration-300 ease-in-out delay-150 path-2" transform="rotate(-180 720 350)"></path></svg>