<svg width="64" height="64" viewBox="0 0 64 64" fill="none" xmlns="http://www.w3.org/2000/svg">
<path fill-rule="evenodd" clip-rule="evenodd" d="M20.0317 27.914C20.0317 28.5889 20.1046 29.1364 20.2324 29.5377C20.3784 29.9391 20.5608 30.377 20.8163 30.8513C20.9075 30.9973 20.9439 31.1432 20.9439 31.271C20.9439 31.4534 20.8345 31.6359 20.5973 31.8183L19.4479 32.5846C19.2837 32.6941 19.1195 32.7488 18.9735 32.7488C18.7911 32.7488 18.6086 32.6576 18.4262 32.4934C18.1707 32.2197 17.9518 31.9278 17.7693 31.6359C17.5869 31.3257 17.4045 30.979 17.2038 30.5594C15.7806 32.2379 13.9926 33.0772 11.8397 33.0772C10.3072 33.0772 9.08476 32.6394 8.19077 31.7636C7.29677 30.8879 6.84065 29.7202 6.84065 28.2606C6.84065 26.7098 7.38799 25.4508 8.50093 24.5021C9.61387 23.5534 11.0917 23.079 12.9709 23.079C13.5913 23.079 14.2299 23.1338 14.9049 23.225C15.5799 23.3162 16.2732 23.4622 17.0031 23.6264V22.2945C17.0031 20.9079 16.7111 19.9409 16.1456 19.3753C15.5617 18.8097 14.5765 18.536 13.1716 18.536C12.5331 18.536 11.8762 18.609 11.2012 18.7732C10.5261 18.9374 9.8693 19.1381 9.23073 19.3936C8.93881 19.5213 8.71987 19.5942 8.59216 19.6307C8.46444 19.6672 8.37321 19.6855 8.30024 19.6855C8.04481 19.6855 7.9171 19.503 7.9171 19.1199V18.2259C7.9171 17.934 7.95358 17.715 8.04481 17.5873C8.13604 17.4596 8.30024 17.3319 8.55567 17.2042C9.19424 16.8758 9.96052 16.6021 10.8545 16.3831C11.7485 16.146 12.6973 16.0365 13.7007 16.0365C15.8719 16.0365 17.4592 16.5291 18.4809 17.5143C19.4844 18.4995 19.9952 19.9956 19.9952 22.0026V27.914H20.0317ZM12.6243 30.6872C13.2264 30.6872 13.8467 30.5777 14.5035 30.3588C15.1603 30.1398 15.7441 29.7384 16.2368 29.1911C16.5287 28.8444 16.7476 28.4613 16.8571 28.0234C16.9665 27.5855 17.0396 27.0564 17.0396 26.4361V25.6698C16.5105 25.5421 15.9448 25.4326 15.361 25.3596C14.7772 25.2866 14.2115 25.2501 13.646 25.2501C12.4236 25.2501 11.5296 25.4874 10.9275 25.9799C10.3254 26.4726 10.0335 27.1659 10.0335 28.0781C10.0335 28.9356 10.2524 29.5742 10.7086 30.0121C11.1464 30.4682 11.785 30.6872 12.6243 30.6872ZM27.2749 32.6576C26.9465 32.6576 26.7276 32.6029 26.5816 32.4752C26.4357 32.3657 26.3079 32.1103 26.1985 31.7636L21.9109 17.6603C21.8014 17.2954 21.7467 17.0582 21.7467 16.9305C21.7467 16.6386 21.8927 16.4744 22.1846 16.4744H23.9726C24.3193 16.4744 24.5564 16.5291 24.6842 16.6568C24.8301 16.7663 24.9396 17.0217 25.0491 17.3684L28.1142 29.4465L30.9604 17.3684C31.0517 17.0035 31.1611 16.7663 31.307 16.6568C31.453 16.5473 31.7084 16.4744 32.0368 16.4744H33.4965C33.8431 16.4744 34.0803 16.5291 34.2262 16.6568C34.3722 16.7663 34.4999 17.0217 34.5729 17.3684L37.4555 29.5924L40.612 17.3684C40.7214 17.0035 40.8491 16.7663 40.9769 16.6568C41.1228 16.5473 41.36 16.4744 41.6884 16.4744H43.3852C43.6771 16.4744 43.8413 16.6203 43.8413 16.9305C43.8413 17.0084 43.828 17.0863 43.8127 17.1756L43.8048 17.2224C43.7866 17.3319 43.7501 17.4778 43.6771 17.6785L39.2801 31.7818C39.1706 32.1467 39.0429 32.3839 38.8969 32.4934C38.751 32.6029 38.5138 32.6758 38.2036 32.6758H36.6346C36.2879 32.6758 36.0507 32.6211 35.9048 32.4934C35.7588 32.3657 35.6311 32.1285 35.5581 31.7636L32.7301 19.9956L29.9204 31.7454C29.8293 32.1103 29.7197 32.3474 29.5738 32.4752C29.4278 32.6029 29.1724 32.6576 28.844 32.6576H27.2749ZM50.7196 33.1502C49.7709 33.1502 48.8221 33.0407 47.9099 32.8218C46.9977 32.6029 46.2861 32.3657 45.8118 32.092C45.5198 31.9278 45.3191 31.7454 45.2461 31.5812C45.1732 31.417 45.1367 31.2345 45.1367 31.0703V30.1398C45.1367 29.7566 45.2827 29.5742 45.5563 29.5742C45.6658 29.5742 45.7753 29.5924 45.8847 29.6289C45.9553 29.6525 46.0485 29.6911 46.1548 29.7352L46.1548 29.7352L46.1549 29.7352C46.2135 29.7595 46.276 29.7854 46.3409 29.8113C46.9611 30.0851 47.6362 30.304 48.3477 30.4499C49.0776 30.5959 49.7892 30.6689 50.5189 30.6689C51.6683 30.6689 52.5624 30.4682 53.1826 30.0668C53.803 29.6655 54.1314 29.0816 54.1314 28.3336C54.1314 27.8227 53.9672 27.4031 53.6388 27.0564C53.3104 26.7098 52.69 26.3996 51.796 26.1077L49.1506 25.2866C47.8186 24.867 46.8335 24.2467 46.2314 23.4257C45.6293 22.6229 45.3191 21.7289 45.3191 20.7802C45.3191 20.0139 45.4833 19.3388 45.8118 18.755C46.1402 18.1711 46.578 17.6603 47.1253 17.2589C47.6727 16.8393 48.293 16.5291 49.0228 16.3102C49.7526 16.0912 50.5189 16 51.3217 16C51.7231 16 52.1427 16.0182 52.5441 16.073C52.9637 16.1277 53.3469 16.2007 53.73 16.2737C54.095 16.3649 54.4415 16.4561 54.7699 16.5656C55.0984 16.6751 55.3538 16.7845 55.5363 16.894C55.7917 17.04 55.9741 17.1859 56.0836 17.3501C56.1931 17.4961 56.2478 17.6968 56.2478 17.9522V18.8097C56.2478 19.1929 56.1018 19.3936 55.8282 19.3936C55.6823 19.3936 55.445 19.3206 55.1348 19.1746C54.0949 18.7002 52.9273 18.4631 51.6318 18.4631C50.5919 18.4631 49.7709 18.6273 49.2053 18.9739C48.6397 19.3206 48.3477 19.8497 48.3477 20.5977C48.3477 21.1086 48.5302 21.5464 48.8952 21.8931C49.2601 22.2398 49.9351 22.5864 50.9021 22.8966L53.4928 23.7176C54.8065 24.1372 55.7552 24.721 56.3208 25.4691C56.8864 26.2172 57.16 27.0747 57.16 28.0234C57.16 28.8079 56.9958 29.5195 56.6857 30.1398C56.3573 30.7601 55.9194 31.3075 55.3538 31.7454C54.7883 32.2014 54.1132 32.5299 53.3286 32.7671C52.5076 33.0225 51.6501 33.1502 50.7196 33.1502ZM54.1678 42.0179C48.1652 46.4513 39.4441 48.805 31.9454 48.805C21.4364 48.805 11.9673 44.9188 4.81529 38.4601C4.2497 37.9492 4.76056 37.2559 5.43562 37.6573C13.1715 42.1455 22.7135 44.864 32.584 44.864C39.2434 44.864 46.5596 43.4774 53.292 40.6313C54.2954 40.1751 55.1529 41.288 54.1678 42.0179ZM49.6431 38.9342C51.5952 38.697 55.901 38.1861 56.6673 39.1714C57.4336 40.1384 55.8098 44.207 55.08 46.0132C54.8611 46.5606 55.3354 46.7795 55.828 46.3599C59.0392 43.6596 59.8784 38.022 59.2216 37.2009C58.5648 36.3981 52.9271 35.7048 49.4971 38.1132C48.968 38.4963 49.0592 39.0072 49.6431 38.9342Z" fill="white"/>
</svg>
