<svg width="64" height="64" viewBox="0 0 64 64" fill="none" xmlns="http://www.w3.org/2000/svg">
<path d="M32 18C26.7 18 22 20 22 22V41.04C22 44 26.54 45.52 32 45.52C37.46 45.52 43 43.98 44 41.04V22C43 19.26 37.3 18 32 18ZM24 22C24.16 21.44 27.16 20 33 20C38.84 20 41.8 21.44 42 22C41.8 22.56 38.8 24 33 24C27.2 24 24.16 22.54 24 22ZM42 41.02C42 41.76 38.94 43.5 33 43.5C27.06 43.5 24 41.78 24 41.04V37.7C26.8267 38.9648 29.9051 39.5668 33 39.46C36.0949 39.5668 39.1733 38.9648 42 37.7V41.02ZM42 35.14C41.54 36.04 38.24 37.44 33 37.44C27.76 37.44 24.46 36 24 35.16V30.8C26.8267 32.0648 29.9051 32.6668 33 32.56C36.0949 32.6668 39.1733 32.0648 42 30.8V35.14ZM42 28.24C41.54 29.14 38.24 30.54 33 30.54C27.76 30.54 24.46 29.14 24 28.24V24.42C26.8552 25.5748 29.9222 26.1132 33 26C36.0778 26.1132 39.1448 25.5748 42 24.42V28.24Z" fill="white"/>
<path d="M16.5205 22.7803L15.8405 20.7803C9.24047 23.1603 5.48047 26.7803 5.48047 30.7803C5.48047 34.7803 9.24047 38.3203 15.8405 40.7803L16.5205 38.9003C10.8605 36.9003 7.48047 33.8603 7.48047 30.9003C7.48047 27.9403 10.8605 24.8203 16.5205 22.7803Z" fill="white"/>
<path d="M47.8008 39.0402L48.4408 40.9402C55.4408 38.5802 59.4608 34.9402 59.4608 30.8002C59.4608 26.6602 55.4608 23.0202 48.4408 20.6602L47.8008 22.5602C53.8008 24.5602 57.4608 27.6802 57.4608 30.8002C57.4608 33.9202 53.8408 37.0002 47.8008 39.0402Z" fill="white"/>
<path d="M6 7.76L14.3 15.76L15.7 14.32L7.06 6H14V4H5C4.73478 4 4.48043 4.10536 4.29289 4.29289C4.10536 4.48043 4 4.73478 4 5V14H6V7.76Z" fill="white"/>
<path d="M59.0008 4H50.0008V6H56.5809L48.3008 14.3L49.7009 15.7L58.0008 7.42V14H60.0008V5C60.0008 4.73478 59.8955 4.48043 59.708 4.29289C59.5204 4.10536 59.2661 4 59.0008 4Z" fill="white"/>
<path d="M58.0008 56.5799L49.7009 48.2998L48.3008 49.6999L56.5809 57.9998H50.0008V59.9998H59.0008C59.2661 59.9998 59.5204 59.8945 59.708 59.707C59.8955 59.5194 60.0008 59.2651 60.0008 58.9998V49.9998H58.0008V56.5799Z" fill="white"/>
<path d="M14.3 48.2998L6 56.5799V49.9998H4V58.9998C4 59.2651 4.10536 59.5194 4.29289 59.707C4.48043 59.8945 4.73478 59.9998 5 59.9998H14V57.9998H7.42L15.7 49.6999L14.3 48.2998Z" fill="white"/>
</svg>
