<svg width="64" height="64" viewBox="0 0 64 64" fill="none" xmlns="http://www.w3.org/2000/svg">
<path d="M39.534 21.4103H41.242L46.1098 16.5425L46.3489 14.4758C43.5603 12.0144 40.1903 10.3046 36.5572 9.50789C32.924 8.71113 29.1477 8.85373 25.585 9.92219C22.0223 10.9907 18.7908 12.9497 16.1958 15.6143C13.6007 18.279 11.7278 21.5611 10.7539 25.1509C11.2962 24.9286 11.8969 24.8925 12.4619 25.0484L22.1976 23.4428C22.1976 23.4428 22.6929 22.623 22.9491 22.6742C25.0352 20.3832 27.9181 18.9762 31.0076 18.7412C34.0971 18.5063 37.1596 19.4611 39.5681 21.4103H39.534Z" fill="white"/>
<path d="M53.0454 25.1492C51.9265 21.0288 49.6292 17.3247 46.4354 14.4912L39.6033 21.3232C41.0272 22.4867 42.1683 23.9582 42.9405 25.627C43.7127 27.2957 44.096 29.118 44.0612 30.9564V32.1691C44.8597 32.1691 45.6504 32.3264 46.3882 32.632C47.1259 32.9375 47.7962 33.3854 48.3608 33.9501C48.9255 34.5147 49.3733 35.185 49.6789 35.9227C49.9845 36.6605 50.1418 37.4511 50.1418 38.2497C50.1418 39.0482 49.9845 39.8388 49.6789 40.5766C49.3733 41.3143 48.9255 41.9846 48.3608 42.5492C47.7962 43.1139 47.1259 43.5618 46.3882 43.8673C45.6504 44.1729 44.8597 44.3302 44.0612 44.3302H31.9002L30.6875 45.5599V52.8532L31.9002 54.0659H44.0612C47.4572 54.0923 50.7714 53.025 53.5138 51.0218C56.2561 49.0186 58.2808 46.1859 59.2884 42.9428C60.296 39.6997 60.233 36.2184 59.1087 33.0139C57.9843 29.8093 55.8584 27.0518 53.0454 25.1492Z" fill="white"/>
<path d="M19.7216 54.0001H31.8827V44.2644H19.7216C18.8552 44.2642 17.999 44.0778 17.2109 43.7178L15.5028 44.2473L10.6008 49.1151L10.1738 50.8231C12.9228 52.8989 16.2771 54.015 19.7216 54.0001Z" fill="white"/>
<path d="M19.7217 22.4171C16.4267 22.4368 13.22 23.4852 10.5497 25.4157C7.87935 27.3463 5.87866 30.0627 4.82706 33.1855C3.77546 36.3083 3.72547 39.6816 4.68406 42.8342C5.64266 45.9868 7.56198 48.7613 10.1739 50.7702L17.228 43.7161C16.3316 43.3111 15.5468 42.6946 14.941 41.9197C14.3352 41.1447 13.9264 40.2343 13.7498 39.2666C13.5732 38.2989 13.634 37.3028 13.927 36.3638C14.22 35.4247 14.7364 34.5708 15.432 33.8753C16.1275 33.1797 16.9815 32.6633 17.9205 32.3703C18.8595 32.0773 19.8556 32.0165 20.8233 32.1931C21.791 32.3697 22.7014 32.7785 23.4764 33.3843C24.2513 33.9901 24.8678 34.7749 25.2728 35.6713L32.3269 28.6172C30.8463 26.6816 28.938 25.1148 26.7513 24.0392C24.5646 22.9636 22.1587 22.4084 19.7217 22.4171Z" fill="white"/>
</svg>
