<svg width="80" height="80" viewBox="0 0 80 80" fill="none" xmlns="http://www.w3.org/2000/svg">
<path fill-rule="evenodd" clip-rule="evenodd" d="M73.7148 21.2265C73.7394 21.3179 73.7521 21.4122 73.7523 21.5069V36.2256C73.7523 36.4145 73.7024 36.6001 73.6077 36.7636C73.513 36.927 73.3769 37.0626 73.213 37.1565L60.8593 44.2691V58.3666C60.8593 58.7503 60.6554 59.1044 60.3227 59.2976L34.5355 74.1424C34.4765 74.1759 34.4121 74.1974 34.3477 74.2202C34.3236 74.2282 34.3008 74.243 34.2753 74.2497C34.095 74.2972 33.9055 74.2972 33.7253 74.2497C33.6958 74.2417 33.669 74.2256 33.6408 74.2148C33.5818 74.1934 33.5201 74.1747 33.4637 74.1424L7.68185 59.2976C7.51807 59.2036 7.38198 59.068 7.2873 58.9045C7.19263 58.7411 7.14271 58.5556 7.14258 58.3666V14.2106C7.14258 14.114 7.15599 14.0201 7.18014 13.9289C7.18819 13.898 7.20697 13.8699 7.2177 13.839C7.23782 13.7827 7.2566 13.725 7.28612 13.6727C7.30624 13.6378 7.33575 13.6096 7.3599 13.5774C7.39075 13.5345 7.41892 13.4902 7.45514 13.4527C7.486 13.4218 7.52624 13.399 7.56112 13.3722C7.60002 13.34 7.6349 13.3051 7.67917 13.2796H7.68051L20.5721 5.85723C20.7353 5.7633 20.9204 5.71387 21.1087 5.71387C21.297 5.71387 21.482 5.7633 21.6453 5.85723L34.5369 13.2796H34.5396C34.5825 13.3064 34.6187 13.34 34.6576 13.3708C34.6925 13.3977 34.7314 13.4218 34.7622 13.4513C34.7998 13.4902 34.8266 13.5345 34.8589 13.5774C34.8817 13.6096 34.9124 13.6378 34.9313 13.6727C34.9621 13.7263 34.9796 13.7827 35.001 13.839C35.0118 13.8699 35.0305 13.898 35.0386 13.9302C35.0633 14.0217 35.0759 14.1159 35.0762 14.2106V41.7901L45.8187 35.6044V21.5055C45.8187 21.4117 45.8321 21.3165 45.8562 21.2265C45.8656 21.1944 45.8831 21.1662 45.8938 21.1353C45.9153 21.079 45.934 21.0213 45.9636 20.9689C45.9837 20.9341 46.0132 20.9059 46.036 20.8737C46.0682 20.8308 46.0951 20.7865 46.1326 20.749C46.1635 20.7181 46.2024 20.6953 46.2372 20.6685C46.2775 20.6363 46.3124 20.6014 46.3553 20.5759H46.3567L59.2495 13.1535C59.4127 13.0595 59.5978 13.01 59.7861 13.01C59.9745 13.01 60.1595 13.0595 60.3227 13.1535L73.2143 20.5759C73.26 20.6027 73.2948 20.6363 73.3351 20.6672C73.3686 20.6939 73.4075 20.7181 73.4384 20.7476C73.4759 20.7865 73.5027 20.8308 73.535 20.8737C73.5591 20.9059 73.5886 20.9341 73.6074 20.9689C73.6382 21.0213 73.6557 21.079 73.6771 21.1353C73.6892 21.1662 73.7066 21.1944 73.7148 21.2265ZM71.6032 35.6044V23.3649L67.0919 25.9619L60.8593 29.5504V41.7901L71.6046 35.6044H71.6032ZM58.7117 57.7456V45.4979L52.5811 48.9991L35.0748 58.9904V71.3535L58.7117 57.7456ZM9.29163 16.0686V57.7456L32.9257 71.3521V58.9918L20.5788 52.004L20.5748 52.0013L20.5694 51.9987C20.5278 51.9746 20.493 51.9397 20.4541 51.9101C20.4205 51.8832 20.3816 51.8618 20.3521 51.8323L20.3494 51.8283C20.3146 51.7948 20.2904 51.7531 20.2609 51.7156C20.234 51.6794 20.2019 51.6485 20.1804 51.611L20.1791 51.607C20.1549 51.5667 20.1402 51.5184 20.1227 51.4728C20.1053 51.4326 20.0825 51.3949 20.0717 51.352V51.3508C20.0584 51.2997 20.0556 51.2461 20.0502 51.1938C20.0449 51.1535 20.0342 51.1133 20.0342 51.073V51.0704V22.2542L13.803 18.6643L9.29163 16.0699V16.0686ZM21.11 8.02774L10.3688 14.2106L21.1074 20.3934L31.8473 14.2093L21.1074 8.02774H21.11ZM26.6959 46.614L32.9271 43.0269V16.0686L28.4158 18.6657L22.1832 22.2542V49.2124L26.6959 46.614ZM59.7861 15.324L49.0463 21.5069L59.7861 27.6898L70.5247 21.5055L59.7861 15.324ZM58.7117 29.5504L52.4791 25.9619L47.9677 23.3649V35.6044L54.1989 39.1916L58.7117 41.7901V29.5504ZM33.9989 57.1325L49.7519 48.1392L57.6264 43.6453L46.8945 37.4664L34.5382 44.5803L23.2765 51.0636L33.9989 57.1325Z" fill="white"/>
</svg>
