<svg width="64" height="64" viewBox="0 0 64 64" fill="none" xmlns="http://www.w3.org/2000/svg">
<path fill-rule="evenodd" clip-rule="evenodd" d="M15.1012 22.593H27.172V23.5478H16.2077V30.7339H26.5182V31.6887H16.2077V39.5784H27.2978V40.5332H15.1012V22.593ZM28.2534 22.593H29.5359L35.2193 30.4827L41.0284 22.593L48.9297 12.5713L35.9486 31.3118L42.6378 40.5332H41.305L35.2193 32.141L29.1084 40.5332H27.8007L34.5403 31.3118L28.2534 22.593ZM43.1156 23.5478V22.593H56.8714V23.5478H50.5342V40.5332H49.4277V23.5478H43.1156ZM0 22.593H1.38312L20.4555 50.996L12.5738 40.5332L1.15679 23.9498L1.1065 40.5332H0V22.593ZM57.1561 38.891C57.1561 39.1162 56.9893 39.2905 56.7605 39.2905C56.5345 39.2905 56.3649 39.1162 56.3649 38.891C56.3649 38.6657 56.5345 38.4914 56.7605 38.4914C56.9893 38.4914 57.1561 38.6657 57.1561 38.891ZM59.0319 39.3388C58.3295 39.3388 57.8478 38.9044 57.8478 38.2393H58.4399C58.4479 38.5584 58.6821 38.773 59.0266 38.773C59.4114 38.773 59.6294 38.5423 59.6294 38.1106V35.3751H60.2322V38.1132C60.2322 38.891 59.7801 39.3388 59.0319 39.3388ZM62.5037 39.3388C61.6425 39.3388 61.0638 38.8963 61.0208 38.2044H61.6182C61.6694 38.5718 62.03 38.8051 62.5494 38.8051C63.0338 38.8051 63.3891 38.5557 63.3891 38.2125C63.3891 37.9175 63.163 37.7405 62.649 37.6198L62.1484 37.4991C61.446 37.3355 61.1257 36.9976 61.1257 36.429C61.1257 35.7398 61.6909 35.2812 62.5386 35.2812C63.3272 35.2812 63.9031 35.7398 63.9381 36.3915H63.3514C63.2949 36.0348 62.9827 35.8122 62.5306 35.8122C62.0542 35.8122 61.7366 36.0402 61.7366 36.3888C61.7366 36.6651 61.9412 36.8233 62.4471 36.9413L62.8751 37.0459C63.6717 37.2309 64 37.5527 64 38.1347C64 38.8749 63.4241 39.3388 62.5037 39.3388Z" fill="white"/>
</svg>
