<svg width="64" height="64" viewBox="0 0 64 64" fill="none" xmlns="http://www.w3.org/2000/svg">
<path fill-rule="evenodd" clip-rule="evenodd" d="M13.3648 24.2139C13.5946 24.3498 13.7349 24.6007 13.7349 24.8739L13.723 34.6189C13.7229 34.6853 13.7059 34.7505 13.6738 34.808C13.6416 34.8656 13.5953 34.9135 13.5396 34.9471C13.4836 34.9814 13.4196 34.9994 13.3544 34.9994C13.2892 34.9994 13.2252 34.9814 13.1692 34.9471L9.5286 32.8074C9.29973 32.6679 9.15751 32.4184 9.15751 32.1482V27.5952C9.15751 27.3235 9.0166 27.0725 8.78714 26.9374L7.23695 26.021C7.12497 25.9525 6.99563 25.919 6.86889 25.919C6.73881 25.9188 6.61101 25.9541 6.49852 26.0211L4.94761 26.9379C4.83502 27.0044 4.74155 27.1003 4.67664 27.2158C4.61174 27.3313 4.5777 27.4623 4.57796 27.5956V32.1489C4.57796 32.4194 4.43762 32.6677 4.20759 32.8082L0.564668 34.9493C0.451821 35.0206 0.310039 35.0206 0.197192 34.9493C0.0814522 34.8825 0.0134548 34.7563 0.0134548 34.6212L0 24.8747C0.000121453 24.7409 0.0344097 24.6095 0.0994459 24.4935C0.164482 24.3776 0.257994 24.2812 0.370658 24.2139L6.49823 20.5954C6.60341 20.533 6.7193 20.5003 6.83677 20.4959H6.90014C7.01871 20.4999 7.13445 20.5341 7.23695 20.5954L13.3648 24.2139ZM42.5583 30.1127C42.6157 30.0792 42.6508 30.0164 42.6508 29.9485L42.6501 27.4546C42.6501 27.3866 42.6154 27.3239 42.5575 27.2898L40.4525 26.0425C40.3946 26.0083 40.3237 26.0083 40.2659 26.0425L38.1623 27.2898C38.1059 27.3239 38.0712 27.3866 38.0712 27.4546V29.9485C38.0712 30.0162 38.1059 30.079 38.1637 30.1127L40.2688 31.3579C40.2969 31.3745 40.3287 31.3832 40.3611 31.3832C40.3936 31.3832 40.4254 31.3745 40.4535 31.3579L42.5583 30.1127ZM43.0349 11.4287C43.0994 11.428 43.163 11.4446 43.2194 11.4768L46.866 13.5658C46.9811 13.6318 47.0771 13.728 47.144 13.8447C47.2109 13.9613 47.2462 14.0942 47.2465 14.2295V32.3327C47.2465 32.6045 47.1047 32.8539 46.8761 32.9905L40.7462 36.6254C40.5166 36.7605 40.2348 36.7605 40.0059 36.6254L33.876 32.992C33.647 32.8554 33.5056 32.6059 33.5056 32.3342V25.0704C33.5058 24.9372 33.5401 24.8065 33.6051 24.6913C33.6701 24.5761 33.7635 24.4804 33.876 24.4141L40.0059 20.7832C40.1183 20.7165 40.2458 20.6814 40.3757 20.6814C40.5055 20.6814 40.6331 20.7165 40.7455 20.7832L42.2805 21.6906C42.3198 21.714 42.3645 21.7263 42.41 21.7263C42.4554 21.7263 42.5001 21.7141 42.5395 21.6907C42.5788 21.6674 42.6115 21.6338 42.6342 21.5934C42.6569 21.553 42.6689 21.5071 42.6688 21.4604V11.809C42.6688 11.6738 42.7385 11.5491 42.8514 11.4808C42.9071 11.4474 42.9703 11.4294 43.0349 11.4287ZM63.9015 27.1111C63.8369 27.2263 63.744 27.3221 63.6321 27.389L59.9553 29.5807C59.841 29.649 59.6992 29.649 59.5849 29.5822C59.4707 29.5139 59.3998 29.3877 59.3998 29.2526V27.4619C59.3998 27.3267 59.3289 27.2005 59.2146 27.1337L57.2947 25.9978C57.1804 25.9295 57.0401 25.9295 56.9258 25.9978L55.0074 27.1337C54.8917 27.2014 54.8222 27.3267 54.8222 27.4627V29.7405C54.8222 29.8756 54.8931 30.0018 55.0089 30.0686L61.1749 33.7006C61.2907 33.7674 61.3616 33.8951 61.3616 34.0317C61.3616 34.1683 61.2878 34.2945 61.172 34.3613L57.4886 36.4624C57.2615 36.5916 56.9866 36.5901 56.7623 36.4579L50.673 32.8958C50.4429 32.7607 50.2997 32.5082 50.2997 32.235V24.9742C50.2997 24.7024 50.44 24.453 50.6701 24.3164L56.7985 20.6859C56.9112 20.6188 57.0393 20.5835 57.1696 20.5835C57.2999 20.5835 57.4279 20.6188 57.5407 20.6859L63.6315 24.3149C63.8597 24.4512 64 24.7011 64 24.9719V26.7324C64 26.8653 63.966 26.9959 63.9015 27.1111ZM31.6339 51.6591C31.4226 51.6591 31.2128 51.6022 31.0277 51.4928L29.0981 50.3204C28.8099 50.155 28.9506 50.0965 29.0456 50.0628C29.4299 49.9247 29.5078 49.8935 29.918 49.6544C29.9611 49.6292 30.0175 49.6381 30.0617 49.6648L31.544 50.5676C31.5975 50.5973 31.6735 50.5973 31.7231 50.5676L37.5029 47.1436C37.5564 47.1124 37.5911 47.0485 37.5911 46.9832V40.1381C37.5911 40.0698 37.5564 40.0089 37.5017 39.9747L31.7243 36.5537C31.6707 36.521 31.5998 36.521 31.5463 36.5537L25.77 39.9747C25.714 40.0074 25.6784 40.0713 25.6784 40.1366V46.9817C25.6784 47.047 25.7132 47.1094 25.7681 47.1406L27.3509 48.079C28.2103 48.52 28.7354 48.0003 28.7354 47.4776V40.7216C28.7354 40.6251 28.8092 40.5509 28.9032 40.5509H29.6353C29.7264 40.5509 29.8017 40.6251 29.8017 40.7216V47.4806C29.8017 48.6566 29.1767 49.3322 28.0902 49.3322C27.756 49.3322 27.4927 49.3322 26.7577 48.961L25.2415 48.0642C25.0572 47.9538 24.9042 47.7958 24.7979 47.6058C24.6915 47.4159 24.6355 47.2008 24.6353 46.9817V40.1366C24.6353 39.6911 24.8668 39.2754 25.2415 39.0556L31.0271 35.6301C31.3931 35.4178 31.8792 35.4178 32.2424 35.6301L38.0207 39.0571C38.205 39.1672 38.358 39.3249 38.4643 39.5146C38.5707 39.7042 38.6268 39.9192 38.6269 40.1381V46.9832C38.6269 47.4272 38.3939 47.8414 38.0207 48.0642L32.2424 51.4897C32.0571 51.5992 31.847 51.6565 31.6333 51.656L31.6339 51.6591ZM33.4185 46.9427C30.8896 46.9427 30.3594 45.7512 30.3594 44.7519C30.3594 44.6569 30.434 44.5812 30.5268 44.5812H31.2733C31.3558 44.5812 31.4252 44.6428 31.4382 44.7264C31.5511 45.5071 31.8867 45.9009 33.4159 45.9009C34.6341 45.9009 35.152 45.6185 35.152 44.9555C35.152 44.5739 35.0045 44.2903 33.1121 44.1002C31.5294 43.9399 30.5514 43.582 30.5514 42.2828C30.5514 41.086 31.5352 40.3733 33.183 40.3733C35.0334 40.3733 35.9506 41.0325 36.0664 42.4491C36.0683 42.4729 36.0654 42.4969 36.0578 42.5195C36.0503 42.5421 36.0382 42.5628 36.0225 42.5804C36.0067 42.598 35.9875 42.612 35.9662 42.6216C35.9449 42.6312 35.9218 42.6362 35.8986 42.6362H35.1477C35.0696 42.6362 35.0016 42.5797 34.9857 42.5025C34.8048 41.6814 34.3679 41.4186 33.1801 41.4186C31.8505 41.4186 31.6957 41.8937 31.6957 42.2501C31.6957 42.6822 31.878 42.8084 33.672 43.0519C35.4486 43.294 36.2921 43.6355 36.2921 44.9169C36.2921 46.2087 35.2417 46.9496 33.4101 46.9496L33.4185 46.9427ZM40.4501 39.6902H40.6439C40.8031 39.6902 40.8334 39.5759 40.8334 39.5091C40.8334 39.3339 40.7163 39.3339 40.6511 39.3339H40.4515L40.4501 39.6902ZM40.2142 39.129H40.6439C40.7915 39.129 41.0808 39.129 41.0808 39.4675C41.0808 39.7029 40.9341 39.7523 40.8457 39.7821L40.845 39.7823C41.0125 39.7939 41.028 39.9038 41.05 40.0602L41.0519 40.0733L41.0532 40.085V40.0851L41.0532 40.0853C41.0649 40.189 41.0836 40.3547 41.117 40.4119H40.8522L40.8472 40.3704C40.834 40.2634 40.8045 40.0232 40.8045 40.008C40.7871 39.9352 40.7626 39.8996 40.6743 39.8996H40.4558V40.4134H40.2142V39.129ZM39.6977 39.7675C39.6977 40.299 40.1159 40.7296 40.6294 40.7296C41.1474 40.7296 41.5655 40.2901 41.5655 39.7675C41.5655 39.2344 41.1416 38.8112 40.628 38.8112C40.1216 38.8112 39.6963 39.2285 39.6963 39.766L39.6977 39.7675ZM41.7449 39.7704C41.7449 40.4 41.2429 40.9138 40.6309 40.9138C40.0233 40.9138 39.5169 40.4059 39.5169 39.7704C39.5169 39.123 40.0348 38.6271 40.6309 38.6271C41.2313 38.6271 41.7434 39.1245 41.7434 39.7704H41.7449ZM57.1557 26.8608C57.1773 26.8479 57.2017 26.8411 57.2266 26.8411C57.2516 26.8411 57.276 26.8479 57.2975 26.8608L58.4737 27.5572C58.5177 27.5834 58.5446 27.6315 58.5446 27.6834V29.0777C58.5446 29.1297 58.5177 29.1778 58.4737 29.2039L57.2975 29.9003C57.276 29.9132 57.2516 29.92 57.2266 29.92C57.2017 29.92 57.1773 29.9132 57.1557 29.9003L55.9803 29.2039C55.9584 29.1913 55.9402 29.173 55.9275 29.1508C55.9148 29.1287 55.908 29.1034 55.9079 29.0777V27.6834C55.9079 27.6315 55.934 27.5834 55.9788 27.5572L57.1557 26.8608ZM23.7267 20.4538C23.5981 20.4538 23.4718 20.4887 23.3608 20.555L17.2861 24.1265C17.0546 24.2606 16.9202 24.5073 16.9202 24.7738V31.9245C16.9207 32.0564 16.9555 32.1859 17.0211 32.2996C17.0867 32.4133 17.1807 32.5073 17.2936 32.5718L23.3608 36.1433C23.4718 36.2096 23.5981 36.2445 23.7267 36.2445C23.8553 36.2445 23.9816 36.2096 24.0926 36.1433L30.1635 32.5718C30.3906 32.4378 30.5294 32.191 30.5294 31.9245V24.7738C30.5294 24.5073 30.3906 24.2606 30.1635 24.1265L24.0926 20.555C23.9816 20.4887 23.8553 20.4538 23.7267 20.4538Z" fill="white"/>
</svg>
