<svg width="80" height="80" viewBox="0 0 80 80" fill="none" xmlns="http://www.w3.org/2000/svg">
<path fill-rule="evenodd" clip-rule="evenodd" d="M34.7292 21.4287H40.4021L38.7989 29.2803H43.8963C46.6917 29.3354 48.7742 29.9109 50.1447 31.0069C51.5424 32.1028 51.9535 34.1861 51.378 37.2553L48.6237 50.9442H42.8686L45.4995 37.8719C45.7733 36.5014 45.6911 35.5287 45.2529 34.9532C44.8146 34.3777 43.8692 34.09 42.4164 34.09L37.8534 34.0489L34.4826 50.9442H28.8097L34.7292 21.4287ZM8.73586 29.2809H19.7528C22.9864 29.308 25.3295 30.2403 26.7823 32.0762C28.235 33.9121 28.7143 36.4197 28.221 39.599C28.0295 41.0517 27.6044 42.4765 26.9467 43.8742C26.3161 45.2719 25.4397 46.5323 24.3158 47.6561C22.9453 49.081 21.4793 49.9853 19.9172 50.3693C18.3551 50.7532 16.738 50.9448 15.0665 50.9448H10.1335L8.57143 58.7553H2.85742L8.73586 29.2809ZM11.079 46.2996L13.5373 34.0083H14.3677C14.6694 34.0083 14.9843 33.9943 15.3131 33.9672C17.5058 33.94 19.3278 34.1456 20.7805 34.5838C22.2604 35.022 22.7537 36.6803 22.2604 39.5579C21.6577 42.9838 20.4788 44.9841 18.7251 45.5596C16.9714 46.108 14.7787 46.3678 12.1478 46.3407H11.5723C11.4079 46.3407 11.2434 46.3267 11.079 46.2996ZM68.4873 29.2809H57.4703L51.5919 58.7553H57.3059L58.868 50.9448H63.801C65.4724 50.9448 67.0896 50.7532 68.6517 50.3693C70.2138 49.9853 71.6797 49.081 73.0503 47.6561C74.1741 46.5323 75.0506 45.2719 75.6812 43.8742C76.3389 42.4765 76.7639 41.0517 76.9555 39.599C77.4488 36.4197 76.9695 33.9121 75.5167 32.0762C74.064 30.2403 71.7208 29.308 68.4873 29.2809ZM62.2718 34.0083L59.8135 46.2996C59.9779 46.3267 60.1424 46.3407 60.3068 46.3407H60.8823C63.5132 46.3678 65.7059 46.108 67.4596 45.5596C69.2133 44.9841 70.3922 42.9838 70.9949 39.5579C71.4882 36.6803 70.9949 35.022 69.515 34.5838C68.0622 34.1456 66.2403 33.94 64.0476 33.9672C63.7188 33.9943 63.4038 34.0083 63.1021 34.0083H62.2718Z" fill="white"/>
</svg>
