<svg width="64" height="64" viewBox="0 0 64 64" fill="none" xmlns="http://www.w3.org/2000/svg">
<path fill-rule="evenodd" clip-rule="evenodd" d="M43.6397 4.57198C43.1996 4.64447 42.7595 4.71576 42.32 4.78696C41.8092 4.8697 41.2991 4.95232 40.7907 5.03656L40.925 5.10373C41.4776 5.52543 42.1012 5.85496 42.7212 6.1826C43.2945 6.48553 43.8648 6.78686 44.373 7.15795C47.4123 9.38568 50.642 13.3766 51.532 17.6361C51.8673 19.236 51.4074 21.5736 51.0818 23.2284L51.0818 23.2286L51.0818 23.2286C51.0269 23.5075 50.9758 23.767 50.9331 24.0003C50.6941 25.3119 50.9241 26.5213 51.1582 27.752C51.3956 29.0003 51.6372 30.2705 51.3976 31.691C51.3209 32.1449 51.1072 32.8347 50.8913 33.5315L50.8912 33.5316C50.5399 34.6652 50.1829 35.8173 50.4013 36.001V35.8667C50.9544 35.3173 51.3204 34.5562 51.6838 33.8005L51.6839 33.8004L51.6839 33.8003L51.6839 33.8003C51.8684 33.4166 52.0523 33.0343 52.2596 32.6818C54.7169 28.4838 56.4744 23.5637 57.6946 18.1623C58.1536 16.1193 58.5734 12.6265 57.7618 10.6675C57.3476 9.67675 56.3121 8.78117 55.5061 8.14867C52.4443 5.73063 49.3322 4.5384 43.6397 4.57198ZM32.8315 5.17086C32.3221 5.21564 31.8127 5.26041 31.309 5.30519C30.756 5.45809 30.2029 5.61287 29.651 5.76735L29.6508 5.76741L29.6508 5.76741L29.6504 5.76751L29.65 5.76763C29.2526 5.87886 28.8558 5.98993 28.4599 6.10001C24.1668 7.95273 21.6256 13.1974 21.3625 19.0298L21.3651 19.0286L21.3651 19.0286L21.3651 19.0285L21.3652 19.0285L21.3652 19.0285C22.344 18.5419 23.401 18.0164 24.5474 17.7033C30.3462 16.1248 31.1411 19.8303 31.9079 24.2689C32.199 25.9537 32.2493 28.3326 31.8407 29.9726C31.4951 31.3552 30.9606 32.5768 30.4531 33.7368L30.447 33.7508L29.1204 37.529H29.1876C29.7361 37.3835 30.3071 37.5682 30.7101 37.7305C32.8745 38.572 32.8585 40.5657 32.8362 43.3374C32.8339 43.6263 32.8315 43.9237 32.8315 44.229C32.8315 44.9082 32.8218 45.6157 32.812 46.3379L32.812 46.3381C32.7373 51.8176 32.6512 58.1378 36.6768 59.2802C38.0426 59.6665 39.6546 59.2131 40.7237 58.8828C45.1182 57.5258 45.5132 53.2135 45.9461 48.4869C46.0827 46.9945 46.2232 45.4609 46.4945 43.966C46.6036 43.3595 46.6231 42.6689 46.6425 41.9791V41.979C46.6749 40.8287 46.7072 39.6806 47.155 38.9284C47.4941 38.3569 47.9551 38.1121 48.4656 37.8411C48.705 37.714 48.9554 37.581 49.2092 37.4059C49.079 37.203 48.948 36.9993 48.8164 36.7949C46.5055 33.2027 44.0294 29.3538 42.7107 24.8735C41.0315 19.1698 43.9981 16.8861 49.6066 17.2499C47.0543 10.6171 41.9159 5.22123 32.8315 5.17086ZM14.4049 5.45596C14.8654 5.40428 15.3265 5.35254 15.7876 5.29954C18.0845 5.32598 19.9759 5.77058 21.7941 6.19795C22.6699 6.40379 23.5286 6.60564 24.4075 6.75484V6.82201C21.2674 10.9361 20.5509 13.1022 19.5658 19.4888L19.7001 25.657C19.6441 26.2196 19.5896 26.7835 19.535 27.3474C19.4804 27.9114 19.4258 28.4753 19.3699 29.0378C18.7678 32.7459 20.6202 34.9073 22.1274 36.666L22.1276 36.6662C22.2038 36.7551 22.2792 36.843 22.3533 36.9301C20.7132 38.7884 19.0788 40.6411 17.4444 42.4994C17.4077 42.5366 17.3695 42.5762 17.3297 42.6175C16.8904 43.0737 16.2567 43.7318 15.2558 43.4957C13.1794 43.0055 11.5799 39.2853 10.724 37.2945L10.6828 37.1987C8.20321 31.4167 3.57982 17.664 6.83746 10.2756C7.88416 7.8967 10.1231 6.31825 12.8714 5.62978C13.3813 5.57084 13.8927 5.51344 14.4048 5.45597L14.4049 5.45596ZM52.4557 39.8464C51.9883 39.7579 51.592 39.5765 51.2081 39.4007C50.8148 39.2208 50.4345 39.0467 50.004 38.9844C49.9147 39.0321 49.8292 39.0768 49.7475 39.1195L49.7475 39.1196L49.7474 39.1196C48.7955 39.6171 48.3628 39.8433 48.4144 41.5032C51.2354 42.8858 56.6313 40.977 57.8963 39.4489C57.4408 39.4973 56.9641 39.5774 56.4722 39.66C55.199 39.8739 53.8244 40.1048 52.4557 39.8464ZM26.7304 42.1019C27.6372 41.1335 28.544 40.1596 29.4507 39.1856C31.7233 39.264 31.2027 41.7212 30.1168 42.6336C27.9227 44.4695 25.3311 44.7158 22.2246 43.6299L22.1574 43.4956C22.5291 43.3999 22.9291 43.3123 23.3384 43.2227C24.556 42.956 25.8549 42.6716 26.7304 42.1019ZM49.2091 24.269C49.3098 23.3846 49.4092 22.5002 49.5085 21.6158L49.5095 21.6074C49.6085 20.7258 49.7076 19.8443 49.808 18.9627L49.7439 18.9602C47.5699 18.8769 45.3381 18.7914 44.4346 20.1549C43.7853 21.14 44.0148 23.2502 44.3674 24.3977C45.2462 27.2523 46.6343 29.7264 48.0168 32.0884C48.1707 32.4102 48.326 32.7306 48.4813 33.0509C48.6367 33.3714 48.792 33.692 48.946 34.0139L49.0803 33.9467C49.146 33.6005 49.2328 33.2472 49.3222 32.8834L49.3222 32.8834C49.5983 31.7592 49.8991 30.5344 49.6792 29.1051C49.5711 28.0312 49.468 26.9573 49.3648 25.8834L49.3645 25.8805C49.3129 25.3433 49.2613 24.8062 49.2091 24.269ZM46.5839 22.0412C45.8115 21.8285 45.5092 21.6718 45.0615 21.1792C45.0922 20.8806 45.1402 20.8197 45.2351 20.6992C45.2612 20.6661 45.2908 20.6285 45.3245 20.5803C45.4145 20.5452 45.4952 20.5027 45.5808 20.4576C45.8361 20.3231 46.1343 20.166 46.847 20.1157C47.5075 20.2277 47.7258 20.334 48.0392 20.7762C47.7264 21.3627 47.4676 21.5142 47.022 21.7751L47.0219 21.7751C46.8934 21.8504 46.7493 21.9347 46.5839 22.0412ZM26.1371 19.1584C27.1614 19.1472 28.0681 19.1976 28.6559 19.623C30.2623 20.7928 30.8052 27.0339 30.1112 29.771C29.8247 30.9048 29.3811 31.9019 28.9461 32.8798C28.7777 33.2584 28.6106 33.6341 28.4544 34.0137C28.1185 35.0548 27.7883 36.0903 27.458 37.1314C23.7862 37.0923 21.6704 34.3888 21.0995 31.2207C20.8402 29.8184 21.0958 28.1896 21.3222 26.7477C21.3597 26.509 21.3963 26.2753 21.4297 26.0487L21.2954 21.0783C22.073 20.6587 22.845 20.2392 23.617 19.8196L23.6183 19.8189C24.038 19.7098 24.4578 19.5992 24.8775 19.4887C25.2974 19.3781 25.7172 19.2676 26.1371 19.1584ZM25.499 21.1175C25.5717 22.6903 28.001 23.2948 28.6167 21.8451C28.6238 21.7879 28.6304 21.7313 28.637 21.6749C28.6509 21.5546 28.6648 21.4353 28.6838 21.3134C28.0234 20.8264 27.4133 20.6137 26.1651 20.6529C26.0643 20.7089 25.9649 20.7635 25.8656 20.818C25.7662 20.8726 25.6669 20.9272 25.5661 20.9831L25.499 21.1175Z" fill="white"/>
</svg>
