<svg width="64" height="64" viewBox="0 0 64 64" fill="none" xmlns="http://www.w3.org/2000/svg">
<path fill-rule="evenodd" clip-rule="evenodd" d="M45.0424 8.60517C45.8797 9.08856 46.546 10.0604 46.8925 11.68C47.2388 13.2993 47.2293 15.4283 46.8246 17.9542C46.6691 18.9247 46.4569 19.9439 46.1891 21.003C43.8386 20.471 41.2768 20.0687 38.5685 19.8183C36.9975 17.5981 35.3682 15.5806 33.7322 13.811C34.5155 13.0495 35.292 12.3562 36.0548 11.7362C38.04 10.1228 39.8789 9.05009 41.4545 8.54037C43.0303 8.0306 44.2051 8.12178 45.0424 8.60517ZM30.2655 13.811C29.4823 13.0496 28.7058 12.3562 27.9431 11.7364C25.9579 10.1229 24.1189 9.05021 22.5433 8.54049C20.9675 8.03072 19.7927 8.1219 18.9554 8.60529C18.1182 9.08868 17.4518 10.0605 17.1054 11.6801C16.759 13.2994 16.7685 15.4284 17.1732 17.9543C17.3287 18.9248 17.5409 19.944 17.8087 21.0031C20.1592 20.4711 22.721 20.0687 25.4292 19.8183C27.0002 17.5981 28.6295 15.5806 30.2655 13.811ZM31.9989 12.0311C31.1639 11.2193 30.332 10.4764 29.51 9.80836C27.3871 8.08294 25.2777 6.81383 23.308 6.17664C21.3386 5.53951 19.3714 5.49632 17.7132 6.45367C16.055 7.41102 15.1088 9.13626 14.6759 11.1604C14.2429 13.1848 14.2872 15.6461 14.72 18.3474C14.8876 19.3933 15.115 20.4852 15.4006 21.6143C14.2802 21.9314 13.2209 22.2804 12.2314 22.6582C9.67567 23.634 7.52188 24.8263 5.98524 26.2134C4.44873 27.6005 3.42773 29.2825 3.42773 31.1972C3.42773 33.1119 4.44873 34.794 5.98524 36.181C7.52188 37.5682 9.67567 38.7604 12.2314 39.7363C13.2209 40.1141 14.2802 40.463 15.4006 40.7802C15.115 41.9092 14.8876 43.0011 14.72 44.047C14.2872 46.7482 14.2429 49.2096 14.6759 51.234C15.1088 53.2581 16.055 54.9834 17.7132 55.9407C19.3714 56.8981 21.3386 56.8549 23.308 56.2177C25.2777 55.5806 27.3871 54.3114 29.51 52.586C30.332 51.918 31.1639 51.1751 31.9989 50.3633C32.8338 51.1751 33.6658 51.9181 34.4878 52.5862C36.6107 54.3116 38.7202 55.5807 40.6898 56.2179C42.6593 56.855 44.6264 56.8982 46.2846 55.9408C47.9428 54.9835 48.889 53.2582 49.322 51.2341C49.755 49.2097 49.7106 46.7484 49.2778 44.0471C49.1103 43.0013 48.8828 41.9093 48.5973 40.7803C49.7179 40.4631 50.7773 40.1141 51.7669 39.7363C54.3227 38.7604 56.4765 37.5682 58.0131 36.181C59.5496 34.794 60.5706 33.1119 60.5706 31.1972C60.5706 29.2825 59.5496 27.6005 58.0131 26.2134C56.4765 24.8263 54.3227 23.634 51.7669 22.6582C50.7773 22.2803 49.7179 21.9313 48.5972 21.6141C48.8828 20.4851 49.1102 19.3932 49.2778 18.3473C49.7106 15.646 49.755 13.1847 49.322 11.1603C48.889 9.13614 47.9428 7.4109 46.2846 6.45355C44.6264 5.4962 42.6593 5.53938 40.6898 6.17652C38.7202 6.81371 36.6107 8.08282 34.4878 9.80823C33.6658 10.4763 32.8338 11.2193 31.9989 12.0311ZM45.5097 23.3967C43.905 23.0382 42.1883 22.7409 40.3824 22.5143C40.9716 23.4354 41.549 24.3845 42.1115 25.3587C42.674 26.333 43.2072 27.3075 43.7102 28.2783C44.417 26.6011 45.0178 24.9657 45.5097 23.3967ZM45.1382 31.1972C46.2754 28.7266 47.2079 26.3068 47.9224 24.0052C48.9736 24.3028 49.9624 24.6286 50.8807 24.9792C53.2706 25.8917 55.1191 26.948 56.3483 28.0576C57.5777 29.1674 58.0861 30.2304 58.0861 31.1972C58.0861 32.164 57.5777 33.227 56.3483 34.3368C55.1191 35.4465 53.2706 36.5027 50.8807 37.4152C49.9624 37.7658 48.9736 38.0917 47.9224 38.3893C47.2079 36.0877 46.2754 33.6678 45.1382 31.1972ZM42.3921 31.1972C41.6618 29.6811 40.8504 28.1434 39.9599 26.601C39.0694 25.0585 38.1434 23.5869 37.1955 22.1965C35.5174 22.0708 33.7801 22.0047 31.9992 22.0047C30.218 22.0047 28.4805 22.0708 26.8023 22.1965C25.8544 23.5869 24.9284 25.0585 24.0379 26.6009C23.1474 28.1433 22.336 29.6811 21.6057 31.1972C22.336 32.7133 23.1474 34.2511 24.0379 35.7935C24.9284 37.3359 25.8544 38.8075 26.8023 40.1979C28.4805 40.3236 30.218 40.3898 31.9992 40.3898C33.7801 40.3898 35.5174 40.3236 37.1954 40.198C38.1433 38.8075 39.0694 37.3359 39.9599 35.7934C40.8504 34.251 41.6618 32.7133 42.3921 31.1972ZM40.3823 39.8801C40.9716 38.959 41.549 38.01 42.1115 37.0356C42.674 36.0614 43.2072 35.0869 43.7102 34.116C44.417 35.7933 45.0178 37.4288 45.5097 38.9977C43.905 39.3562 42.1882 39.6536 40.3823 39.8801ZM35.3267 42.799C34.2345 42.8487 33.124 42.8742 31.9992 42.8742C30.8741 42.8742 29.7634 42.8487 28.671 42.7989C29.7702 44.2496 30.8861 45.5876 31.9989 46.7981C33.1117 45.5877 34.2275 44.2496 35.3267 42.799ZM33.7322 48.5834C35.3682 46.8138 36.9975 44.7964 38.5685 42.5762C41.2767 42.3258 43.8386 41.9235 46.1891 41.3915C46.4569 42.4505 46.6691 43.4697 46.8246 44.4402C47.2293 46.9661 47.2388 49.0951 46.8925 50.7144C46.546 52.334 45.8797 53.3058 45.0424 53.7892C44.2051 54.2726 43.0303 54.3638 41.4545 53.854C39.8789 53.3443 38.04 52.2716 36.0548 50.6581C35.292 50.0382 34.5155 49.3448 33.7322 48.5834ZM30.2655 48.5833C28.6296 46.8138 27.0002 44.7963 25.4292 42.5761C22.721 42.3257 20.1592 41.9234 17.8087 41.3913C17.5409 42.4504 17.3287 43.4696 17.1732 44.44C16.7685 46.966 16.759 49.0949 17.1054 50.7143C17.4518 52.3338 18.1182 53.3057 18.9554 53.7891C19.7927 54.2725 20.9675 54.3637 22.5433 53.8539C24.1189 53.3442 25.9579 52.2715 27.9431 50.658C28.7058 50.0381 29.4823 49.3448 30.2655 48.5833ZM18.4881 38.9976C20.0928 39.3561 21.8095 39.6535 23.6154 39.8801C23.0262 38.959 22.4488 38.01 21.8863 37.0358C21.3238 36.0615 20.7906 35.0869 20.2876 34.1161C19.5808 35.7933 18.98 37.4287 18.4881 38.9976ZM20.2876 28.2783C20.7906 27.3075 21.3238 26.3329 21.8863 25.3586C22.4488 24.3844 23.0261 23.4354 23.6154 22.5144C21.8095 22.741 20.0928 23.0383 18.4882 23.3968C18.98 24.9657 19.5809 26.6011 20.2876 28.2783ZM18.8596 31.1972C17.7224 33.6678 16.7899 36.0876 16.0754 38.3891C15.0244 38.0916 14.0358 37.7658 13.1176 37.4152C10.7277 36.5027 8.87926 35.4465 7.65003 34.3368C6.42067 33.227 5.91221 32.164 5.91221 31.1972C5.91221 30.2304 6.42067 29.1674 7.65003 28.0576C8.87926 26.948 10.7277 25.8917 13.1176 24.9792C14.0358 24.6287 15.0244 24.3029 16.0754 24.0053C16.7899 26.3069 17.7224 28.7266 18.8596 31.1972ZM28.671 19.5955C29.7634 19.5457 30.8741 19.5202 31.9992 19.5202C33.1241 19.5202 34.2345 19.5457 35.3267 19.5955C34.2276 18.1448 33.1117 16.8068 31.9989 15.5963C30.8861 16.8068 29.7702 18.1448 28.671 19.5955ZM37.0922 31.197C37.0922 34.0099 34.8119 36.2901 31.999 36.2901C29.1862 36.2901 26.9059 34.0099 26.9059 31.197C26.9059 28.3841 29.1862 26.1038 31.999 26.1038C34.8119 26.1038 37.0922 28.3841 37.0922 31.197Z" fill="white"/>
</svg>
