<svg width="64" height="64" viewBox="0 0 64 64" fill="none" xmlns="http://www.w3.org/2000/svg">
<g clip-path="url(#clip0_737_89309)">
<mask id="mask0_737_89309" style="mask-type:luminance" maskUnits="userSpaceOnUse" x="5" y="5" width="54" height="54">
<path d="M59 5H5V59H59V5Z" fill="white"/>
</mask>
<g mask="url(#mask0_737_89309)">
<path d="M54.6352 46.4266C51.7107 46.3537 49.444 46.6464 47.543 47.4505C46.9946 47.6696 46.1172 47.67 46.044 48.3644C46.3366 48.6571 46.3731 49.1322 46.629 49.5343C47.068 50.2652 47.8353 51.2525 48.5301 51.7644C49.2977 52.3492 50.0655 52.9341 50.8696 53.446C52.2954 54.3235 53.904 54.835 55.2931 55.7125C56.0977 56.224 56.9016 56.8825 57.7058 57.4308C58.1081 57.723 58.3639 58.1984 58.8758 58.3811V58.2716C58.6198 57.9425 58.5466 57.4673 58.2909 57.1017C57.9256 56.7361 57.5597 56.4071 57.1941 56.0415C56.1339 54.6158 54.8179 53.3728 53.3922 52.3492C52.2226 51.545 49.6633 50.4482 49.188 49.0956L49.115 49.0227C49.9192 48.9494 50.8696 48.6571 51.6374 48.4375C52.8805 48.1085 54.0138 48.1816 55.2931 47.8527C55.878 47.7064 56.4631 47.5236 57.0478 47.3408V47.0119C56.3901 46.3537 55.9146 45.4765 55.2201 44.855C53.3557 43.2461 51.3083 41.6744 49.188 40.3584C48.0546 39.6273 46.5923 39.1518 45.386 38.5306C44.9475 38.3109 44.2161 38.2015 43.9605 37.8359C43.3022 37.0316 42.9366 35.9716 42.4614 35.0209C41.4016 33.0101 40.3777 30.7804 39.4636 28.6601C38.8058 27.2343 38.4036 25.8084 37.5993 24.4925C33.8339 18.2777 29.7394 14.5123 23.4516 10.8199C22.0989 10.0522 20.4905 9.72311 18.7722 9.32115C17.8587 9.28439 16.9445 9.21147 16.0305 9.17481C15.4456 8.9189 14.8606 8.22436 14.3487 7.89523C12.2653 6.5791 6.89111 3.72785 5.35562 7.49327C4.36852 9.86953 6.81799 12.209 7.65866 13.4156C8.28047 14.2564 9.08458 15.2068 9.52329 16.1574C9.7792 16.7785 9.85213 17.4369 10.1081 18.0949C10.6932 19.703 11.2413 21.4947 12.0091 22.9937C12.4114 23.7613 12.8499 24.5656 13.3618 25.2601C13.6542 25.6621 14.1658 25.8451 14.2758 26.5031C13.7641 27.2343 13.7274 28.3311 13.4347 29.2449C12.1188 33.3759 12.6306 38.4939 14.495 41.5281C15.0798 42.4418 16.4692 44.4529 18.3335 43.6851C19.9787 43.0271 19.6131 40.9433 20.0882 39.1154C20.1981 38.6764 20.1249 38.3842 20.3443 38.0919V38.165C20.8561 39.1885 21.3677 40.1757 21.8429 41.1993C22.9763 42.9904 24.9504 44.855 26.5954 46.098C27.4732 46.7558 28.1676 47.8892 29.2643 48.2915V48.1816H29.1911C28.9716 47.8525 28.6428 47.7064 28.3503 47.4504C27.6923 46.7926 26.9609 45.9881 26.4493 45.257C24.9141 43.2097 23.5612 40.9433 22.3548 38.6035C21.77 37.4703 21.258 36.2273 20.783 35.0941C20.5635 34.6551 20.5635 33.9974 20.1979 33.7781C19.6494 34.5822 18.8454 35.2769 18.4432 36.2639C17.749 37.8359 17.6756 39.7734 17.4197 41.784C17.2735 41.8208 17.3464 41.784 17.2733 41.8572C16.1036 41.5645 15.7014 40.3585 15.2625 39.3347C14.1658 36.7392 13.9831 32.5715 14.9337 29.5741C15.1897 28.8062 16.2864 26.3935 15.8477 25.6623C15.6284 24.9677 14.897 24.5656 14.495 24.0172C14.0198 23.3226 13.5079 22.4454 13.179 21.6775C12.3015 19.6304 11.8628 17.3637 10.9125 15.3164C10.4737 14.3657 9.70608 13.3789 9.08448 12.5017C8.39014 11.5146 7.6223 10.8199 7.07391 9.64999C6.89131 9.24793 6.63519 8.58995 6.92758 8.15125C7.0007 7.85887 7.14684 7.74919 7.43951 7.67607C7.91458 7.27373 9.26737 7.78565 9.74255 8.00491C11.0951 8.55301 12.2284 9.06514 13.3618 9.83288C13.8735 10.1984 14.4219 10.893 15.0799 11.0758H15.8477C17.0176 11.3315 18.3335 11.149 19.4303 11.4779C21.3679 12.0992 23.1224 13.0133 24.6946 14.0005C29.4838 17.0347 33.4318 21.3486 36.1005 26.5031C36.5393 27.3437 36.7219 28.1118 37.124 28.9889C37.892 30.7804 38.8423 32.6083 39.6099 34.3629C40.3777 36.0809 41.1087 37.8359 42.2054 39.2617C42.7541 40.0291 44.9473 40.4314 45.9344 40.8337C46.6655 41.1626 47.7989 41.4552 48.4568 41.8572C49.6997 42.6246 50.9427 43.5024 52.1126 44.3431C52.6978 44.7816 54.5253 45.6958 54.6352 46.4266Z" fill="white"/>
<path d="M17.3465 14.6582C16.7249 14.6582 16.2863 14.7316 15.8477 14.8413V14.9145H15.9209C16.2134 15.4993 16.7249 15.9016 17.0905 16.4132C17.3831 16.998 17.6389 17.5831 17.9316 18.1681L18.0045 18.095C18.5166 17.7292 18.7723 17.1443 18.7723 16.2672C18.5527 16.0112 18.5163 15.7552 18.3335 15.4993C18.1142 15.1335 17.6389 14.9509 17.3465 14.6582Z" fill="white"/>
</g>
</g>
<defs>
<clipPath id="clip0_737_89309">
<rect width="54" height="54" fill="white" transform="translate(5 5)"/>
</clipPath>
</defs>
</svg>
