<svg width="80" height="80" viewBox="0 0 80 80" fill="none" xmlns="http://www.w3.org/2000/svg">
<path fill-rule="evenodd" clip-rule="evenodd" d="M14.7107 8.57129H65.291C68.6811 8.57129 71.4294 11.3195 71.4294 14.7097V65.2901C71.4294 68.6801 68.6811 71.4284 65.291 71.4284H14.7107C11.3205 71.4284 8.57227 68.6801 8.57227 65.2901V14.7097C8.57227 11.3195 11.3205 8.57129 14.7107 8.57129ZM47.4821 64.7358V58.5899C48.5965 59.5246 49.807 60.2257 51.1135 60.6929C52.4201 61.1603 53.7394 61.394 55.0715 61.394C55.853 61.394 56.535 61.3236 57.1178 61.1826C57.7006 61.0419 58.1874 60.8466 58.578 60.5969C58.9687 60.3472 59.2601 60.0528 59.4523 59.7135C59.6444 59.3741 59.7405 59.006 59.7405 58.6092C59.7405 58.0713 59.5868 57.5912 59.2795 57.1687C58.9718 56.7461 58.5524 56.3557 58.0208 55.9972C57.4894 55.6387 56.8584 55.293 56.1283 54.96C55.3982 54.6271 54.6104 54.2879 53.7651 53.9421C51.6131 53.0459 50.0087 51.9511 48.952 50.6579C47.8953 49.3647 47.3669 47.8026 47.3669 45.9717C47.3669 44.5377 47.6552 43.3053 48.2315 42.2746C48.8079 41.2439 49.5924 40.3957 50.5851 39.7299C51.5779 39.064 52.7275 38.5743 54.034 38.2606C55.3405 37.947 56.7238 37.79 58.1842 37.79C59.6188 37.79 60.8901 37.8765 61.9981 38.0494C63.1061 38.2222 64.1276 38.4879 65.0626 38.8463V44.589C64.6015 44.2688 64.0988 43.9872 63.5544 43.7439C63.0099 43.5006 62.4496 43.2989 61.8733 43.1388C61.2967 42.9789 60.7235 42.8604 60.1535 42.7836C59.5835 42.7068 59.0423 42.6683 58.53 42.6683C57.8255 42.6683 57.1851 42.7356 56.6086 42.8699C56.0322 43.0044 55.5455 43.1934 55.1484 43.4365C54.7514 43.6799 54.4439 43.9711 54.2261 44.3104C54.0084 44.6498 53.8995 45.0307 53.8995 45.4531C53.8995 45.9141 54.0213 46.327 54.2646 46.6919C54.5079 47.0568 54.8537 47.4025 55.3021 47.7291C55.7504 48.0556 56.2948 48.3756 56.9353 48.6894C57.5757 49.0031 58.2994 49.3263 59.1064 49.6593C60.208 50.1201 61.1975 50.6099 62.075 51.1284C62.9524 51.647 63.705 52.2329 64.3325 52.8859C64.9602 53.5389 65.4405 54.2847 65.7736 55.1233C66.1067 55.9619 66.2732 56.9381 66.2732 58.0521C66.2732 59.5886 65.9816 60.8785 65.3989 61.922C64.8161 62.9656 64.0252 63.8107 63.026 64.4572C62.027 65.1039 60.8645 65.568 59.5387 65.8497C58.2129 66.1314 56.8136 66.2722 55.3405 66.2722C53.829 66.2722 52.3913 66.1441 51.0271 65.8881C49.6629 65.632 48.4813 65.248 47.4821 64.7358ZM45.0343 43.4475H37.1501V65.904H30.9044V43.4475H23.0589V38.4039H45.0343V43.4475Z" fill="white"/>
</svg>
